ComicNeue_Bold.ufo
<glyph name="percent" format="1">
  <advance width="754"/>
  <unicode hex="0025"/>
  <outline>
    <contour>
      <point x="208" y="383" type="curve" smooth="yes"/>
      <point x="128" y="383"/>
      <point x="62" y="449"/>
      <point x="62" y="530" type="curve" smooth="yes"/>
      <point x="62" y="610"/>
      <point x="128" y="676"/>
      <point x="208" y="676" type="curve" smooth="yes"/>
      <point x="289" y="676"/>
      <point x="355" y="610"/>
      <point x="355" y="530" type="curve" smooth="yes"/>
      <point x="355" y="449"/>
      <point x="289" y="383"/>
    </contour>
    <contour>
      <point x="208" y="581" type="curve" smooth="yes"/>
      <point x="180" y="581"/>
      <point x="157" y="558"/>
      <point x="157" y="530" type="curve" smooth="yes"/>
      <point x="157" y="501"/>
      <point x="180" y="478"/>
      <point x="208" y="478" type="curve" smooth="yes"/>
      <point x="237" y="478"/>
      <point x="260" y="501"/>
      <point x="260" y="530" type="curve" smooth="yes"/>
      <point x="260" y="558"/>
      <point x="237" y="581"/>
    </contour>
    <contour>
      <point x="505" y="-7" type="curve" smooth="yes"/>
      <point x="424" y="-7"/>
      <point x="358" y="58"/>
      <point x="358" y="139" type="curve" smooth="yes"/>
      <point x="358" y="220"/>
      <point x="424" y="285"/>
      <point x="505" y="285" type="curve" smooth="yes"/>
      <point x="585" y="285"/>
      <point x="651" y="220"/>
      <point x="651" y="139" type="curve" smooth="yes"/>
      <point x="651" y="58"/>
      <point x="585" y="-7"/>
    </contour>
    <contour>
      <point x="505" y="191" type="curve" smooth="yes"/>
      <point x="476" y="191"/>
      <point x="453" y="167"/>
      <point x="453" y="139" type="curve" smooth="yes"/>
      <point x="453" y="110"/>
      <point x="476" y="87"/>
      <point x="505" y="87" type="curve" smooth="yes"/>
      <point x="533" y="87"/>
      <point x="556" y="110"/>
      <point x="556" y="139" type="curve" smooth="yes"/>
      <point x="556" y="167"/>
      <point x="533" y="191"/>
    </contour>
    <contour>
      <point x="198" y="0" type="curve" smooth="yes"/>
      <point x="170" y="0"/>
      <point x="152" y="22"/>
      <point x="152" y="45" type="curve" smooth="yes"/>
      <point x="152" y="51"/>
      <point x="154" y="61"/>
      <point x="159" y="71" type="curve" smooth="yes"/>
      <point x="479" y="649" type="line" smooth="yes"/>
      <point x="487" y="664"/>
      <point x="503" y="672"/>
      <point x="519" y="672" type="curve" smooth="yes"/>
      <point x="545" y="672"/>
      <point x="565" y="649"/>
      <point x="565" y="626" type="curve" smooth="yes"/>
      <point x="565" y="619"/>
      <point x="564" y="611"/>
      <point x="560" y="604" type="curve" smooth="yes"/>
      <point x="238" y="24" type="line" smooth="yes"/>
      <point x="229" y="7"/>
      <point x="213" y="0"/>
    </contour>
  </outline>
</glyph>
<glyph name="ampersand" format="1">
  <advance width="686"/>
  <unicode hex="0026"/>
  <outline>
    <contour>
      <point x="502" y="170" type="line"/>
      <point x="517" y="201"/>
      <point x="537" y="250"/>
      <point x="537" y="275" type="curve" smooth="yes"/>
      <point x="537" y="302"/>
      <point x="517" y="322"/>
      <point x="490" y="322" type="curve" smooth="yes"/>
      <point x="460" y="322"/>
      <point x="452" y="310"/>
      <point x="441" y="276" type="curve" smooth="yes"/>
      <point x="433" y="251" type="line"/>
      <point x="345" y="358" type="line"/>
      <point x="416" y="401"/>
      <point x="452" y="448"/>
      <point x="452" y="523" type="curve" smooth="yes"/>
      <point x="452" y="600"/>
      <point x="377" y="672"/>
      <point x="296" y="672" type="curve" smooth="yes"/>
      <point x="215" y="672"/>
      <point x="140" y="600"/>
      <point x="140" y="521" type="curve" smooth="yes"/>
      <point x="140" y="466"/>
      <point x="168" y="419"/>
      <point x="195" y="384" type="curve"/>
      <point x="126" y="344"/>
      <point x="61" y="291"/>
      <point x="61" y="187" type="curve" smooth="yes"/>
      <point x="61" y="70"/>
      <point x="169" y="-4"/>
      <point x="268" y="-4" type="curve" smooth="yes"/>
      <point x="343" y="-4"/>
      <point x="405" y="34"/>
      <point x="449" y="87" type="curve"/>
      <point x="507" y="17" type="line" smooth="yes"/>
      <point x="516" y="6"/>
      <point x="529" y="0"/>
      <point x="543" y="0" type="curve" smooth="yes"/>
      <point x="569" y="0"/>
      <point x="590" y="21"/>
      <point x="590" y="47" type="curve" smooth="yes"/>
      <point x="590" y="57"/>
      <point x="585" y="69"/>
      <point x="579" y="76" type="curve" smooth="yes"/>
    </contour>
    <contour>
      <point x="234" y="521" type="curve" smooth="yes"/>
      <point x="234" y="553"/>
      <point x="268" y="578"/>
      <point x="296" y="578" type="curve" smooth="yes"/>
      <point x="328" y="578"/>
      <point x="359" y="550"/>
      <point x="359" y="521" type="curve" smooth="yes"/>
      <point x="359" y="498"/>
      <point x="357" y="471"/>
      <point x="281" y="430" type="curve"/>
      <point x="260" y="454"/>
      <point x="234" y="491"/>
    </contour>
    <contour>
      <point x="268" y="91" type="curve" smooth="yes"/>
      <point x="222" y="91"/>
      <point x="155" y="121"/>
      <point x="155" y="187" type="curve" smooth="yes"/>
      <point x="155" y="247"/>
      <point x="203" y="280"/>
      <point x="261" y="312" type="curve"/>
      <point x="387" y="161" type="line"/>
      <point x="359" y="122"/>
      <point x="318" y="91"/>
    </contour>
  </outline>
</glyph>
<glyph name="quotesingle" format="1">
  <advance width="230"/>
  <unicode hex="0027"/>
  <outline>
    <contour>
      <point x="108" y="454" type="curve" smooth="yes"/>
      <point x="81" y="454"/>
      <point x="60" y="475"/>
      <point x="60" y="502" type="curve" smooth="yes"/>
      <point x="60" y="624" type="line" smooth="yes"/>
      <point x="60" y="650"/>
      <point x="81" y="672"/>
      <point x="108" y="672" type="curve" smooth="yes"/>
      <point x="133" y="672"/>
      <point x="156" y="650"/>
      <point x="156" y="624" type="curve" smooth="yes"/>
      <point x="156" y="502" type="line" smooth="yes"/>
      <point x="156" y="475"/>
      <point x="133" y="454"/>
    </contour>
  </outline>
</glyph>
<glyph name="parenright" format="1">
  <advance width="395"/>
  <unicode hex="0029"/>
  <outline>
    <contour>
      <point x="159" y="-78" type="curve" smooth="yes"/>
      <point x="191" y="-39"/>
      <point x="320" y="116"/>
      <point x="320" y="342" type="curve" smooth="yes"/>
      <point x="320" y="503"/>
      <point x="248" y="650"/>
      <point x="142" y="750" type="curve" smooth="yes"/>
      <point x="128" y="763"/>
      <point x="116" y="768"/>
      <point x="106" y="768" type="curve" smooth="yes"/>
      <point x="80" y="768"/>
      <point x="58" y="745"/>
      <point x="58" y="719" type="curve" smooth="yes"/>
      <point x="58" y="705"/>
      <point x="63" y="692"/>
      <point x="76" y="682" type="curve" smooth="yes"/>
      <point x="159" y="615"/>
      <point x="224" y="477"/>
      <point x="224" y="342" type="curve" smooth="yes"/>
      <point x="224" y="190"/>
      <point x="150" y="53"/>
      <point x="85" y="-15" type="curve" smooth="yes"/>
      <point x="75" y="-25"/>
      <point x="70" y="-37"/>
      <point x="70" y="-51" type="curve" smooth="yes"/>
      <point x="70" y="-77"/>
      <point x="95" y="-98"/>
      <point x="118" y="-98" type="curve" smooth="yes"/>
      <point x="138" y="-98"/>
      <point x="150" y="-88"/>
    </contour>
  </outline>
</glyph>
<glyph name="asterisk" format="1">
  <advance width="423"/>
  <unicode hex="002A"/>
  <outline>
    <contour>
      <point x="248" y="603" type="line"/>
      <point x="248" y="625" type="line" smooth="yes"/>
      <point x="248" y="651"/>
      <point x="227" y="672"/>
      <point x="201" y="672" type="curve" smooth="yes"/>
      <point x="175" y="672"/>
      <point x="154" y="651"/>
      <point x="154" y="625" type="curve" smooth="yes"/>
      <point x="154" y="603" type="line"/>
      <point x="133" y="609" type="line" smooth="yes"/>
      <point x="126" y="611"/>
      <point x="123" y="611"/>
      <point x="118" y="611" type="curve" smooth="yes"/>
      <point x="95" y="611"/>
      <point x="72" y="593"/>
      <point x="72" y="565" type="curve" smooth="yes"/>
      <point x="72" y="545"/>
      <point x="84" y="526"/>
      <point x="104" y="520" type="curve" smooth="yes"/>
      <point x="125" y="513" type="line"/>
      <point x="112" y="496" type="line" smooth="yes"/>
      <point x="106" y="488"/>
      <point x="103" y="478"/>
      <point x="103" y="469" type="curve" smooth="yes"/>
      <point x="103" y="444"/>
      <point x="124" y="421"/>
      <point x="151" y="421" type="curve" smooth="yes"/>
      <point x="165" y="421"/>
      <point x="179" y="427"/>
      <point x="188" y="440" type="curve" smooth="yes"/>
      <point x="201" y="458" type="line"/>
      <point x="215" y="441" type="line" smooth="yes"/>
      <point x="225" y="429"/>
      <point x="236" y="421"/>
      <point x="252" y="421" type="curve" smooth="yes"/>
      <point x="278" y="421"/>
      <point x="299" y="444"/>
      <point x="299" y="468" type="curve" smooth="yes"/>
      <point x="299" y="478"/>
      <point x="296" y="487"/>
      <point x="290" y="496" type="curve" smooth="yes"/>
      <point x="278" y="514" type="line"/>
      <point x="299" y="521" type="line" smooth="yes"/>
      <point x="318" y="527"/>
      <point x="331" y="546"/>
      <point x="331" y="566" type="curve" smooth="yes"/>
      <point x="331" y="594"/>
      <point x="308" y="612"/>
      <point x="284" y="612" type="curve" smooth="yes"/>
      <point x="280" y="612"/>
      <point x="277" y="612"/>
      <point x="270" y="610" type="curve" smooth="yes"/>
    </contour>
  </outline>
</glyph>
<glyph name="period" format="1">
  <advance width="240"/>
  <unicode hex="002E"/>
  <outline>
    <contour>
      <point x="111" y="0" type="curve" smooth="yes"/>
      <point x="80" y="0"/>
      <point x="59" y="25"/>
      <point x="59" y="57" type="curve" smooth="yes"/>
      <point x="59" y="90"/>
      <point x="87" y="121"/>
      <point x="118" y="121" type="curve" smooth="yes"/>
      <point x="147" y="121"/>
      <point x="170" y="96"/>
      <point x="170" y="65" type="curve" smooth="yes"/>
      <point x="170" y="29"/>
      <point x="141" y="0"/>
    </contour>
  </outline>
</glyph>
<glyph name="slash" format="1">
  <advance width="571"/>
  <unicode hex="002F"/>
  <outline>
    <contour>
      <point x="71" y="70" type="line" smooth="yes"/>
      <point x="67" y="63"/>
      <point x="65" y="55"/>
      <point x="65" y="47" type="curve" smooth="yes"/>
      <point x="65" y="22"/>
      <point x="85" y="-1"/>
      <point x="114" y="-1" type="curve" smooth="yes"/>
      <point x="131" y="-1"/>
      <point x="146" y="8"/>
      <point x="155" y="24" type="curve" smooth="yes"/>
      <point x="472" y="594" type="line" smooth="yes"/>
      <point x="476" y="602"/>
      <point x="482" y="615"/>
      <point x="482" y="628" type="curve" smooth="yes"/>
      <point x="482" y="650"/>
      <point x="462" y="674"/>
      <point x="434" y="674" type="curve" smooth="yes"/>
      <point x="418" y="674"/>
      <point x="402" y="668"/>
      <point x="392" y="650" type="curve" smooth="yes"/>
    </contour>
  </outline>
</glyph>
<glyph name="zero" format="1">
  <advance width="640"/>
  <unicode hex="0030"/>
  <outline>
    <contour>
      <point x="296" y="-3" type="curve" smooth="yes"/>
      <point x="433" y="-3"/>
      <point x="545" y="160"/>
      <point x="545" y="348" type="curve" smooth="yes"/>
      <point x="545" y="520"/>
      <point x="450" y="669"/>
      <point x="317" y="669" type="curve" smooth="yes"/>
      <point x="177" y="669"/>
      <point x="67" y="502"/>
      <point x="67" y="317" type="curve" smooth="yes"/>
      <point x="67" y="147"/>
      <point x="162" y="-3"/>
    </contour>
    <contour>
      <point x="317" y="573" type="curve" smooth="yes"/>
      <point x="394" y="573"/>
      <point x="451" y="466"/>
      <point x="451" y="346" type="curve" smooth="yes"/>
      <point x="451" y="208"/>
      <point x="379" y="93"/>
      <point x="296" y="93" type="curve" smooth="yes"/>
      <point x="217" y="93"/>
      <point x="162" y="201"/>
      <point x="162" y="319" type="curve" smooth="yes"/>
      <point x="162" y="458"/>
      <point x="233" y="573"/>
    </contour>
  </outline>
</glyph>
<glyph name="one" format="1">
  <advance width="430"/>
  <unicode hex="0031"/>
  <outline>
    <contour>
      <point x="68" y="521" type="line" smooth="yes"/>
      <point x="60" y="513"/>
      <point x="55" y="501"/>
      <point x="55" y="489" type="curve" smooth="yes"/>
      <point x="55" y="463"/>
      <point x="76" y="441"/>
      <point x="103" y="441" type="curve" smooth="yes"/>
      <point x="115" y="441"/>
      <point x="128" y="445"/>
      <point x="138" y="455" type="curve" smooth="yes"/>
      <point x="171" y="490" type="line"/>
      <point x="169" y="340"/>
      <point x="166" y="241"/>
      <point x="164" y="96" type="curve"/>
      <point x="106" y="96" type="line" smooth="yes"/>
      <point x="78" y="96"/>
      <point x="58" y="74"/>
      <point x="58" y="48" type="curve" smooth="yes"/>
      <point x="58" y="21"/>
      <point x="78" y="0"/>
      <point x="106" y="0" type="curve" smooth="yes"/>
      <point x="304" y="0" type="line" smooth="yes"/>
      <point x="329" y="0"/>
      <point x="352" y="21"/>
      <point x="352" y="48" type="curve" smooth="yes"/>
      <point x="352" y="74"/>
      <point x="334" y="96"/>
      <point x="302" y="96" type="curve" smooth="yes"/>
      <point x="261" y="96" type="line"/>
      <point x="268" y="615" type="line" smooth="yes"/>
      <point x="268" y="639"/>
      <point x="250" y="663"/>
      <point x="219" y="663" type="curve" smooth="yes"/>
      <point x="209" y="663"/>
      <point x="193" y="657"/>
      <point x="185" y="648" type="curve" smooth="yes"/>
    </contour>
  </outline>
</glyph>
<glyph name="two" format="1">
  <advance width="554"/>
  <unicode hex="0032"/>
  <outline>
    <contour>
      <point x="150" y="503" type="curve" smooth="yes"/>
      <point x="140" y="492"/>
      <point x="131" y="481"/>
      <point x="108" y="481" type="curve" smooth="yes"/>
      <point x="79" y="481"/>
      <point x="60" y="506"/>
      <point x="60" y="530" type="curve" smooth="yes"/>
      <point x="60" y="546"/>
      <point x="67" y="558"/>
      <point x="92" y="582" type="curve" smooth="yes"/>
      <point x="127" y="616"/>
      <point x="188" y="660"/>
      <point x="270" y="660" type="curve" smooth="yes"/>
      <point x="384" y="660"/>
      <point x="464" y="581"/>
      <point x="464" y="484" type="curve" smooth="yes"/>
      <point x="464" y="372"/>
      <point x="379" y="315"/>
      <point x="302" y="266" type="curve" smooth="yes"/>
      <point x="240" y="226"/>
      <point x="177" y="182"/>
      <point x="163" y="95" type="curve"/>
      <point x="424" y="95" type="line" smooth="yes"/>
      <point x="449" y="95"/>
      <point x="472" y="74"/>
      <point x="472" y="47" type="curve" smooth="yes"/>
      <point x="472" y="21"/>
      <point x="449" y="0"/>
      <point x="424" y="0" type="curve" smooth="yes"/>
      <point x="64" y="0" type="line"/>
      <point x="64" y="47" type="line" smooth="yes"/>
      <point x="64" y="220"/>
      <point x="157" y="288"/>
      <point x="242" y="342" type="curve"/>
      <point x="315" y="390"/>
      <point x="368" y="423"/>
      <point x="368" y="484" type="curve" smooth="yes"/>
      <point x="368" y="531"/>
      <point x="325" y="564"/>
      <point x="270" y="564" type="curve" smooth="yes"/>
      <point x="205" y="564"/>
      <point x="157" y="511"/>
    </contour>
  </outline>
</glyph>
<glyph name="three" format="1">
  <advance width="569"/>
  <unicode hex="0033"/>
  <outline>
    <contour>
      <point x="170" y="539" type="curve" smooth="yes"/>
      <point x="186" y="551"/>
      <point x="217" y="570"/>
      <point x="267" y="570" type="curve" smooth="yes"/>
      <point x="332" y="570"/>
      <point x="368" y="537"/>
      <point x="368" y="506" type="curve" smooth="yes"/>
      <point x="368" y="458"/>
      <point x="306" y="417"/>
      <point x="252" y="417" type="curve" smooth="yes"/>
      <point x="224" y="417"/>
      <point x="203" y="396"/>
      <point x="203" y="369" type="curve" smooth="yes"/>
      <point x="203" y="343"/>
      <point x="224" y="321"/>
      <point x="251" y="321" type="curve" smooth="yes"/>
      <point x="288" y="321"/>
      <point x="382" y="300"/>
      <point x="382" y="204" type="curve" smooth="yes"/>
      <point x="382" y="126"/>
      <point x="320" y="91"/>
      <point x="266" y="91" type="curve" smooth="yes"/>
      <point x="198" y="91"/>
      <point x="164" y="136"/>
      <point x="154" y="154" type="curve" smooth="yes"/>
      <point x="145" y="170"/>
      <point x="132" y="180"/>
      <point x="112" y="180" type="curve" smooth="yes"/>
      <point x="85" y="180"/>
      <point x="64" y="160"/>
      <point x="64" y="134" type="curve" smooth="yes"/>
      <point x="64" y="128"/>
      <point x="67" y="115"/>
      <point x="72" y="104" type="curve" smooth="yes"/>
      <point x="101" y="40"/>
      <point x="182" y="-5"/>
      <point x="268" y="-5" type="curve" smooth="yes"/>
      <point x="354" y="-5"/>
      <point x="479" y="50"/>
      <point x="479" y="204" type="curve" smooth="yes"/>
      <point x="479" y="273"/>
      <point x="451" y="335"/>
      <point x="395" y="372" type="curve"/>
      <point x="438" y="406"/>
      <point x="464" y="452"/>
      <point x="464" y="506" type="curve" smooth="yes"/>
      <point x="464" y="597"/>
      <point x="378" y="667"/>
      <point x="267" y="667" type="curve" smooth="yes"/>
      <point x="210" y="667"/>
      <point x="161" y="647"/>
      <point x="132" y="629" type="curve" smooth="yes"/>
      <point x="98" y="608"/>
      <point x="91" y="590"/>
      <point x="91" y="574" type="curve" smooth="yes"/>
      <point x="91" y="551"/>
      <point x="106" y="526"/>
      <point x="139" y="526" type="curve" smooth="yes"/>
      <point x="152" y="526"/>
      <point x="158" y="531"/>
    </contour>
  </outline>
</glyph>
<glyph name="nine" format="1">
  <advance width="572"/>
  <unicode hex="0039"/>
  <outline>
    <contour>
      <point x="388" y="362" type="curve"/>
      <point x="369" y="343"/>
      <point x="322" y="309"/>
      <point x="254" y="309" type="curve" smooth="yes"/>
      <point x="230" y="309"/>
      <point x="151" y="317"/>
      <point x="151" y="422" type="curve" smooth="yes"/>
      <point x="151" y="546"/>
      <point x="232" y="573"/>
      <point x="263" y="573" type="curve" smooth="yes"/>
      <point x="322" y="573"/>
      <point x="391" y="546"/>
      <point x="391" y="417" type="curve" smooth="yes"/>
      <point x="391" y="398"/>
      <point x="391" y="381"/>
    </contour>
    <contour>
      <point x="183" y="89" type="curve" smooth="yes"/>
      <point x="167" y="82"/>
      <point x="156" y="66"/>
      <point x="156" y="46" type="curve" smooth="yes"/>
      <point x="156" y="20"/>
      <point x="176" y="0"/>
      <point x="203" y="0" type="curve" smooth="yes"/>
      <point x="212" y="0"/>
      <point x="220" y="3"/>
      <point x="229" y="7" type="curve" smooth="yes"/>
      <point x="272" y="29"/>
      <point x="484" y="138"/>
      <point x="484" y="417" type="curve" smooth="yes"/>
      <point x="484" y="607"/>
      <point x="371" y="667"/>
      <point x="263" y="667" type="curve" smooth="yes"/>
      <point x="208" y="667"/>
      <point x="58" y="624"/>
      <point x="58" y="422" type="curve" smooth="yes"/>
      <point x="58" y="286"/>
      <point x="146" y="215"/>
      <point x="254" y="215" type="curve" smooth="yes"/>
      <point x="288" y="215"/>
      <point x="318" y="221"/>
      <point x="343" y="230" type="curve"/>
      <point x="307" y="170"/>
      <point x="249" y="121"/>
    </contour>
  </outline>
</glyph>
<glyph name="less" format="1">
  <advance width="566"/>
  <unicode hex="003C"/>
  <outline>
    <contour>
      <point x="379" y="15" type="line" smooth="yes"/>
      <point x="387" y="10"/>
      <point x="398" y="7"/>
      <point x="406" y="7" type="curve" smooth="yes"/>
      <point x="431" y="7"/>
      <point x="454" y="30"/>
      <point x="454" y="55" type="curve" smooth="yes"/>
      <point x="454" y="71"/>
      <point x="446" y="85"/>
      <point x="432" y="95" type="curve" smooth="yes"/>
      <point x="204" y="247" type="line"/>
      <point x="449" y="403" type="line" smooth="yes"/>
      <point x="462" y="411"/>
      <point x="471" y="428"/>
      <point x="471" y="443" type="curve" smooth="yes"/>
      <point x="471" y="471"/>
      <point x="449" y="492"/>
      <point x="423" y="492" type="curve" smooth="yes"/>
      <point x="414" y="492"/>
      <point x="405" y="489"/>
      <point x="397" y="484" type="curve" smooth="yes"/>
      <point x="90" y="288" type="line" smooth="yes"/>
      <point x="73" y="277"/>
      <point x="68" y="263"/>
      <point x="68" y="248" type="curve" smooth="yes"/>
      <point x="68" y="231"/>
      <point x="74" y="217"/>
      <point x="89" y="207" type="curve" smooth="yes"/>
    </contour>
  </outline>
</glyph>
<glyph name="question" format="1">
  <advance width="559"/>
  <unicode hex="003F"/>
  <outline>
    <contour>
      <point x="173" y="242" type="curve" smooth="yes"/>
      <point x="162" y="233"/>
      <point x="156" y="219"/>
      <point x="156" y="206" type="curve" smooth="yes"/>
      <point x="156" y="180"/>
      <point x="177" y="159"/>
      <point x="203" y="159" type="curve" smooth="yes"/>
      <point x="215" y="159"/>
      <point x="230" y="161"/>
      <point x="342" y="265" type="curve" smooth="yes"/>
      <point x="397" y="316"/>
      <point x="471" y="371"/>
      <point x="471" y="481" type="curve" smooth="yes"/>
      <point x="471" y="607"/>
      <point x="381" y="691"/>
      <point x="248" y="691" type="curve" smooth="yes"/>
      <point x="172" y="691"/>
      <point x="114" y="650"/>
      <point x="82" y="616" type="curve" smooth="yes"/>
      <point x="70" y="602"/>
      <point x="57" y="586"/>
      <point x="57" y="570" type="curve" smooth="yes"/>
      <point x="57" y="541"/>
      <point x="80" y="522"/>
      <point x="105" y="522" type="curve" smooth="yes"/>
      <point x="117" y="522"/>
      <point x="129" y="526"/>
      <point x="137" y="535" type="curve" smooth="yes"/>
      <point x="162" y="563"/>
      <point x="196" y="597"/>
      <point x="248" y="597" type="curve" smooth="yes"/>
      <point x="344" y="597"/>
      <point x="378" y="537"/>
      <point x="378" y="481" type="curve" smooth="yes"/>
      <point x="378" y="403"/>
      <point x="227" y="287"/>
    </contour>
    <contour>
      <point x="172" y="0" type="curve" smooth="yes"/>
      <point x="203" y="0"/>
      <point x="231" y="29"/>
      <point x="231" y="65" type="curve" smooth="yes"/>
      <point x="231" y="96"/>
      <point x="209" y="121"/>
      <point x="179" y="121" type="curve" smooth="yes"/>
      <point x="149" y="121"/>
      <point x="120" y="90"/>
      <point x="120" y="57" type="curve" smooth="yes"/>
      <point x="120" y="25"/>
      <point x="141" y="0"/>
    </contour>
  </outline>
</glyph>
<glyph name="B" format="1">
  <advance width="629"/>
  <unicode hex="0042"/>
  <outline>
    <contour>
      <point x="120" y="-2" type="curve" smooth="yes"/>
      <point x="85" y="-2"/>
      <point x="61" y="7"/>
      <point x="61" y="53" type="curve" smooth="yes"/>
      <point x="61" y="632" type="line" smooth="yes"/>
      <point x="61" y="658"/>
      <point x="84" y="681"/>
      <point x="110" y="681" type="curve" smooth="yes"/>
      <point x="280" y="681" type="line" smooth="yes"/>
      <point x="484" y="681"/>
      <point x="507" y="533"/>
      <point x="507" y="501" type="curve" smooth="yes"/>
      <point x="507" y="443"/>
      <point x="487" y="402"/>
      <point x="461" y="374" type="curve"/>
      <point x="529" y="342"/>
      <point x="562" y="290"/>
      <point x="562" y="213" type="curve" smooth="yes"/>
      <point x="562" y="77"/>
      <point x="419" y="-2"/>
    </contour>
    <contour>
      <point x="161" y="307" type="line"/>
      <point x="161" y="97" type="line"/>
      <point x="325" y="100"/>
      <point x="463" y="135"/>
      <point x="463" y="213" type="curve" smooth="yes"/>
      <point x="463" y="280"/>
      <point x="390" y="307"/>
      <point x="329" y="307" type="curve" smooth="yes"/>
    </contour>
    <contour>
      <point x="161" y="581" type="line"/>
      <point x="161" y="407" type="line"/>
      <point x="320" y="407" type="line" smooth="yes"/>
      <point x="371" y="407"/>
      <point x="408" y="453"/>
      <point x="408" y="498" type="curve" smooth="yes"/>
      <point x="408" y="511"/>
      <point x="400" y="581"/>
      <point x="280" y="581" type="curve" smooth="yes"/>
    </contour>
  </outline>
</glyph>
<glyph name="G" format="1">
  <advance width="777"/>
  <unicode hex="0047"/>
  <outline>
    <contour>
      <point x="660" y="305" type="curve" smooth="yes"/>
      <point x="622" y="317"/>
      <point x="585" y="322"/>
      <point x="549" y="322" type="curve" smooth="yes"/>
      <point x="494" y="322"/>
      <point x="434" y="314"/>
      <point x="414" y="304" type="curve"/>
      <point x="391" y="296"/>
      <point x="379" y="277"/>
      <point x="379" y="256" type="curve" smooth="yes"/>
      <point x="379" y="224"/>
      <point x="403" y="206"/>
      <point x="428" y="206" type="curve" smooth="yes"/>
      <point x="437" y="206"/>
      <point x="444" y="208"/>
      <point x="453" y="210" type="curve" smooth="yes"/>
      <point x="472" y="215"/>
      <point x="501" y="222"/>
      <point x="545" y="223" type="curve"/>
      <point x="515" y="145"/>
      <point x="448" y="99"/>
      <point x="362" y="99" type="curve" smooth="yes"/>
      <point x="223" y="99"/>
      <point x="158" y="231"/>
      <point x="158" y="332" type="curve" smooth="yes"/>
      <point x="158" y="409"/>
      <point x="215" y="583"/>
      <point x="377" y="583" type="curve" smooth="yes"/>
      <point x="481" y="583"/>
      <point x="530" y="524"/>
      <point x="550" y="470" type="curve" smooth="yes"/>
      <point x="559" y="448"/>
      <point x="575" y="438"/>
      <point x="598" y="438" type="curve" smooth="yes"/>
      <point x="627" y="438"/>
      <point x="646" y="456"/>
      <point x="646" y="484" type="curve" smooth="yes"/>
      <point x="646" y="527"/>
      <point x="570" y="683"/>
      <point x="377" y="683" type="curve" smooth="yes"/>
      <point x="181" y="683"/>
      <point x="58" y="498"/>
      <point x="58" y="332" type="curve" smooth="yes"/>
      <point x="58" y="162"/>
      <point x="175" y="-1"/>
      <point x="362" y="-1" type="curve" smooth="yes"/>
      <point x="509" y="-1"/>
      <point x="609" y="90"/>
      <point x="645" y="209" type="curve"/>
      <point x="669" y="210"/>
      <point x="692" y="229"/>
      <point x="692" y="258" type="curve" smooth="yes"/>
      <point x="692" y="279"/>
      <point x="683" y="298"/>
    </contour>
  </outline>
</glyph>
<glyph name="H" format="1">
  <advance width="711"/>
  <unicode hex="0048"/>
  <outline>
    <contour>
      <point x="576" y="681" type="curve" smooth="yes"/>
      <point x="602" y="681"/>
      <point x="626" y="660"/>
      <point x="626" y="632" type="curve" smooth="yes"/>
      <point x="626" y="49" type="line" smooth="yes"/>
      <point x="626" y="23"/>
      <point x="602" y="0"/>
      <point x="576" y="0" type="curve" smooth="yes"/>
      <point x="548" y="0"/>
      <point x="526" y="23"/>
      <point x="526" y="49" type="curve" smooth="yes"/>
      <point x="526" y="322" type="line"/>
      <point x="162" y="271" type="line"/>
      <point x="162" y="49" type="line" smooth="yes"/>
      <point x="162" y="23"/>
      <point x="139" y="0"/>
      <point x="111" y="0" type="curve" smooth="yes"/>
      <point x="83" y="0"/>
      <point x="62" y="23"/>
      <point x="62" y="49" type="curve" smooth="yes"/>
      <point x="62" y="632" type="line" smooth="yes"/>
      <point x="62" y="660"/>
      <point x="83" y="681"/>
      <point x="111" y="681" type="curve" smooth="yes"/>
      <point x="139" y="681"/>
      <point x="162" y="660"/>
      <point x="162" y="632" type="curve" smooth="yes"/>
      <point x="162" y="372" type="line"/>
      <point x="526" y="423" type="line"/>
      <point x="526" y="632" type="line" smooth="yes"/>
      <point x="526" y="660"/>
      <point x="548" y="681"/>
    </contour>
  </outline>
</glyph>
<glyph name="J" format="1">
  <advance width="498"/>
  <unicode hex="004A"/>
  <outline>
    <contour>
      <point x="226" y="677" type="curve" smooth="yes"/>
      <point x="417" y="677" type="line" smooth="yes"/>
      <point x="443" y="677"/>
      <point x="466" y="654"/>
      <point x="466" y="628" type="curve" smooth="yes"/>
      <point x="466" y="600"/>
      <point x="443" y="578"/>
      <point x="417" y="578" type="curve"/>
      <point x="417" y="171" type="line" smooth="yes"/>
      <point x="417" y="93"/>
      <point x="368" y="0"/>
      <point x="234" y="0" type="curve" smooth="yes"/>
      <point x="67" y="0"/>
      <point x="45" y="137"/>
      <point x="45" y="181" type="curve" smooth="yes"/>
      <point x="45" y="210"/>
      <point x="64" y="233"/>
      <point x="95" y="233" type="curve" smooth="yes"/>
      <point x="123" y="233"/>
      <point x="145" y="211"/>
      <point x="145" y="183" type="curve" smooth="yes"/>
      <point x="145" y="124"/>
      <point x="181" y="100"/>
      <point x="234" y="100" type="curve" smooth="yes"/>
      <point x="308" y="100"/>
      <point x="317" y="150"/>
      <point x="317" y="171" type="curve" smooth="yes"/>
      <point x="317" y="578" type="line"/>
      <point x="226" y="578" type="line" smooth="yes"/>
      <point x="198" y="578"/>
      <point x="175" y="600"/>
      <point x="175" y="628" type="curve" smooth="yes"/>
      <point x="175" y="654"/>
      <point x="198" y="677"/>
    </contour>
  </outline>
</glyph>
<glyph name="L" format="1">
  <advance width="503"/>
  <unicode hex="004C"/>
  <outline>
    <contour>
      <point x="434" y="22" type="curve" smooth="yes"/>
      <point x="111" y="0" type="line" smooth="yes"/>
      <point x="109.943" y="-0.0782782"/>
      <point x="108.89" y="-0.116728"/>
      <point x="107.84" y="-0.116728" type="curve" smooth="yes"/>
      <point x="82.0813" y="-0.116728"/>
      <point x="59" y="23.0568"/>
      <point x="59" y="49" type="curve" smooth="yes"/>
      <point x="59" y="632" type="line" smooth="yes"/>
      <point x="59" y="658"/>
      <point x="81" y="681"/>
      <point x="109" y="681" type="curve" smooth="yes"/>
      <point x="135" y="681"/>
      <point x="158" y="658"/>
      <point x="158" y="632" type="curve" smooth="yes"/>
      <point x="158" y="102" type="line"/>
      <point x="426" y="121" type="line" smooth="yes"/>
      <point x="427.379" y="121.092"/>
      <point x="428.744" y="121.137"/>
      <point x="430.093" y="121.137" type="curve" smooth="yes"/>
      <point x="458.067" y="121.137"/>
      <point x="479" y="101.575"/>
      <point x="479" y="72" type="curve" smooth="yes"/>
      <point x="479" y="48"/>
      <point x="459" y="24"/>
    </contour>
  </outline>
</glyph>
<glyph name="M" format="1">
  <advance width="883"/>
  <unicode hex="004D"/>
  <outline>
    <contour>
      <point x="670" y="642" type="curve" smooth="yes"/>
      <point x="797" y="76" type="line" smooth="yes"/>
      <point x="800" y="62"/>
      <point x="802" y="53"/>
      <point x="802" y="46" type="curve" smooth="yes"/>
      <point x="802" y="22"/>
      <point x="782" y="0"/>
      <point x="753" y="0" type="curve" smooth="yes"/>
      <point x="727" y="0"/>
      <point x="710" y="16"/>
      <point x="705" y="38" type="curve" smooth="yes"/>
      <point x="613" y="456" type="line"/>
      <point x="459" y="32" type="line" smooth="yes"/>
      <point x="452" y="12"/>
      <point x="434" y="0"/>
      <point x="412" y="0" type="curve" smooth="yes"/>
      <point x="392" y="0"/>
      <point x="374" y="10"/>
      <point x="366" y="34" type="curve" smooth="yes"/>
      <point x="236" y="441" type="line"/>
      <point x="148" y="39" type="line" smooth="yes"/>
      <point x="143" y="15"/>
      <point x="126" y="0"/>
      <point x="99" y="0" type="curve" smooth="yes"/>
      <point x="67" y="0"/>
      <point x="52" y="23"/>
      <point x="52" y="42" type="curve" smooth="yes"/>
      <point x="52" y="47"/>
      <point x="52" y="58"/>
      <point x="56" y="75" type="curve" smooth="yes"/>
      <point x="180" y="642" type="line" smooth="yes"/>
      <point x="185" y="667"/>
      <point x="205" y="681"/>
      <point x="229" y="681" type="curve" smooth="yes"/>
      <point x="253" y="681"/>
      <point x="268" y="668"/>
      <point x="275" y="647" type="curve" smooth="yes"/>
      <point x="416" y="204" type="line"/>
      <point x="576" y="649" type="line" smooth="yes"/>
      <point x="584" y="671"/>
      <point x="601" y="681"/>
      <point x="626" y="681" type="curve" smooth="yes"/>
      <point x="650" y="681"/>
      <point x="665" y="665"/>
    </contour>
  </outline>
</glyph>
<glyph name="N" format="1">
  <advance width="645"/>
  <unicode hex="004E"/>
  <outline>
    <contour>
      <point x="473" y="22" type="line" smooth="yes"/>
      <point x="483" y="8"/>
      <point x="499" y="0"/>
      <point x="514" y="0" type="curve" smooth="yes"/>
      <point x="541" y="0"/>
      <point x="563" y="20"/>
      <point x="563" y="49" type="curve" smooth="yes"/>
      <point x="563" y="632" type="line" smooth="yes"/>
      <point x="563" y="659"/>
      <point x="540" y="682"/>
      <point x="514" y="682" type="curve" smooth="yes"/>
      <point x="486" y="682"/>
      <point x="464" y="659"/>
      <point x="464" y="632" type="curve" smooth="yes"/>
      <point x="464" y="207" type="line"/>
      <point x="151" y="660" type="line" smooth="yes"/>
      <point x="142" y="673"/>
      <point x="125" y="681"/>
      <point x="110" y="681" type="curve" smooth="yes"/>
      <point x="81" y="681"/>
      <point x="62" y="658"/>
      <point x="62" y="632" type="curve" smooth="yes"/>
      <point x="61" y="49" type="line" smooth="yes"/>
      <point x="61" y="23"/>
      <point x="84" y="0"/>
      <point x="110" y="0" type="curve" smooth="yes"/>
      <point x="138" y="0"/>
      <point x="160" y="21"/>
      <point x="160" y="49" type="curve" smooth="yes"/>
      <point x="161" y="473" type="line"/>
    </contour>
  </outline>
</glyph>
<glyph name="R" format="1">
  <advance width="623"/>
  <unicode hex="0052"/>
  <outline>
    <contour>
      <point x="550" y="72" type="curve" smooth="yes"/>
      <point x="554" y="64"/>
      <point x="555" y="56"/>
      <point x="555" y="49" type="curve" smooth="yes"/>
      <point x="555" y="24"/>
      <point x="536" y="0"/>
      <point x="506" y="0" type="curve" smooth="yes"/>
      <point x="487" y="0"/>
      <point x="472" y="10"/>
      <point x="462" y="26" type="curve" smooth="yes"/>
      <point x="345" y="225"/>
      <point x="261" y="233"/>
      <point x="226" y="233" type="curve" smooth="yes"/>
      <point x="207" y="233"/>
      <point x="183" y="231"/>
      <point x="159" y="227" type="curve"/>
      <point x="159" y="49" type="line" smooth="yes"/>
      <point x="159" y="21"/>
      <point x="136" y="0"/>
      <point x="110" y="0" type="curve" smooth="yes"/>
      <point x="82" y="0"/>
      <point x="61" y="21"/>
      <point x="61" y="49" type="curve" smooth="yes"/>
      <point x="61" y="627" type="line" smooth="yes"/>
      <point x="61" y="685.242"/>
      <point x="76.8843" y="687.007"/>
      <point x="164.194" y="687.007" type="curve" smooth="yes"/>
      <point x="169.827" y="687.007"/>
      <point x="175.758" y="687"/>
      <point x="182" y="687" type="curve" smooth="yes"/>
      <point x="406" y="687"/>
      <point x="532" y="607"/>
      <point x="532" y="469" type="curve" smooth="yes"/>
      <point x="532" y="368"/>
      <point x="463" y="310"/>
      <point x="384" y="275" type="curve"/>
      <point x="431" y="238"/>
      <point x="499" y="171"/>
    </contour>
    <contour>
      <point x="159" y="589" type="line"/>
      <point x="159" y="324" type="line"/>
      <point x="281" y="332"/>
      <point x="433" y="374"/>
      <point x="433" y="469" type="curve" smooth="yes"/>
      <point x="433" y="548"/>
      <point x="339" y="589"/>
      <point x="179" y="589" type="curve" smooth="yes"/>
    </contour>
  </outline>
</glyph>
<glyph name="T" format="1">
  <advance width="548"/>
  <unicode hex="0054"/>
  <outline>
    <contour>
      <point x="472" y="681" type="line"/>
      <point x="500" y="681"/>
      <point x="521" y="660"/>
      <point x="521" y="632" type="curve" smooth="yes"/>
      <point x="521" y="605"/>
      <point x="500" y="582"/>
      <point x="472" y="582" type="curve" smooth="yes"/>
      <point x="308" y="582" type="line"/>
      <point x="308" y="49" type="line" smooth="yes"/>
      <point x="308" y="23"/>
      <point x="286" y="0"/>
      <point x="259" y="0" type="curve" smooth="yes"/>
      <point x="232" y="0"/>
      <point x="209" y="23"/>
      <point x="209" y="49" type="curve" smooth="yes"/>
      <point x="209" y="582" type="line"/>
      <point x="58" y="582" type="line" smooth="yes"/>
      <point x="32" y="582"/>
      <point x="9" y="605"/>
      <point x="9" y="632" type="curve" smooth="yes"/>
      <point x="9" y="660"/>
      <point x="32" y="681"/>
      <point x="58" y="681" type="curve" smooth="yes"/>
    </contour>
  </outline>
</glyph>
<glyph name="U" format="1">
  <advance width="709"/>
  <unicode hex="0055"/>
  <outline>
    <contour>
      <point x="622" y="633" type="curve" smooth="yes"/>
      <point x="622" y="648"/>
      <point x="616" y="681"/>
      <point x="573" y="681" type="curve" smooth="yes"/>
      <point x="530" y="681"/>
      <point x="523" y="647"/>
      <point x="523" y="631" type="curve" smooth="yes"/>
      <point x="523" y="498"/>
      <point x="528" y="397"/>
      <point x="515" y="277" type="curve" smooth="yes"/>
      <point x="499" y="139"/>
      <point x="419" y="92"/>
      <point x="336" y="92" type="curve" smooth="yes"/>
      <point x="205" y="92"/>
      <point x="168" y="236"/>
      <point x="163" y="381" type="curve" smooth="yes"/>
      <point x="160" y="474"/>
      <point x="161" y="544"/>
      <point x="163" y="633" type="curve" smooth="yes"/>
      <point x="163" y="649"/>
      <point x="155" y="681"/>
      <point x="115" y="681" type="curve" smooth="yes"/>
      <point x="74" y="681"/>
      <point x="63" y="650"/>
      <point x="63" y="634" type="curve" smooth="yes"/>
      <point x="62" y="549"/>
      <point x="60" y="474"/>
      <point x="63" y="367" type="curve" smooth="yes"/>
      <point x="70" y="151"/>
      <point x="165" y="0"/>
      <point x="334" y="0" type="curve" smooth="yes"/>
      <point x="511" y="0"/>
      <point x="593" y="110"/>
      <point x="614" y="270" type="curve" smooth="yes"/>
      <point x="631" y="400"/>
      <point x="626" y="507"/>
    </contour>
  </outline>
</glyph>
<glyph name="V" format="1">
  <advance width="561"/>
  <unicode hex="0056"/>
  <outline>
    <contour>
      <point x="208" y="33" type="line" smooth="yes"/>
      <point x="215" y="11"/>
      <point x="234" y="0"/>
      <point x="255" y="0" type="curve" smooth="yes"/>
      <point x="275" y="0"/>
      <point x="292" y="8"/>
      <point x="301" y="31" type="curve" smooth="yes"/>
      <point x="530" y="613" type="line" smooth="yes"/>
      <point x="533" y="620"/>
      <point x="534" y="627"/>
      <point x="534" y="632" type="curve" smooth="yes"/>
      <point x="534" y="657"/>
      <point x="514" y="680"/>
      <point x="485" y="680" type="curve" smooth="yes"/>
      <point x="465" y="680"/>
      <point x="448" y="669"/>
      <point x="439" y="649" type="curve"/>
      <point x="380" y="498"/>
      <point x="259" y="193"/>
      <point x="259" y="193" type="curve"/>
      <point x="106" y="646" type="line" smooth="yes"/>
      <point x="98" y="669"/>
      <point x="79" y="680"/>
      <point x="60" y="680" type="curve" smooth="yes"/>
      <point x="29" y="680"/>
      <point x="9" y="660"/>
      <point x="9" y="633" type="curve" smooth="yes"/>
      <point x="9" y="628"/>
      <point x="10" y="619"/>
      <point x="13" y="610" type="curve" smooth="yes"/>
    </contour>
  </outline>
</glyph>
<glyph name="Y" format="1">
  <advance width="619"/>
  <unicode hex="0059"/>
  <outline>
    <contour>
      <point x="307" y="321" type="line"/>
      <point x="111" y="656" type="line" smooth="yes"/>
      <point x="102" y="672"/>
      <point x="86" y="681"/>
      <point x="69" y="681" type="curve" smooth="yes"/>
      <point x="41" y="681"/>
      <point x="19" y="658"/>
      <point x="19" y="632" type="curve" smooth="yes"/>
      <point x="19" y="623"/>
      <point x="21" y="614"/>
      <point x="27" y="603" type="curve" smooth="yes"/>
      <point x="249" y="223" type="line"/>
      <point x="162" y="77" type="line" smooth="yes"/>
      <point x="155" y="64"/>
      <point x="154" y="59"/>
      <point x="154" y="49" type="curve" smooth="yes"/>
      <point x="154" y="24"/>
      <point x="175" y="0"/>
      <point x="203" y="0" type="curve" smooth="yes"/>
      <point x="221" y="0"/>
      <point x="237" y="9"/>
      <point x="246" y="25" type="curve" smooth="yes"/>
      <point x="588" y="600" type="line" smooth="yes"/>
      <point x="597" y="615"/>
      <point x="598" y="621"/>
      <point x="598" y="632" type="curve" smooth="yes"/>
      <point x="598" y="660"/>
      <point x="573" y="681"/>
      <point x="549" y="681" type="curve" smooth="yes"/>
      <point x="531" y="681"/>
      <point x="515" y="673"/>
      <point x="506" y="657" type="curve" smooth="yes"/>
    </contour>
  </outline>
</glyph>
<glyph name="Z" format="1">
  <advance width="665"/>
  <unicode hex="005A"/>
  <outline>
    <contour>
      <point x="190" y="102" type="line"/>
      <point x="530" y="102" type="line" smooth="yes"/>
      <point x="558" y="102"/>
      <point x="580" y="80"/>
      <point x="580" y="51" type="curve" smooth="yes"/>
      <point x="580" y="24"/>
      <point x="558" y="0"/>
      <point x="530" y="0" type="curve" smooth="yes"/>
      <point x="99" y="0" type="line" smooth="yes"/>
      <point x="62" y="0"/>
      <point x="45" y="23"/>
      <point x="45" y="56" type="curve" smooth="yes"/>
      <point x="45" y="65"/>
      <point x="49" y="78"/>
      <point x="57" y="88" type="curve" smooth="yes"/>
      <point x="451" y="577" type="line"/>
      <point x="111" y="577" type="line" smooth="yes"/>
      <point x="84" y="577"/>
      <point x="61" y="600"/>
      <point x="61" y="629" type="curve" smooth="yes"/>
      <point x="61" y="656"/>
      <point x="84" y="680"/>
      <point x="111" y="680" type="curve" smooth="yes"/>
      <point x="542" y="680" type="line" smooth="yes"/>
      <point x="572" y="680"/>
      <point x="596" y="657"/>
      <point x="596" y="627" type="curve" smooth="yes"/>
      <point x="596" y="611"/>
      <point x="594" y="605"/>
      <point x="587" y="596" type="curve" smooth="yes"/>
    </contour>
  </outline>
</glyph>
<glyph name="bracketleft" format="1">
  <advance width="341"/>
  <unicode hex="005B"/>
  <outline>
    <contour>
      <point x="216" y="-113" type="line" smooth="yes"/>
      <point x="241" y="-113"/>
      <point x="264" y="-92"/>
      <point x="264" y="-64" type="curve" smooth="yes"/>
      <point x="264" y="-39"/>
      <point x="241" y="-16"/>
      <point x="216" y="-16" type="curve" smooth="yes"/>
      <point x="154" y="-16" type="line"/>
      <point x="154" y="681" type="line"/>
      <point x="230" y="681" type="line" smooth="yes"/>
      <point x="256" y="681"/>
      <point x="278" y="702"/>
      <point x="278" y="729" type="curve" smooth="yes"/>
      <point x="278" y="755"/>
      <point x="256" y="778"/>
      <point x="230" y="778" type="curve" smooth="yes"/>
      <point x="106" y="778" type="line" smooth="yes"/>
      <point x="79" y="778"/>
      <point x="58" y="755"/>
      <point x="58" y="729" type="curve" smooth="yes"/>
      <point x="58" y="-64" type="line" smooth="yes"/>
      <point x="58" y="-92"/>
      <point x="79" y="-113"/>
      <point x="106" y="-113" type="curve" smooth="yes"/>
    </contour>
  </outline>
</glyph>
<glyph name="backslash" format="1">
  <advance width="571"/>
  <unicode hex="005C"/>
  <outline>
    <contour>
      <point x="155" y="650" type="line" smooth="yes"/>
      <point x="145" y="668"/>
      <point x="129" y="674"/>
      <point x="113" y="674" type="curve" smooth="yes"/>
      <point x="85" y="674"/>
      <point x="65" y="650"/>
      <point x="65" y="628" type="curve" smooth="yes"/>
      <point x="65" y="615"/>
      <point x="71" y="602"/>
      <point x="75" y="594" type="curve" smooth="yes"/>
      <point x="392" y="24" type="line" smooth="yes"/>
      <point x="401" y="8"/>
      <point x="416" y="-1"/>
      <point x="433" y="-1" type="curve" smooth="yes"/>
      <point x="462" y="-1"/>
      <point x="482" y="22"/>
      <point x="482" y="47" type="curve" smooth="yes"/>
      <point x="482" y="55"/>
      <point x="480" y="63"/>
      <point x="476" y="70" type="curve" smooth="yes"/>
    </contour>
  </outline>
</glyph>
<glyph name="asciicircum" format="1">
  <advance width="526"/>
  <unicode hex="005E"/>
  <outline>
    <contour>
      <point x="100" y="431" type="curve" smooth="yes"/>
      <point x="212" y="619" type="line" smooth="yes"/>
      <point x="222" y="636"/>
      <point x="239" y="648"/>
      <point x="261" y="648" type="curve" smooth="yes"/>
      <point x="282" y="648"/>
      <point x="297" y="640"/>
      <point x="310" y="615" type="curve" smooth="yes"/>
      <point x="403" y="431" type="line" smooth="yes"/>
      <point x="408" y="421"/>
      <point x="410" y="412"/>
      <point x="410" y="406" type="curve" smooth="yes"/>
      <point x="410" y="380"/>
      <point x="389" y="359"/>
      <point x="362" y="359" type="curve" smooth="yes"/>
      <point x="345" y="359"/>
      <point x="329" y="364"/>
      <point x="321" y="384" type="curve" smooth="yes"/>
      <point x="259" y="541" type="line"/>
      <point x="182" y="384" type="line" smooth="yes"/>
      <point x="173" y="366"/>
      <point x="158" y="359"/>
      <point x="140" y="359" type="curve" smooth="yes"/>
      <point x="113" y="359"/>
      <point x="93" y="380"/>
      <point x="93" y="406" type="curve" smooth="yes"/>
      <point x="93" y="414"/>
      <point x="95" y="422"/>
    </contour>
  </outline>
</glyph>
<glyph name="underscore" format="1">
  <advance width="516"/>
  <unicode hex="005F"/>
  <outline>
    <contour>
      <point x="469" y="-51" type="curve" smooth="yes"/>
      <point x="24" y="-51" type="line" smooth="yes"/>
      <point x="-3" y="-51"/>
      <point x="-24" y="-30"/>
      <point x="-24" y="-3" type="curve" smooth="yes"/>
      <point x="-24" y="23"/>
      <point x="-3" y="45"/>
      <point x="24" y="45" type="curve" smooth="yes"/>
      <point x="469" y="45" type="line" smooth="yes"/>
      <point x="495" y="45"/>
      <point x="517" y="23"/>
      <point x="517" y="-3" type="curve" smooth="yes"/>
      <point x="517" y="-30"/>
      <point x="495" y="-51"/>
    </contour>
  </outline>
</glyph>
<glyph name="grave" format="1">
  <advance width="526"/>
  <unicode hex="0060"/>
  <outline>
    <contour>
      <point x="272" y="536" type="line" smooth="yes"/>
      <point x="280" y="527"/>
      <point x="291" y="521"/>
      <point x="306" y="521" type="curve" smooth="yes"/>
      <point x="330" y="521"/>
      <point x="354" y="541"/>
      <point x="354" y="568" type="curve" smooth="yes"/>
      <point x="354" y="578"/>
      <point x="351" y="586"/>
      <point x="342" y="598" type="curve" smooth="yes"/>
      <point x="247" y="717" type="line" smooth="yes"/>
      <point x="237" y="729"/>
      <point x="221" y="739"/>
      <point x="203" y="739" type="curve" smooth="yes"/>
      <point x="175" y="739"/>
      <point x="149" y="713"/>
      <point x="149" y="685" type="curve" smooth="yes"/>
      <point x="149" y="669"/>
      <point x="155" y="657"/>
      <point x="165" y="647" type="curve" smooth="yes"/>
    </contour>
  </outline>
</glyph>
<glyph name="a" format="1">
  <advance width="531"/>
  <unicode hex="0061"/>
  <outline>
    <contour>
      <point x="447" y="466" type="curve"/>
      <point x="447" y="50" type="line" smooth="yes"/>
      <point x="447" y="24"/>
      <point x="427" y="0"/>
      <point x="399" y="0" type="curve" smooth="yes"/>
      <point x="373" y="0"/>
      <point x="357" y="15"/>
      <point x="352" y="35" type="curve"/>
      <point x="319" y="20"/>
      <point x="280" y="7"/>
      <point x="240" y="7" type="curve" smooth="yes"/>
      <point x="130" y="7"/>
      <point x="47" y="95"/>
      <point x="47" y="226" type="curve" smooth="yes"/>
      <point x="47" y="329"/>
      <point x="112" y="512"/>
      <point x="287" y="512" type="curve" smooth="yes"/>
      <point x="359" y="512"/>
      <point x="429" y="475"/>
    </contour>
    <contour>
      <point x="349" y="144" type="curve"/>
      <point x="352" y="405" type="line"/>
      <point x="335" y="412"/>
      <point x="310" y="417"/>
      <point x="289" y="417" type="curve" smooth="yes"/>
      <point x="182" y="417"/>
      <point x="144" y="295"/>
      <point x="144" y="228" type="curve" smooth="yes"/>
      <point x="144" y="174"/>
      <point x="169" y="103"/>
      <point x="239" y="103" type="curve" smooth="yes"/>
      <point x="279" y="103"/>
      <point x="324" y="128"/>
    </contour>
  </outline>
</glyph>
<glyph name="d" format="1">
  <advance width="556"/>
  <unicode hex="0064"/>
  <outline>
    <contour>
      <point x="470" y="628" type="curve" smooth="yes"/>
      <point x="456" y="46" type="line" smooth="yes"/>
      <point x="455" y="20"/>
      <point x="434" y="0"/>
      <point x="407" y="0" type="curve" smooth="yes"/>
      <point x="378" y="0"/>
      <point x="361" y="22"/>
      <point x="359" y="45" type="curve"/>
      <point x="326" y="23"/>
      <point x="282" y="4"/>
      <point x="227" y="4" type="curve" smooth="yes"/>
      <point x="105" y="4"/>
      <point x="48" y="117"/>
      <point x="48" y="228" type="curve" smooth="yes"/>
      <point x="48" y="369"/>
      <point x="108" y="498"/>
      <point x="266" y="498" type="curve" smooth="yes"/>
      <point x="304" y="498"/>
      <point x="340" y="490"/>
      <point x="368" y="481" type="curve"/>
      <point x="373" y="630" type="line" smooth="yes"/>
      <point x="374" y="657"/>
      <point x="395" y="679"/>
      <point x="422" y="679" type="curve" smooth="yes"/>
      <point x="447" y="679"/>
      <point x="471" y="655"/>
    </contour>
    <contour>
      <point x="144" y="231" type="curve" smooth="yes"/>
      <point x="144" y="174"/>
      <point x="162" y="94"/>
      <point x="227" y="94" type="curve" smooth="yes"/>
      <point x="308" y="94"/>
      <point x="363" y="148"/>
      <point x="363" y="170" type="curve" smooth="yes"/>
      <point x="367" y="377" type="line"/>
      <point x="345" y="387"/>
      <point x="304" y="403"/>
      <point x="267" y="403" type="curve" smooth="yes"/>
      <point x="163" y="403"/>
      <point x="144" y="301"/>
    </contour>
  </outline>
</glyph>
<glyph name="g" format="1">
  <advance width="547"/>
  <unicode hex="0067"/>
  <outline>
    <contour>
      <point x="125" y="-154" type="curve" smooth="yes"/>
      <point x="155" y="-161"/>
      <point x="198" y="-168"/>
      <point x="243" y="-168" type="curve" smooth="yes"/>
      <point x="362" y="-168"/>
      <point x="449" y="-104"/>
      <point x="452" y="39" type="curve" smooth="yes"/>
      <point x="462" y="461" type="line" smooth="yes"/>
      <point x="463" y="498"/>
      <point x="441" y="510"/>
      <point x="415" y="510" type="curve" smooth="yes"/>
      <point x="389" y="510"/>
      <point x="374" y="500"/>
      <point x="369" y="482" type="curve"/>
      <point x="346" y="491"/>
      <point x="317" y="500"/>
      <point x="286" y="500" type="curve" smooth="yes"/>
      <point x="151" y="500"/>
      <point x="48" y="374"/>
      <point x="48" y="242" type="curve" smooth="yes"/>
      <point x="48" y="105"/>
      <point x="134" y="9"/>
      <point x="251" y="9" type="curve" smooth="yes"/>
      <point x="290" y="9"/>
      <point x="324" y="24"/>
      <point x="354" y="45" type="curve"/>
      <point x="351" y="-27"/>
      <point x="321" y="-72"/>
      <point x="242" y="-72" type="curve" smooth="yes"/>
      <point x="215" y="-72"/>
      <point x="195" y="-70"/>
      <point x="170" y="-64" type="curve" smooth="yes"/>
      <point x="158" y="-61"/>
      <point x="146" y="-59"/>
      <point x="136" y="-59" type="curve" smooth="yes"/>
      <point x="111" y="-59"/>
      <point x="88" y="-80"/>
      <point x="88" y="-107" type="curve" smooth="yes"/>
      <point x="88" y="-130"/>
      <point x="104" y="-149"/>
    </contour>
    <contour>
      <point x="361" y="265" type="line" smooth="yes"/>
      <point x="361" y="133"/>
      <point x="296" y="103"/>
      <point x="244" y="103" type="curve" smooth="yes"/>
      <point x="168" y="103"/>
      <point x="139" y="182"/>
      <point x="139" y="238" type="curve" smooth="yes"/>
      <point x="139" y="333"/>
      <point x="207" y="404"/>
      <point x="290" y="404" type="curve" smooth="yes"/>
      <point x="314" y="404"/>
      <point x="343" y="396"/>
      <point x="361" y="386" type="curve"/>
    </contour>
  </outline>
</glyph>
<glyph name="i" format="1">
  <advance width="245"/>
  <unicode hex="0069"/>
  <outline>
    <contour>
      <point x="167" y="447" type="line" smooth="yes"/>
      <point x="167" y="474"/>
      <point x="146" y="496"/>
      <point x="118" y="496" type="curve" smooth="yes"/>
      <point x="91" y="496"/>
      <point x="69" y="474"/>
      <point x="69" y="447" type="curve" smooth="yes"/>
      <point x="64" y="49" type="line" smooth="yes"/>
      <point x="64" y="22"/>
      <point x="86" y="0"/>
      <point x="113" y="0" type="curve" smooth="yes"/>
      <point x="140" y="0"/>
      <point x="162" y="22"/>
      <point x="162" y="49" type="curve" smooth="yes"/>
    </contour>
    <contour>
      <point x="118" y="541" type="curve" smooth="yes"/>
      <point x="145" y="541"/>
      <point x="165" y="561"/>
      <point x="166" y="588" type="curve" smooth="yes"/>
      <point x="167" y="626" type="line" smooth="yes"/>
      <point x="168" y="650"/>
      <point x="146" y="674"/>
      <point x="120" y="674" type="curve" smooth="yes"/>
      <point x="95" y="674"/>
      <point x="73" y="653"/>
      <point x="72" y="627" type="curve" smooth="yes"/>
      <point x="71" y="590" type="line" smooth="yes"/>
      <point x="70" y="564"/>
      <point x="92" y="541"/>
    </contour>
  </outline>
</glyph>
<glyph name="j" format="1">
  <advance width="359"/>
  <unicode hex="006A"/>
  <outline>
    <contour>
      <point x="82" y="11" type="curve" smooth="yes"/>
      <point x="76" y="31"/>
      <point x="61" y="45"/>
      <point x="36" y="45" type="curve" smooth="yes"/>
      <point x="7" y="45"/>
      <point x="-13" y="22"/>
      <point x="-13" y="-3" type="curve" smooth="yes"/>
      <point x="-13" y="-9"/>
      <point x="-11" y="-16"/>
      <point x="-10" y="-20" type="curve" smooth="yes"/>
      <point x="-2" y="-43"/>
      <point x="48" y="-164"/>
      <point x="152" y="-164" type="curve" smooth="yes"/>
      <point x="262" y="-164"/>
      <point x="281" y="-45"/>
      <point x="281" y="21" type="curve" smooth="yes"/>
      <point x="281" y="35"/>
      <point x="281" y="164"/>
      <point x="279" y="272" type="curve" smooth="yes"/>
      <point x="278" y="362"/>
      <point x="276" y="445"/>
      <point x="276" y="453" type="curve" smooth="yes"/>
      <point x="276" y="479"/>
      <point x="253" y="501"/>
      <point x="228" y="501" type="curve" smooth="yes"/>
      <point x="199" y="501"/>
      <point x="180" y="480"/>
      <point x="180" y="452" type="curve" smooth="yes"/>
      <point x="180" y="437"/>
      <point x="182" y="328"/>
      <point x="183" y="220" type="curve" smooth="yes"/>
      <point x="184" y="122"/>
      <point x="186" y="28"/>
      <point x="186" y="16" type="curve" smooth="yes"/>
      <point x="186" y="-10"/>
      <point x="184" y="-73"/>
      <point x="150" y="-73" type="curve" smooth="yes"/>
      <point x="120" y="-73"/>
      <point x="94" y="-24"/>
    </contour>
    <contour>
      <point x="284" y="631" type="line" smooth="yes"/>
      <point x="286" y="655"/>
      <point x="268" y="682"/>
      <point x="237" y="682" type="curve" smooth="yes"/>
      <point x="214" y="682"/>
      <point x="192" y="667"/>
      <point x="189" y="642" type="curve" smooth="yes"/>
      <point x="185" y="599" type="line" smooth="yes"/>
      <point x="183" y="574"/>
      <point x="203" y="549"/>
      <point x="231" y="549" type="curve" smooth="yes"/>
      <point x="252" y="549"/>
      <point x="278" y="562"/>
      <point x="280" y="588" type="curve" smooth="yes"/>
    </contour>
  </outline>
</glyph>
<glyph name="k" format="1">
  <advance width="520"/>
  <unicode hex="006B"/>
  <outline>
    <contour>
      <point x="455" y="84" type="curve" smooth="yes"/>
      <point x="420" y="128"/>
      <point x="358" y="206"/>
      <point x="290" y="291" type="curve"/>
      <point x="331" y="329"/>
      <point x="391" y="392"/>
      <point x="428" y="441" type="curve" smooth="yes"/>
      <point x="433" y="447"/>
      <point x="438" y="457"/>
      <point x="438" y="470" type="curve" smooth="yes"/>
      <point x="438" y="496"/>
      <point x="418" y="516"/>
      <point x="391" y="516" type="curve" smooth="yes"/>
      <point x="373" y="516"/>
      <point x="361" y="507"/>
      <point x="352" y="496" type="curve" smooth="yes"/>
      <point x="299" y="432"/>
      <point x="214" y="346"/>
      <point x="159" y="299" type="curve"/>
      <point x="158" y="623" type="line" smooth="yes"/>
      <point x="158" y="649"/>
      <point x="139" y="672"/>
      <point x="110" y="672" type="curve" smooth="yes"/>
      <point x="84" y="672"/>
      <point x="61" y="651"/>
      <point x="61" y="625" type="curve" smooth="yes"/>
      <point x="63" y="48" type="line" smooth="yes"/>
      <point x="63" y="23"/>
      <point x="86" y="0"/>
      <point x="111" y="0" type="curve" smooth="yes"/>
      <point x="139" y="0"/>
      <point x="160" y="23"/>
      <point x="160" y="48" type="curve" smooth="yes"/>
      <point x="160" y="193" type="line"/>
      <point x="174" y="202"/>
      <point x="196" y="216"/>
      <point x="218" y="233" type="curve"/>
      <point x="247" y="197"/>
      <point x="327" y="94"/>
      <point x="382" y="20" type="curve" smooth="yes"/>
      <point x="391" y="9"/>
      <point x="405" y="3"/>
      <point x="420" y="3" type="curve" smooth="yes"/>
      <point x="449" y="3"/>
      <point x="468" y="26"/>
      <point x="468" y="53" type="curve" smooth="yes"/>
      <point x="468" y="67"/>
      <point x="461" y="77"/>
    </contour>
  </outline>
</glyph>
<glyph name="m" format="1">
  <advance width="839"/>
  <unicode hex="006D"/>
  <outline>
    <contour>
      <point x="588" y="510" type="curve" smooth="yes"/>
      <point x="654" y="510"/>
      <point x="734" y="477"/>
      <point x="734" y="320" type="curve" smooth="yes"/>
      <point x="734" y="47" type="line" smooth="yes"/>
      <point x="734" y="21"/>
      <point x="711" y="0"/>
      <point x="686" y="0" type="curve" smooth="yes"/>
      <point x="660" y="0"/>
      <point x="638" y="21"/>
      <point x="638" y="47" type="curve" smooth="yes"/>
      <point x="638" y="326" type="line" smooth="yes"/>
      <point x="638" y="411"/>
      <point x="608" y="420"/>
      <point x="588" y="420" type="curve" smooth="yes"/>
      <point x="545" y="420"/>
      <point x="460" y="358"/>
      <point x="460" y="270" type="curve" smooth="yes"/>
      <point x="460" y="47" type="line" smooth="yes"/>
      <point x="460" y="21"/>
      <point x="439" y="0"/>
      <point x="412" y="0" type="curve" smooth="yes"/>
      <point x="387" y="0"/>
      <point x="364" y="21"/>
      <point x="364" y="47" type="curve" smooth="yes"/>
      <point x="364" y="326" type="line" smooth="yes"/>
      <point x="364" y="411"/>
      <point x="336" y="420"/>
      <point x="315" y="420" type="curve" smooth="yes"/>
      <point x="283" y="420"/>
      <point x="226" y="378"/>
      <point x="171" y="290" type="curve" smooth="yes"/>
      <point x="166" y="282"/>
      <point x="164" y="275"/>
      <point x="164" y="253" type="curve" smooth="yes"/>
      <point x="164" y="47" type="line" smooth="yes"/>
      <point x="164" y="21"/>
      <point x="142" y="0"/>
      <point x="116" y="0" type="curve" smooth="yes"/>
      <point x="91" y="0"/>
      <point x="68" y="21"/>
      <point x="68" y="47" type="curve" smooth="yes"/>
      <point x="68" y="451" type="line" smooth="yes"/>
      <point x="68" y="476"/>
      <point x="91" y="499"/>
      <point x="116" y="499" type="curve" smooth="yes"/>
      <point x="143" y="499"/>
      <point x="164" y="476"/>
      <point x="164" y="451" type="curve" smooth="yes"/>
      <point x="164" y="417" type="line"/>
      <point x="209" y="469"/>
      <point x="261" y="510"/>
      <point x="315" y="510" type="curve" smooth="yes"/>
      <point x="360" y="510"/>
      <point x="411" y="492"/>
      <point x="439" y="432" type="curve"/>
      <point x="485" y="481"/>
      <point x="541" y="510"/>
    </contour>
  </outline>
</glyph>
<glyph name="p" format="1">
  <advance width="546"/>
  <unicode hex="0070"/>
  <outline>
    <contour>
      <point x="307" y="500" type="curve" smooth="yes"/>
      <point x="418" y="500"/>
      <point x="475" y="380"/>
      <point x="475" y="273" type="curve" smooth="yes"/>
      <point x="475" y="160"/>
      <point x="431" y="7"/>
      <point x="253" y="7" type="curve" smooth="yes"/>
      <point x="218" y="7"/>
      <point x="185" y="15"/>
      <point x="158" y="24" type="curve"/>
      <point x="158" y="-129" type="line" smooth="yes"/>
      <point x="158" y="-154"/>
      <point x="135" y="-177"/>
      <point x="110" y="-177" type="curve" smooth="yes"/>
      <point x="84" y="-177"/>
      <point x="62" y="-154"/>
      <point x="62" y="-129" type="curve" smooth="yes"/>
      <point x="62" y="451" type="line" smooth="yes"/>
      <point x="62" y="479"/>
      <point x="83" y="500"/>
      <point x="111" y="500" type="curve" smooth="yes"/>
      <point x="134" y="500"/>
      <point x="152" y="482"/>
      <point x="157" y="460" type="curve"/>
      <point x="194" y="483"/>
      <point x="243" y="500"/>
    </contour>
    <contour>
      <point x="259" y="104" type="curve" smooth="yes"/>
      <point x="352" y="104"/>
      <point x="384" y="177"/>
      <point x="384" y="273" type="curve" smooth="yes"/>
      <point x="384" y="322"/>
      <point x="366" y="410"/>
      <point x="299" y="410" type="curve" smooth="yes"/>
      <point x="221" y="410"/>
      <point x="176" y="368"/>
      <point x="158" y="345" type="curve"/>
      <point x="158" y="128" type="line"/>
      <point x="181" y="119"/>
      <point x="221" y="104"/>
    </contour>
  </outline>
</glyph>
<glyph name="q" format="1">
  <advance width="540"/>
  <unicode hex="0071"/>
  <outline>
    <contour>
      <point x="340" y="-120" type="line" smooth="yes"/>
      <point x="339" y="-146"/>
      <point x="355" y="-172"/>
      <point x="386" y="-172" type="curve" smooth="yes"/>
      <point x="412" y="-172"/>
      <point x="433" y="-157"/>
      <point x="434" y="-124" type="curve" smooth="yes"/>
      <point x="455" y="468" type="line" smooth="yes"/>
      <point x="456" y="500"/>
      <point x="433" y="516"/>
      <point x="409" y="516" type="curve" smooth="yes"/>
      <point x="389" y="516"/>
      <point x="371" y="504"/>
      <point x="364" y="487" type="curve"/>
      <point x="348" y="489"/>
      <point x="331" y="490"/>
      <point x="316" y="490" type="curve" smooth="yes"/>
      <point x="155" y="490"/>
      <point x="47" y="382"/>
      <point x="47" y="214" type="curve" smooth="yes"/>
      <point x="47" y="90"/>
      <point x="133" y="-5"/>
      <point x="261" y="-5" type="curve" smooth="yes"/>
      <point x="299" y="-5"/>
      <point x="325" y="4"/>
      <point x="345" y="17" type="curve"/>
    </contour>
    <contour>
      <point x="252" y="85" type="curve" smooth="yes"/>
      <point x="190" y="85"/>
      <point x="138" y="138"/>
      <point x="138" y="213" type="curve" smooth="yes"/>
      <point x="138" y="332"/>
      <point x="212" y="399"/>
      <point x="316" y="399" type="curve" smooth="yes"/>
      <point x="328" y="399"/>
      <point x="344" y="398"/>
      <point x="359" y="396" type="curve"/>
      <point x="351" y="173" type="line" smooth="yes"/>
      <point x="349" y="116"/>
      <point x="311" y="85"/>
    </contour>
  </outline>
</glyph>
<glyph name="r" format="1">
  <advance width="422"/>
  <unicode hex="0072"/>
  <outline>
    <contour>
      <point x="387" y="406" type="line" smooth="yes"/>
      <point x="387" y="449"/>
      <point x="366" y="501"/>
      <point x="291" y="501" type="curve" smooth="yes"/>
      <point x="232" y="501"/>
      <point x="188" y="472"/>
      <point x="157" y="437" type="curve"/>
      <point x="157" y="451" type="line" smooth="yes"/>
      <point x="157" y="478"/>
      <point x="135" y="499"/>
      <point x="108" y="499" type="curve" smooth="yes"/>
      <point x="82" y="499"/>
      <point x="59" y="478"/>
      <point x="59" y="451" type="curve" smooth="yes"/>
      <point x="59" y="46" type="line" smooth="yes"/>
      <point x="59" y="22"/>
      <point x="83" y="0"/>
      <point x="108" y="0" type="curve" smooth="yes"/>
      <point x="133" y="0"/>
      <point x="156" y="22"/>
      <point x="156" y="46" type="curve" smooth="yes"/>
      <point x="157" y="250" type="line" smooth="yes"/>
      <point x="157" y="281"/>
      <point x="168" y="314"/>
      <point x="183" y="333" type="curve" smooth="yes"/>
      <point x="213" y="373"/>
      <point x="247" y="406"/>
      <point x="279" y="406" type="curve" smooth="yes"/>
      <point x="291" y="406"/>
      <point x="293" y="400"/>
      <point x="293" y="390" type="curve" smooth="yes"/>
      <point x="293" y="377" type="line" smooth="yes"/>
      <point x="293" y="354"/>
      <point x="305" y="329"/>
      <point x="340" y="329" type="curve" smooth="yes"/>
      <point x="367" y="329"/>
      <point x="387" y="350"/>
      <point x="387" y="376" type="curve" smooth="yes"/>
    </contour>
  </outline>
</glyph>
<glyph name="u" format="1">
  <advance width="538"/>
  <unicode hex="0075"/>
  <outline>
    <contour>
      <point x="453" y="454" type="line" smooth="yes"/>
      <point x="453" y="481"/>
      <point x="430" y="500"/>
      <point x="405" y="500" type="curve" smooth="yes"/>
      <point x="381" y="500"/>
      <point x="358" y="481"/>
      <point x="358" y="454" type="curve" smooth="yes"/>
      <point x="356" y="169" type="line" smooth="yes"/>
      <point x="356" y="158"/>
      <point x="354" y="148"/>
      <point x="350" y="144" type="curve" smooth="yes"/>
      <point x="333" y="125"/>
      <point x="276" y="87"/>
      <point x="222" y="87" type="curve" smooth="yes"/>
      <point x="186" y="87"/>
      <point x="156" y="114"/>
      <point x="156" y="288" type="curve" smooth="yes"/>
      <point x="156" y="351"/>
      <point x="163" y="401"/>
      <point x="166" y="431" type="curve" smooth="yes"/>
      <point x="167" y="439"/>
      <point x="168" y="445"/>
      <point x="168" y="453" type="curve" smooth="yes"/>
      <point x="168" y="485"/>
      <point x="145" y="500"/>
      <point x="120" y="500" type="curve" smooth="yes"/>
      <point x="95" y="500"/>
      <point x="79" y="492"/>
      <point x="73" y="449" type="curve" smooth="yes"/>
      <point x="68" y="414"/>
      <point x="61" y="360"/>
      <point x="62" y="287" type="curve" smooth="yes"/>
      <point x="64" y="22"/>
      <point x="123" y="-3"/>
      <point x="222" y="-3" type="curve" smooth="yes"/>
      <point x="273" y="-3"/>
      <point x="320" y="16"/>
      <point x="354" y="40" type="curve"/>
      <point x="359" y="17"/>
      <point x="378" y="0"/>
      <point x="405" y="0" type="curve" smooth="yes"/>
      <point x="431" y="0"/>
      <point x="453" y="23"/>
      <point x="453" y="48" type="curve" smooth="yes"/>
    </contour>
  </outline>
</glyph>
<glyph name="v" format="1">
  <advance width="462"/>
  <unicode hex="0076"/>
  <outline>
    <contour>
      <point x="428" y="432" type="curve" smooth="yes"/>
      <point x="266" y="29" type="line" smooth="yes"/>
      <point x="258" y="10"/>
      <point x="246" y="-1"/>
      <point x="221" y="-1" type="curve" smooth="yes"/>
      <point x="197" y="-1"/>
      <point x="186" y="11"/>
      <point x="177" y="32" type="curve" smooth="yes"/>
      <point x="12" y="434" type="line" smooth="yes"/>
      <point x="10" y="440"/>
      <point x="9" y="446"/>
      <point x="9" y="454" type="curve" smooth="yes"/>
      <point x="9" y="478"/>
      <point x="31" y="499"/>
      <point x="58" y="499" type="curve" smooth="yes"/>
      <point x="81" y="499"/>
      <point x="95" y="487"/>
      <point x="103" y="467" type="curve" smooth="yes"/>
      <point x="221" y="169" type="line"/>
      <point x="340" y="470" type="line" smooth="yes"/>
      <point x="347" y="488"/>
      <point x="364" y="500"/>
      <point x="385" y="500" type="curve" smooth="yes"/>
      <point x="414" y="500"/>
      <point x="433" y="477"/>
      <point x="433" y="453" type="curve" smooth="yes"/>
      <point x="433" y="446"/>
      <point x="431" y="440"/>
    </contour>
  </outline>
</glyph>
<glyph name="x" format="1">
  <advance width="536"/>
  <unicode hex="0078"/>
  <outline>
    <contour>
      <point x="487" y="417" type="curve" smooth="yes"/>
      <point x="327" y="253" type="line"/>
      <point x="473" y="78" type="line" smooth="yes"/>
      <point x="480" y="69"/>
      <point x="483" y="59"/>
      <point x="483" y="48" type="curve" smooth="yes"/>
      <point x="483" y="21"/>
      <point x="461" y="0"/>
      <point x="435" y="0" type="curve" smooth="yes"/>
      <point x="423" y="0"/>
      <point x="409" y="5"/>
      <point x="400" y="15" type="curve" smooth="yes"/>
      <point x="258" y="189" type="line"/>
      <point x="94" y="15" type="line" smooth="yes"/>
      <point x="83" y="3"/>
      <point x="71" y="1"/>
      <point x="59" y="1" type="curve" smooth="yes"/>
      <point x="33" y="1"/>
      <point x="12" y="24"/>
      <point x="12" y="49" type="curve" smooth="yes"/>
      <point x="12" y="61"/>
      <point x="14" y="72"/>
      <point x="26" y="84" type="curve" smooth="yes"/>
      <point x="196" y="259" type="line"/>
      <point x="62" y="419" type="line" smooth="yes"/>
      <point x="54" y="428"/>
      <point x="49" y="440"/>
      <point x="49" y="451" type="curve" smooth="yes"/>
      <point x="49" y="477"/>
      <point x="70" y="500"/>
      <point x="96" y="500" type="curve" smooth="yes"/>
      <point x="108" y="500"/>
      <point x="121" y="497"/>
      <point x="132" y="484" type="curve" smooth="yes"/>
      <point x="264" y="322" type="line"/>
      <point x="418" y="483" type="line" smooth="yes"/>
      <point x="429" y="494"/>
      <point x="441" y="498"/>
      <point x="453" y="498" type="curve" smooth="yes"/>
      <point x="478" y="498"/>
      <point x="501" y="475"/>
      <point x="501" y="450" type="curve" smooth="yes"/>
      <point x="501" y="437"/>
      <point x="495" y="425"/>
    </contour>
  </outline>
</glyph>
<glyph name="y" format="1">
  <advance width="515"/>
  <unicode hex="0079"/>
  <outline>
    <contour>
      <point x="469" y="432" type="line" smooth="yes"/>
      <point x="472" y="439"/>
      <point x="473" y="446"/>
      <point x="473" y="452" type="curve" smooth="yes"/>
      <point x="473" y="480"/>
      <point x="450" y="501"/>
      <point x="425" y="501" type="curve" smooth="yes"/>
      <point x="404" y="501"/>
      <point x="387" y="487"/>
      <point x="379" y="470" type="curve" smooth="yes"/>
      <point x="251" y="191" type="line"/>
      <point x="112" y="470" type="line" smooth="yes"/>
      <point x="104" y="485"/>
      <point x="89" y="500"/>
      <point x="68" y="500" type="curve" smooth="yes"/>
      <point x="41" y="500"/>
      <point x="20" y="478"/>
      <point x="20" y="451" type="curve" smooth="yes"/>
      <point x="20" y="442"/>
      <point x="23" y="433"/>
      <point x="26" y="427" type="curve" smooth="yes"/>
      <point x="199" y="78" type="line"/>
      <point x="114" y="-109" type="line" smooth="yes"/>
      <point x="111" y="-116"/>
      <point x="109" y="-124"/>
      <point x="109" y="-130" type="curve" smooth="yes"/>
      <point x="109" y="-157"/>
      <point x="131" y="-179"/>
      <point x="157" y="-179" type="curve" smooth="yes"/>
      <point x="178" y="-179"/>
      <point x="194" y="-165"/>
      <point x="202" y="-148" type="curve" smooth="yes"/>
    </contour>
  </outline>
</glyph>
<glyph name="z" format="1">
  <advance width="515"/>
  <unicode hex="007A"/>
  <outline>
    <contour>
      <point x="47" y="77" type="line" smooth="yes"/>
      <point x="39" y="67"/>
      <point x="37" y="56"/>
      <point x="37" y="48" type="curve" smooth="yes"/>
      <point x="37" y="23"/>
      <point x="53" y="0"/>
      <point x="85" y="0" type="curve" smooth="yes"/>
      <point x="406" y="0" type="line" smooth="yes"/>
      <point x="432" y="0"/>
      <point x="454" y="23"/>
      <point x="454" y="48" type="curve" smooth="yes"/>
      <point x="454" y="74"/>
      <point x="432" y="96"/>
      <point x="406" y="96" type="curve" smooth="yes"/>
      <point x="180" y="96" type="line"/>
      <point x="440" y="423" type="line" smooth="yes"/>
      <point x="448" y="433"/>
      <point x="450" y="441"/>
      <point x="450" y="452" type="curve" smooth="yes"/>
      <point x="450" y="478"/>
      <point x="432" y="501"/>
      <point x="402" y="501" type="curve" smooth="yes"/>
      <point x="95" y="501" type="line" smooth="yes"/>
      <point x="68" y="501"/>
      <point x="47" y="478"/>
      <point x="47" y="452" type="curve" smooth="yes"/>
      <point x="47" y="425"/>
      <point x="68" y="404"/>
      <point x="95" y="404" type="curve" smooth="yes"/>
      <point x="307" y="404" type="line"/>
    </contour>
  </outline>
</glyph>
<glyph name="braceleft" format="1">
  <advance width="402"/>
  <unicode hex="007B"/>
  <outline>
    <contour>
      <point x="77" y="383" type="curve"/>
      <point x="116" y="403"/>
      <point x="125" y="423"/>
      <point x="125" y="452" type="curve" smooth="yes"/>
      <point x="125" y="624" type="line" smooth="yes"/>
      <point x="125" y="726"/>
      <point x="210" y="769"/>
      <point x="275" y="779" type="curve"/>
      <point x="278.347" y="779.609"/>
      <point x="281.581" y="779.898"/>
      <point x="284.69" y="779.898" type="curve" smooth="yes"/>
      <point x="312.236" y="779.898"/>
      <point x="330" y="757.16"/>
      <point x="330" y="732" type="curve" smooth="yes"/>
      <point x="330" y="707"/>
      <point x="316" y="691"/>
      <point x="288" y="685" type="curve" smooth="yes"/>
      <point x="263" y="680"/>
      <point x="219" y="665"/>
      <point x="219" y="624" type="curve" smooth="yes"/>
      <point x="219" y="453" type="line" smooth="yes"/>
      <point x="219" y="406"/>
      <point x="203" y="368"/>
      <point x="177" y="340" type="curve"/>
      <point x="200" y="312"/>
      <point x="219" y="273"/>
      <point x="219" y="228" type="curve" smooth="yes"/>
      <point x="219" y="43" type="line" smooth="yes"/>
      <point x="219" y="2"/>
      <point x="263" y="-14"/>
      <point x="289" y="-18" type="curve"/>
      <point x="313" y="-23"/>
      <point x="330" y="-42"/>
      <point x="330" y="-65" type="curve" smooth="yes"/>
      <point x="330" y="-94.8171"/>
      <point x="310.004" y="-113.098"/>
      <point x="281.478" y="-113.098" type="curve" smooth="yes"/>
      <point x="277.476" y="-113.098"/>
      <point x="273.306" y="-112.738"/>
      <point x="269" y="-112" type="curve"/>
      <point x="206" y="-99"/>
      <point x="125" y="-59"/>
      <point x="125" y="43" type="curve" smooth="yes"/>
      <point x="125" y="229" type="line" smooth="yes"/>
      <point x="125" y="264"/>
      <point x="104" y="287"/>
      <point x="79" y="297" type="curve" smooth="yes"/>
      <point x="56" y="305"/>
      <point x="48" y="320"/>
      <point x="48" y="339" type="curve" smooth="yes"/>
      <point x="48" y="364"/>
      <point x="55" y="373"/>
    </contour>
  </outline>
</glyph>
<glyph name="cent" format="1">
  <advance width="582"/>
  <unicode hex="00A2"/>
  <outline>
    <contour>
      <point x="439" y="262" type="curve" smooth="yes"/>
      <point x="415" y="262"/>
      <point x="405" y="245"/>
      <point x="399" y="238" type="curve" smooth="yes"/>
      <point x="379" y="213"/>
      <point x="354" y="193"/>
      <point x="321" y="186" type="curve"/>
      <point x="330" y="491" type="line"/>
      <point x="347" y="484"/>
      <point x="362" y="472"/>
      <point x="375" y="455" type="curve" smooth="yes"/>
      <point x="384" y="443"/>
      <point x="396" y="439"/>
      <point x="413" y="439" type="curve" smooth="yes"/>
      <point x="439" y="439"/>
      <point x="460" y="460"/>
      <point x="460" y="486" type="curve" smooth="yes"/>
      <point x="460" y="521"/>
      <point x="388" y="573"/>
      <point x="332" y="587" type="curve"/>
      <point x="334" y="627" type="line" smooth="yes"/>
      <point x="335" y="650"/>
      <point x="314" y="673"/>
      <point x="288" y="673" type="curve" smooth="yes"/>
      <point x="265" y="673"/>
      <point x="244" y="653"/>
      <point x="243" y="628" type="curve" smooth="yes"/>
      <point x="241" y="579" type="line"/>
      <point x="134" y="534"/>
      <point x="70" y="413"/>
      <point x="70" y="308" type="curve" smooth="yes"/>
      <point x="70" y="244"/>
      <point x="98" y="139"/>
      <point x="228" y="99" type="curve"/>
      <point x="226" y="46" type="line" smooth="yes"/>
      <point x="225" y="22"/>
      <point x="246" y="0"/>
      <point x="272" y="0" type="curve" smooth="yes"/>
      <point x="297" y="0"/>
      <point x="316" y="20"/>
      <point x="317" y="45" type="curve" smooth="yes"/>
      <point x="319" y="91" type="line"/>
      <point x="387" y="96"/>
      <point x="439" y="135"/>
      <point x="475" y="184" type="curve" smooth="yes"/>
      <point x="482" y="193"/>
      <point x="486" y="202"/>
      <point x="486" y="213" type="curve" smooth="yes"/>
      <point x="486" y="239"/>
      <point x="465" y="262"/>
    </contour>
    <contour>
      <point x="164" y="310" type="curve" smooth="yes"/>
      <point x="164" y="347"/>
      <point x="179" y="430"/>
      <point x="238" y="477" type="curve"/>
      <point x="230" y="195" type="line"/>
      <point x="191" y="219"/>
      <point x="164" y="264"/>
    </contour>
  </outline>
</glyph>
<glyph name="copyright" format="1">
  <advance width="570"/>
  <unicode hex="00A9"/>
  <outline>
    <contour>
      <point x="393" y="369" type="curve" smooth="yes"/>
      <point x="370" y="336"/>
      <point x="336" y="317"/>
      <point x="276" y="317" type="curve" smooth="yes"/>
      <point x="205" y="317"/>
      <point x="146" y="375"/>
      <point x="146" y="445" type="curve" smooth="yes"/>
      <point x="146" y="529"/>
      <point x="202" y="583"/>
      <point x="285" y="583" type="curve" smooth="yes"/>
      <point x="320" y="583"/>
      <point x="351" y="568"/>
      <point x="370" y="552" type="curve" smooth="yes"/>
      <point x="381" y="543"/>
      <point x="387" y="533"/>
      <point x="387" y="518" type="curve" smooth="yes"/>
      <point x="387" y="493"/>
      <point x="368" y="481"/>
      <point x="344" y="481" type="curve" smooth="yes"/>
      <point x="332" y="481"/>
      <point x="324" y="487"/>
      <point x="315" y="493" type="curve" smooth="yes"/>
      <point x="307" y="498"/>
      <point x="298" y="503"/>
      <point x="285" y="503" type="curve" smooth="yes"/>
      <point x="240" y="503"/>
      <point x="231" y="470"/>
      <point x="231" y="450" type="curve" smooth="yes"/>
      <point x="231" y="425"/>
      <point x="249" y="399"/>
      <point x="281" y="399" type="curve" smooth="yes"/>
      <point x="298" y="399"/>
      <point x="311" y="406"/>
      <point x="324" y="419" type="curve" smooth="yes"/>
      <point x="333" y="428"/>
      <point x="342" y="436"/>
      <point x="358" y="436" type="curve" smooth="yes"/>
      <point x="382" y="436"/>
      <point x="401" y="420"/>
      <point x="401" y="395" type="curve" smooth="yes"/>
      <point x="401" y="387"/>
      <point x="400" y="378"/>
    </contour>
    <contour>
      <point x="277" y="177" type="curve" smooth="yes"/>
      <point x="132" y="177"/>
      <point x="12" y="298"/>
      <point x="12" y="447" type="curve" smooth="yes"/>
      <point x="12" y="596"/>
      <point x="132" y="718"/>
      <point x="277" y="718" type="curve" smooth="yes"/>
      <point x="423" y="718"/>
      <point x="542" y="596"/>
      <point x="542" y="447" type="curve" smooth="yes"/>
      <point x="542" y="298"/>
      <point x="423" y="177"/>
    </contour>
    <contour>
      <point x="277" y="648" type="curve" smooth="yes"/>
      <point x="170" y="648"/>
      <point x="82" y="558"/>
      <point x="82" y="447" type="curve" smooth="yes"/>
      <point x="82" y="336"/>
      <point x="170" y="247"/>
      <point x="277" y="247" type="curve" smooth="yes"/>
      <point x="385" y="247"/>
      <point x="472" y="336"/>
      <point x="472" y="447" type="curve" smooth="yes"/>
      <point x="472" y="558"/>
      <point x="385" y="648"/>
    </contour>
  </outline>
</glyph>
<glyph name="logicalnot" format="1">
  <advance width="506"/>
  <unicode hex="00AC"/>
  <outline>
    <contour>
      <point x="381" y="114" type="curve" smooth="yes"/>
      <point x="357" y="114"/>
      <point x="335" y="134"/>
      <point x="335" y="159" type="curve" smooth="yes"/>
      <point x="336" y="253" type="line"/>
      <point x="83" y="253" type="line" smooth="yes"/>
      <point x="57" y="253"/>
      <point x="37" y="273"/>
      <point x="37" y="298" type="curve" smooth="yes"/>
      <point x="37" y="322"/>
      <point x="57" y="344"/>
      <point x="83" y="344" type="curve" smooth="yes"/>
      <point x="381" y="344" type="line" smooth="yes"/>
      <point x="404" y="344"/>
      <point x="428" y="326"/>
      <point x="428" y="298" type="curve" smooth="yes"/>
      <point x="427" y="159" type="line" smooth="yes"/>
      <point x="427" y="134"/>
      <point x="407" y="114"/>
    </contour>
  </outline>
</glyph>
<glyph name="uni00AD" format="1">
  <advance width="467"/>
  <unicode hex="00AD"/>
  <outline>
    <contour>
      <point x="337" y="203" type="curve" smooth="yes"/>
      <point x="112" y="203" type="line" smooth="yes"/>
      <point x="88" y="203"/>
      <point x="65" y="225"/>
      <point x="65" y="250" type="curve" smooth="yes"/>
      <point x="65" y="276"/>
      <point x="88" y="297"/>
      <point x="112" y="297" type="curve" smooth="yes"/>
      <point x="337" y="297" type="line" smooth="yes"/>
      <point x="363" y="297"/>
      <point x="384" y="276"/>
      <point x="384" y="250" type="curve" smooth="yes"/>
      <point x="384" y="225"/>
      <point x="363" y="203"/>
    </contour>
  </outline>
</glyph>
<glyph name="macron" format="1">
  <advance width="526"/>
  <unicode hex="00AF"/>
  <outline>
    <contour>
      <point x="346" y="545" type="curve" smooth="yes"/>
      <point x="156" y="545" type="line" smooth="yes"/>
      <point x="131" y="545"/>
      <point x="111" y="567"/>
      <point x="111" y="591" type="curve" smooth="yes"/>
      <point x="111" y="617"/>
      <point x="131" y="637"/>
      <point x="156" y="637" type="curve" smooth="yes"/>
      <point x="346" y="637" type="line" smooth="yes"/>
      <point x="371" y="637"/>
      <point x="391" y="617"/>
      <point x="391" y="591" type="curve" smooth="yes"/>
      <point x="391" y="567"/>
      <point x="371" y="545"/>
    </contour>
  </outline>
</glyph>
<glyph name="degree" format="1">
  <advance width="269"/>
  <unicode hex="00B0"/>
  <outline>
    <contour>
      <point x="129" y="422" type="curve" smooth="yes"/>
      <point x="203" y="422"/>
      <point x="262" y="481"/>
      <point x="262" y="555" type="curve" smooth="yes"/>
      <point x="262" y="629"/>
      <point x="203" y="689"/>
      <point x="129" y="689" type="curve" smooth="yes"/>
      <point x="56" y="689"/>
      <point x="-4" y="629"/>
      <point x="-4" y="555" type="curve" smooth="yes"/>
      <point x="-4" y="481"/>
      <point x="56" y="422"/>
    </contour>
    <contour>
      <point x="129" y="601" type="curve" smooth="yes"/>
      <point x="155" y="601"/>
      <point x="176" y="580"/>
      <point x="176" y="555" type="curve" smooth="yes"/>
      <point x="176" y="530"/>
      <point x="155" y="509"/>
      <point x="129" y="509" type="curve" smooth="yes"/>
      <point x="104" y="509"/>
      <point x="82" y="530"/>
      <point x="82" y="555" type="curve" smooth="yes"/>
      <point x="82" y="580"/>
      <point x="104" y="601"/>
    </contour>
  </outline>
</glyph>
<glyph name="threesuperior" format="1">
  <advance width="262"/>
  <unicode hex="00B3"/>
  <outline>
    <contour>
      <point x="2" y="468" type="curve" smooth="yes"/>
      <point x="19" y="441"/>
      <point x="57" y="400"/>
      <point x="124" y="400" type="curve" smooth="yes"/>
      <point x="193" y="400"/>
      <point x="256" y="452"/>
      <point x="256" y="531" type="curve" smooth="yes"/>
      <point x="256" y="569"/>
      <point x="236" y="600"/>
      <point x="209" y="613" type="curve"/>
      <point x="230" y="627"/>
      <point x="247" y="658"/>
      <point x="247" y="695" type="curve" smooth="yes"/>
      <point x="247" y="761"/>
      <point x="185" y="799"/>
      <point x="123" y="799" type="curve" smooth="yes"/>
      <point x="61" y="799"/>
      <point x="10" y="762"/>
      <point x="10" y="731" type="curve" smooth="yes"/>
      <point x="10" y="703"/>
      <point x="29" y="688"/>
      <point x="50" y="688" type="curve" smooth="yes"/>
      <point x="62" y="688"/>
      <point x="74" y="692"/>
      <point x="83" y="699" type="curve" smooth="yes"/>
      <point x="91" y="705"/>
      <point x="103" y="711"/>
      <point x="123" y="711" type="curve" smooth="yes"/>
      <point x="146" y="711"/>
      <point x="160" y="703"/>
      <point x="160" y="685" type="curve" smooth="yes"/>
      <point x="160" y="667"/>
      <point x="143" y="654"/>
      <point x="112" y="651" type="curve" smooth="yes"/>
      <point x="87" y="649"/>
      <point x="71" y="638"/>
      <point x="71" y="609" type="curve" smooth="yes"/>
      <point x="71" y="582"/>
      <point x="87" y="569"/>
      <point x="112" y="567" type="curve" smooth="yes"/>
      <point x="153" y="563"/>
      <point x="167" y="549"/>
      <point x="167" y="526" type="curve" smooth="yes"/>
      <point x="167" y="494"/>
      <point x="140" y="487"/>
      <point x="124" y="487" type="curve" smooth="yes"/>
      <point x="106" y="487"/>
      <point x="87" y="496"/>
      <point x="78" y="511" type="curve" smooth="yes"/>
      <point x="70" y="524"/>
      <point x="59" y="536"/>
      <point x="38" y="536" type="curve" smooth="yes"/>
      <point x="13" y="536"/>
      <point x="-4" y="516"/>
      <point x="-4" y="491" type="curve" smooth="yes"/>
      <point x="-4" y="486"/>
      <point x="-3" y="476"/>
    </contour>
  </outline>
</glyph>
<glyph name="acute" format="1">
  <advance width="526"/>
  <unicode hex="00B4"/>
  <outline>
    <contour>
      <point x="165" y="592" type="curve" smooth="yes"/>
      <point x="280" y="685" type="line" smooth="yes"/>
      <point x="290" y="693"/>
      <point x="304" y="704"/>
      <point x="321" y="704" type="curve" smooth="yes"/>
      <point x="351" y="704"/>
      <point x="374" y="680"/>
      <point x="374" y="649" type="curve" smooth="yes"/>
      <point x="374" y="634"/>
      <point x="369" y="619"/>
      <point x="355" y="609" type="curve" smooth="yes"/>
      <point x="231" y="524" type="line" smooth="yes"/>
      <point x="221" y="517"/>
      <point x="209" y="511"/>
      <point x="198" y="511" type="curve" smooth="yes"/>
      <point x="174" y="511"/>
      <point x="152" y="532"/>
      <point x="152" y="559" type="curve" smooth="yes"/>
      <point x="152" y="570"/>
      <point x="154" y="583"/>
    </contour>
  </outline>
</glyph>
<glyph name="mu" format="1">
  <advance width="526"/>
  <unicode hex="00B5"/>
  <outline>
    <contour>
      <point x="78" y="22" type="curve" smooth="yes"/>
      <point x="72" y="89"/>
      <point x="68" y="147"/>
      <point x="64" y="252" type="curve" smooth="yes"/>
      <point x="63.5871" y="262.047"/>
      <point x="63.4015" y="272.397"/>
      <point x="63.4015" y="282.867" type="curve" smooth="yes"/>
      <point x="63.4015" y="348.475"/>
      <point x="70.6881" y="418.817"/>
      <point x="75" y="449" type="curve" smooth="yes"/>
      <point x="81" y="492"/>
      <point x="98" y="500"/>
      <point x="123" y="500" type="curve" smooth="yes"/>
      <point x="155" y="500"/>
      <point x="170" y="481"/>
      <point x="170" y="453" type="curve" smooth="yes"/>
      <point x="170" y="445"/>
      <point x="169" y="439"/>
      <point x="168" y="431" type="curve" smooth="yes"/>
      <point x="165" y="401"/>
      <point x="158" y="351"/>
      <point x="158" y="288" type="curve" smooth="yes"/>
      <point x="158" y="136"/>
      <point x="170" y="87"/>
      <point x="224" y="87" type="curve" smooth="yes"/>
      <point x="278" y="87"/>
      <point x="335" y="123"/>
      <point x="352" y="144" type="curve" smooth="yes"/>
      <point x="356" y="149"/>
      <point x="358" y="156"/>
      <point x="358" y="169" type="curve" smooth="yes"/>
      <point x="363" y="454" type="line" smooth="yes"/>
      <point x="363" y="481"/>
      <point x="385" y="500"/>
      <point x="409" y="500" type="curve" smooth="yes"/>
      <point x="434" y="500"/>
      <point x="456" y="481"/>
      <point x="456" y="454" type="curve" smooth="yes"/>
      <point x="456" y="48" type="line" smooth="yes"/>
      <point x="456" y="23"/>
      <point x="433" y="0"/>
      <point x="407" y="0" type="curve" smooth="yes"/>
      <point x="380" y="0"/>
      <point x="361" y="17"/>
      <point x="356" y="40" type="curve"/>
      <point x="322" y="16"/>
      <point x="275" y="-3"/>
      <point x="224" y="-3" type="curve" smooth="yes"/>
      <point x="203" y="-3"/>
      <point x="173" y="4"/>
      <point x="173" y="4" type="curve"/>
      <point x="177" y="-33"/>
      <point x="182" y="-76"/>
      <point x="188" y="-109" type="curve" smooth="yes"/>
      <point x="188.623" y="-112.24"/>
      <point x="188.936" y="-115.526"/>
      <point x="188.936" y="-118.798" type="curve" smooth="yes"/>
      <point x="188.936" y="-141.777"/>
      <point x="173.514" y="-164"/>
      <point x="142" y="-164" type="curve" smooth="yes"/>
      <point x="120" y="-164"/>
      <point x="99" y="-148"/>
      <point x="95" y="-125" type="curve" smooth="yes"/>
      <point x="90" y="-95"/>
      <point x="85" y="-53"/>
    </contour>
  </outline>
</glyph>
<glyph name="paragraph" format="1">
  <advance width="585"/>
  <unicode hex="00B6"/>
  <outline>
    <contour>
      <point x="496" y="673" type="curve" smooth="yes"/>
      <point x="494" y="699"/>
      <point x="479" y="719"/>
      <point x="452" y="719" type="curve" smooth="yes"/>
      <point x="425" y="719"/>
      <point x="410" y="694"/>
      <point x="410" y="669" type="curve" smooth="yes"/>
      <point x="410" y="645"/>
      <point x="411" y="622"/>
      <point x="411" y="599" type="curve" smooth="yes"/>
      <point x="411" y="362"/>
      <point x="381" y="162"/>
      <point x="350" y="-16" type="curve" smooth="yes"/>
      <point x="345" y="-47"/>
      <point x="347" y="-72"/>
      <point x="386" y="-72" type="curve" smooth="yes"/>
      <point x="414" y="-72"/>
      <point x="428" y="-56"/>
      <point x="433" y="-35" type="curve" smooth="yes"/>
      <point x="476" y="163"/>
      <point x="497" y="375"/>
      <point x="497" y="599" type="curve" smooth="yes"/>
      <point x="497" y="622"/>
      <point x="497" y="649"/>
    </contour>
    <contour>
      <point x="379" y="715" type="curve" smooth="yes"/>
      <point x="379" y="749"/>
      <point x="356" y="765"/>
      <point x="327" y="759" type="curve" smooth="yes"/>
      <point x="174" y="730"/>
      <point x="36" y="646"/>
      <point x="36" y="501" type="curve" smooth="yes"/>
      <point x="36" y="372"/>
      <point x="136" y="319"/>
      <point x="245" y="317" type="curve"/>
      <point x="237" y="230"/>
      <point x="210" y="48"/>
      <point x="197" y="-13" type="curve" smooth="yes"/>
      <point x="190" y="-46"/>
      <point x="197" y="-73"/>
      <point x="235" y="-73" type="curve" smooth="yes"/>
      <point x="261" y="-73"/>
      <point x="276" y="-57"/>
      <point x="281" y="-35" type="curve" smooth="yes"/>
      <point x="318" y="149"/>
      <point x="344" y="368"/>
      <point x="344" y="589" type="curve" smooth="yes"/>
      <point x="344" y="665" type="line"/>
      <point x="363" y="670"/>
      <point x="379" y="683"/>
    </contour>
  </outline>
</glyph>
<glyph name="onesuperior" format="1">
  <advance width="192"/>
  <unicode hex="00B9"/>
  <outline>
    <contour>
      <point x="147" y="403" type="line" smooth="yes"/>
      <point x="168" y="403"/>
      <point x="190" y="419"/>
      <point x="190" y="447" type="curve" smooth="yes"/>
      <point x="190" y="470"/>
      <point x="174" y="491"/>
      <point x="152" y="491" type="curve" smooth="yes"/>
      <point x="140" y="491" type="line"/>
      <point x="145" y="754" type="line"/>
      <point x="145" y="785"/>
      <point x="125" y="799"/>
      <point x="100" y="799" type="curve" smooth="yes"/>
      <point x="89" y="799"/>
      <point x="78" y="794"/>
      <point x="69" y="784" type="curve" smooth="yes"/>
      <point x="5" y="715" type="line" smooth="yes"/>
      <point x="-4" y="706"/>
      <point x="-6" y="696"/>
      <point x="-6" y="685" type="curve" smooth="yes"/>
      <point x="-6" y="660"/>
      <point x="18" y="642"/>
      <point x="37" y="642" type="curve" smooth="yes"/>
      <point x="44" y="642"/>
      <point x="50" y="643"/>
      <point x="56" y="645" type="curve"/>
      <point x="53" y="491" type="line"/>
      <point x="40" y="491" type="line" smooth="yes"/>
      <point x="17" y="491"/>
      <point x="-4" y="473"/>
      <point x="-4" y="447" type="curve" smooth="yes"/>
      <point x="-4" y="424"/>
      <point x="10" y="403"/>
      <point x="40" y="403" type="curve" smooth="yes"/>
    </contour>
  </outline>
</glyph>
<glyph name="ordmasculine" format="1">
  <advance width="303"/>
  <unicode hex="00BA"/>
  <outline>
    <contour>
      <point x="137" y="315" type="curve" smooth="yes"/>
      <point x="243" y="315"/>
      <point x="294" y="422"/>
      <point x="294" y="491" type="curve" smooth="yes"/>
      <point x="294" y="585"/>
      <point x="228" y="648"/>
      <point x="154" y="648" type="curve" smooth="yes"/>
      <point x="56" y="648"/>
      <point x="-3" y="553"/>
      <point x="-3" y="469" type="curve" smooth="yes"/>
      <point x="-3" y="382"/>
      <point x="62" y="315"/>
    </contour>
    <contour>
      <point x="151" y="561" type="curve" smooth="yes"/>
      <point x="180" y="561"/>
      <point x="202" y="526"/>
      <point x="202" y="491" type="curve" smooth="yes"/>
      <point x="202" y="439"/>
      <point x="168" y="402"/>
      <point x="137" y="402" type="curve" smooth="yes"/>
      <point x="108" y="402"/>
      <point x="88" y="433"/>
      <point x="88" y="471" type="curve" smooth="yes"/>
      <point x="88" y="521"/>
      <point x="119" y="561"/>
    </contour>
  </outline>
</glyph>
<glyph name="guillemotright" format="1">
  <advance width="617"/>
  <unicode hex="00BB"/>
  <outline>
    <contour>
      <point x="516" y="213" type="curve" smooth="yes"/>
      <point x="368" y="81" type="line" smooth="yes"/>
      <point x="357" y="72"/>
      <point x="347" y="69"/>
      <point x="335" y="69" type="curve" smooth="yes"/>
      <point x="310" y="69"/>
      <point x="287" y="90"/>
      <point x="287" y="116" type="curve" smooth="yes"/>
      <point x="287" y="129"/>
      <point x="292" y="143"/>
      <point x="303" y="153" type="curve" smooth="yes"/>
      <point x="411" y="249" type="line"/>
      <point x="289" y="354" type="line" smooth="yes"/>
      <point x="275" y="366"/>
      <point x="273" y="376"/>
      <point x="273" y="391" type="curve" smooth="yes"/>
      <point x="273" y="418"/>
      <point x="297" y="439"/>
      <point x="321" y="439" type="curve" smooth="yes"/>
      <point x="332" y="439"/>
      <point x="341" y="436"/>
      <point x="352" y="427" type="curve" smooth="yes"/>
      <point x="515" y="286" type="line" smooth="yes"/>
      <point x="526" y="277"/>
      <point x="532" y="262"/>
      <point x="532" y="250" type="curve" smooth="yes"/>
      <point x="532" y="237"/>
      <point x="527" y="223"/>
    </contour>
    <contour>
      <point x="286" y="213" type="curve" smooth="yes"/>
      <point x="138" y="81" type="line" smooth="yes"/>
      <point x="127" y="72"/>
      <point x="117" y="69"/>
      <point x="105" y="69" type="curve" smooth="yes"/>
      <point x="80" y="69"/>
      <point x="57" y="90"/>
      <point x="57" y="116" type="curve" smooth="yes"/>
      <point x="57" y="129"/>
      <point x="62" y="143"/>
      <point x="73" y="153" type="curve" smooth="yes"/>
      <point x="181" y="249" type="line"/>
      <point x="59" y="354" type="line" smooth="yes"/>
      <point x="45" y="366"/>
      <point x="43" y="376"/>
      <point x="43" y="391" type="curve" smooth="yes"/>
      <point x="43" y="418"/>
      <point x="67" y="439"/>
      <point x="91" y="439" type="curve" smooth="yes"/>
      <point x="102" y="439"/>
      <point x="111" y="436"/>
      <point x="122" y="427" type="curve" smooth="yes"/>
      <point x="285" y="286" type="line" smooth="yes"/>
      <point x="296" y="277"/>
      <point x="302" y="262"/>
      <point x="302" y="250" type="curve" smooth="yes"/>
      <point x="302" y="237"/>
      <point x="297" y="223"/>
    </contour>
  </outline>
</glyph>
<glyph name="questiondown" format="1">
  <advance width="559"/>
  <unicode hex="00BF"/>
  <outline>
    <contour>
      <point x="350" y="259" type="curve" smooth="yes"/>
      <point x="361" y="268"/>
      <point x="367" y="282"/>
      <point x="367" y="295" type="curve" smooth="yes"/>
      <point x="367" y="321"/>
      <point x="346" y="342"/>
      <point x="320" y="342" type="curve" smooth="yes"/>
      <point x="308" y="342"/>
      <point x="296" y="340"/>
      <point x="178" y="236" type="curve" smooth="yes"/>
      <point x="122" y="186"/>
      <point x="57" y="127"/>
      <point x="57" y="35" type="curve" smooth="yes"/>
      <point x="57" y="-91"/>
      <point x="142" y="-170"/>
      <point x="275" y="-170" type="curve" smooth="yes"/>
      <point x="351" y="-170"/>
      <point x="414" y="-129"/>
      <point x="446" y="-95" type="curve" smooth="yes"/>
      <point x="458" y="-81"/>
      <point x="471" y="-65"/>
      <point x="471" y="-49" type="curve" smooth="yes"/>
      <point x="471" y="-20"/>
      <point x="448" y="-1"/>
      <point x="423" y="-1" type="curve" smooth="yes"/>
      <point x="411" y="-1"/>
      <point x="399" y="-5"/>
      <point x="391" y="-14" type="curve" smooth="yes"/>
      <point x="366" y="-42"/>
      <point x="332" y="-76"/>
      <point x="280" y="-76" type="curve" smooth="yes"/>
      <point x="184" y="-76"/>
      <point x="150" y="-16"/>
      <point x="150" y="28" type="curve" smooth="yes"/>
      <point x="150" y="103"/>
      <point x="219" y="153"/>
      <point x="299" y="219" type="curve" smooth="yes"/>
      <point x="318" y="235"/>
      <point x="337" y="248"/>
    </contour>
    <contour>
      <point x="351" y="501" type="curve" smooth="yes"/>
      <point x="320" y="501"/>
      <point x="292" y="472"/>
      <point x="292" y="436" type="curve" smooth="yes"/>
      <point x="292" y="405"/>
      <point x="314" y="380"/>
      <point x="344" y="380" type="curve" smooth="yes"/>
      <point x="374" y="380"/>
      <point x="403" y="411"/>
      <point x="403" y="444" type="curve" smooth="yes"/>
      <point x="403" y="476"/>
      <point x="382" y="501"/>
    </contour>
  </outline>
</glyph>
<glyph name="Agrave" format="1">
  <advance width="650"/>
  <unicode hex="00C0"/>
  <outline>
    <contour>
      <point x="375" y="655" type="line" smooth="yes"/>
      <point x="367" y="679"/>
      <point x="349" y="688"/>
      <point x="329" y="688" type="curve" smooth="yes"/>
      <point x="309" y="688"/>
      <point x="290" y="677"/>
      <point x="282" y="657" type="curve" smooth="yes"/>
      <point x="134" y="281" type="line"/>
      <point x="97" y="273" type="line" smooth="yes"/>
      <point x="75" y="268"/>
      <point x="59" y="249"/>
      <point x="59" y="225" type="curve" smooth="yes"/>
      <point x="59" y="201"/>
      <point x="73" y="184"/>
      <point x="94" y="177" type="curve"/>
      <point x="50" y="67" type="line" smooth="yes"/>
      <point x="48" y="62"/>
      <point x="47" y="56"/>
      <point x="47" y="49" type="curve" smooth="yes"/>
      <point x="47" y="25"/>
      <point x="67" y="0"/>
      <point x="97" y="0" type="curve" smooth="yes"/>
      <point x="121" y="0"/>
      <point x="136" y="15"/>
      <point x="143" y="32" type="curve" smooth="yes"/>
      <point x="208" y="196" type="line"/>
      <point x="412" y="241" type="line"/>
      <point x="484" y="33" type="line" smooth="yes"/>
      <point x="493" y="8"/>
      <point x="507" y="-1"/>
      <point x="531" y="-1" type="curve" smooth="yes"/>
      <point x="561" y="-1"/>
      <point x="581" y="22"/>
      <point x="581" y="48" type="curve" smooth="yes"/>
      <point x="581" y="53"/>
      <point x="580" y="61"/>
      <point x="578" y="67" type="curve" smooth="yes"/>
    </contour>
    <contour>
      <point x="250" y="306" type="line"/>
      <point x="325" y="495" type="line"/>
      <point x="379" y="334" type="line"/>
    </contour>
    <contour>
      <point x="345" y="713" type="line" smooth="yes"/>
      <point x="353" y="704"/>
      <point x="364" y="698"/>
      <point x="379" y="698" type="curve" smooth="yes"/>
      <point x="403" y="698"/>
      <point x="427" y="718"/>
      <point x="427" y="745" type="curve" smooth="yes"/>
      <point x="427" y="755"/>
      <point x="424" y="763"/>
      <point x="415" y="775" type="curve" smooth="yes"/>
      <point x="320" y="894" type="line" smooth="yes"/>
      <point x="310" y="906"/>
      <point x="294" y="916"/>
      <point x="276" y="916" type="curve" smooth="yes"/>
      <point x="248" y="916"/>
      <point x="222" y="890"/>
      <point x="222" y="862" type="curve" smooth="yes"/>
      <point x="222" y="846"/>
      <point x="228" y="834"/>
      <point x="238" y="824" type="curve" smooth="yes"/>
    </contour>
  </outline>
</glyph>
<glyph name="Atilde" format="1">
  <advance width="650"/>
  <unicode hex="00C3"/>
  <outline>
    <contour>
      <point x="459" y="871" type="curve" smooth="yes"/>
      <point x="445" y="817"/>
      <point x="419" y="793"/>
      <point x="398" y="793" type="curve" smooth="yes"/>
      <point x="383" y="793"/>
      <point x="372" y="807"/>
      <point x="356" y="829" type="curve" smooth="yes"/>
      <point x="334" y="860"/>
      <point x="308" y="877"/>
      <point x="269" y="877" type="curve" smooth="yes"/>
      <point x="191" y="877"/>
      <point x="152" y="810"/>
      <point x="135" y="753" type="curve" smooth="yes"/>
      <point x="132" y="742"/>
      <point x="132" y="735"/>
      <point x="132" y="731" type="curve" smooth="yes"/>
      <point x="132" y="708"/>
      <point x="152" y="698"/>
      <point x="171" y="698" type="curve" smooth="yes"/>
      <point x="186" y="698"/>
      <point x="195" y="705"/>
      <point x="200" y="720" type="curve" smooth="yes"/>
      <point x="205" y="736"/>
      <point x="222" y="788"/>
      <point x="257" y="788" type="curve" smooth="yes"/>
      <point x="272" y="788"/>
      <point x="283" y="776"/>
      <point x="299" y="753" type="curve" smooth="yes"/>
      <point x="321" y="722"/>
      <point x="348" y="705"/>
      <point x="380" y="705" type="curve" smooth="yes"/>
      <point x="481" y="705"/>
      <point x="516" y="807"/>
      <point x="526" y="838" type="curve" smooth="yes"/>
      <point x="529" y="849"/>
      <point x="529" y="856"/>
      <point x="529" y="860" type="curve" smooth="yes"/>
      <point x="529" y="883"/>
      <point x="509" y="893"/>
      <point x="490" y="893" type="curve" smooth="yes"/>
      <point x="475" y="893"/>
      <point x="463" y="886"/>
    </contour>
    <contour>
      <point x="375" y="655" type="line" smooth="yes"/>
      <point x="367" y="679"/>
      <point x="349" y="688"/>
      <point x="329" y="688" type="curve" smooth="yes"/>
      <point x="309" y="688"/>
      <point x="290" y="677"/>
      <point x="282" y="657" type="curve" smooth="yes"/>
      <point x="134" y="281" type="line"/>
      <point x="97" y="273" type="line" smooth="yes"/>
      <point x="75" y="268"/>
      <point x="59" y="249"/>
      <point x="59" y="225" type="curve" smooth="yes"/>
      <point x="59" y="201"/>
      <point x="73" y="184"/>
      <point x="94" y="177" type="curve"/>
      <point x="50" y="67" type="line" smooth="yes"/>
      <point x="48" y="62"/>
      <point x="47" y="56"/>
      <point x="47" y="49" type="curve" smooth="yes"/>
      <point x="47" y="25"/>
      <point x="67" y="0"/>
      <point x="97" y="0" type="curve" smooth="yes"/>
      <point x="121" y="0"/>
      <point x="136" y="15"/>
      <point x="143" y="32" type="curve" smooth="yes"/>
      <point x="208" y="196" type="line"/>
      <point x="412" y="241" type="line"/>
      <point x="484" y="33" type="line" smooth="yes"/>
      <point x="493" y="8"/>
      <point x="507" y="-1"/>
      <point x="531" y="-1" type="curve" smooth="yes"/>
      <point x="561" y="-1"/>
      <point x="581" y="22"/>
      <point x="581" y="48" type="curve" smooth="yes"/>
      <point x="581" y="53"/>
      <point x="580" y="61"/>
      <point x="578" y="67" type="curve" smooth="yes"/>
    </contour>
    <contour>
      <point x="250" y="306" type="line"/>
      <point x="325" y="495" type="line"/>
      <point x="379" y="334" type="line"/>
    </contour>
  </outline>
</glyph>
<glyph name="AE" format="1">
  <advance width="1066"/>
  <unicode hex="00C6"/>
  <outline>
    <contour>
      <point x="246" y="331" type="line"/>
      <point x="189" y="319" type="line" smooth="yes"/>
      <point x="165" y="314"/>
      <point x="149" y="295"/>
      <point x="149" y="272" type="curve" smooth="yes"/>
      <point x="149" y="254"/>
      <point x="159" y="238"/>
      <point x="173" y="229" type="curve"/>
      <point x="63" y="73" type="line" smooth="yes"/>
      <point x="55" y="62"/>
      <point x="54" y="55"/>
      <point x="54" y="45" type="curve" smooth="yes"/>
      <point x="54" y="20"/>
      <point x="77" y="-3"/>
      <point x="102" y="-3" type="curve" smooth="yes"/>
      <point x="116" y="-3"/>
      <point x="131" y="3"/>
      <point x="141" y="17" type="curve" smooth="yes"/>
      <point x="301" y="243" type="line"/>
      <point x="470" y="279" type="line"/>
      <point x="470" y="48" type="line" smooth="yes"/>
      <point x="470" y="21"/>
      <point x="492" y="0"/>
      <point x="519" y="0" type="curve" smooth="yes"/>
      <point x="918" y="0" type="line" smooth="yes"/>
      <point x="947" y="0"/>
      <point x="967" y="21"/>
      <point x="967" y="48" type="curve" smooth="yes"/>
      <point x="967" y="77"/>
      <point x="947" y="97"/>
      <point x="918" y="97" type="curve" smooth="yes"/>
      <point x="567" y="97" type="line"/>
      <point x="567" y="289" type="line"/>
      <point x="872" y="288" type="line" smooth="yes"/>
      <point x="899" y="288"/>
      <point x="920" y="309"/>
      <point x="920" y="337" type="curve" smooth="yes"/>
      <point x="920" y="362"/>
      <point x="899" y="386"/>
      <point x="872" y="386" type="curve" smooth="yes"/>
      <point x="567" y="386" type="line"/>
      <point x="567" y="584" type="line"/>
      <point x="918" y="584" type="line" smooth="yes"/>
      <point x="947" y="584"/>
      <point x="967" y="607"/>
      <point x="967" y="632" type="curve" smooth="yes"/>
      <point x="967" y="661"/>
      <point x="947" y="681"/>
      <point x="918" y="681" type="curve" smooth="yes"/>
      <point x="516" y="681" type="line" smooth="yes"/>
      <point x="497" y="681"/>
      <point x="486" y="668"/>
      <point x="480" y="660" type="curve" smooth="yes"/>
    </contour>
    <contour>
      <point x="384" y="359" type="line"/>
      <point x="470" y="481" type="line"/>
      <point x="470" y="376" type="line"/>
    </contour>
  </outline>
</glyph>
<glyph name="Ecircumflex" format="1">
  <advance width="636"/>
  <unicode hex="00CA"/>
  <outline>
    <contour>
      <point x="160" y="100" type="line"/>
      <point x="508" y="100" type="line" smooth="yes"/>
      <point x="536" y="100"/>
      <point x="557" y="78"/>
      <point x="557" y="50" type="curve" smooth="yes"/>
      <point x="557" y="22"/>
      <point x="536" y="0"/>
      <point x="508" y="0" type="curve" smooth="yes"/>
      <point x="111" y="0" type="line" smooth="yes"/>
      <point x="83" y="0"/>
      <point x="61" y="22"/>
      <point x="61" y="50" type="curve" smooth="yes"/>
      <point x="61" y="632" type="line" smooth="yes"/>
      <point x="61" y="660"/>
      <point x="83" y="682"/>
      <point x="111" y="682" type="curve" smooth="yes"/>
      <point x="510" y="682" type="line" smooth="yes"/>
      <point x="538" y="682"/>
      <point x="559" y="660"/>
      <point x="559" y="632" type="curve" smooth="yes"/>
      <point x="559" y="605"/>
      <point x="538" y="582"/>
      <point x="510" y="582" type="curve" smooth="yes"/>
      <point x="160" y="582" type="line"/>
      <point x="160" y="401" type="line"/>
      <point x="464" y="401" type="line" smooth="yes"/>
      <point x="492" y="401"/>
      <point x="513" y="380"/>
      <point x="513" y="352" type="curve" smooth="yes"/>
      <point x="513" y="324"/>
      <point x="492" y="302"/>
      <point x="464" y="302" type="curve" smooth="yes"/>
      <point x="160" y="302" type="line"/>
    </contour>
    <contour>
      <point x="181" y="786" type="curve" smooth="yes"/>
      <point x="300" y="886" type="line" smooth="yes"/>
      <point x="311" y="895"/>
      <point x="323" y="898"/>
      <point x="332" y="898" type="curve" smooth="yes"/>
      <point x="344" y="898"/>
      <point x="358" y="892"/>
      <point x="370" y="880" type="curve" smooth="yes"/>
      <point x="466" y="784" type="line" smooth="yes"/>
      <point x="476" y="774"/>
      <point x="480" y="763"/>
      <point x="480" y="750" type="curve" smooth="yes"/>
      <point x="480" y="725"/>
      <point x="459" y="703"/>
      <point x="434" y="703" type="curve" smooth="yes"/>
      <point x="422" y="703"/>
      <point x="412" y="705"/>
      <point x="401" y="715" type="curve" smooth="yes"/>
      <point x="328" y="781" type="line"/>
      <point x="239" y="712" type="line" smooth="yes"/>
      <point x="228" y="704"/>
      <point x="220" y="703"/>
      <point x="210" y="703" type="curve" smooth="yes"/>
      <point x="185" y="703"/>
      <point x="163" y="723"/>
      <point x="163" y="750" type="curve" smooth="yes"/>
      <point x="163" y="763"/>
      <point x="169" y="776"/>
    </contour>
  </outline>
</glyph>
<glyph name="Igrave" format="1">
  <advance width="459"/>
  <unicode hex="00CC"/>
  <outline>
    <contour>
      <point x="273" y="99" type="line"/>
      <point x="273" y="581" type="line"/>
      <point x="342" y="581" type="line" smooth="yes"/>
      <point x="370" y="581"/>
      <point x="391" y="604"/>
      <point x="391" y="632" type="curve" smooth="yes"/>
      <point x="391" y="660"/>
      <point x="370" y="681"/>
      <point x="342" y="681" type="curve" smooth="yes"/>
      <point x="103" y="681" type="line" smooth="yes"/>
      <point x="75" y="681"/>
      <point x="53" y="660"/>
      <point x="53" y="632" type="curve" smooth="yes"/>
      <point x="53" y="604"/>
      <point x="75" y="581"/>
      <point x="103" y="581" type="curve" smooth="yes"/>
      <point x="173" y="581" type="line"/>
      <point x="173" y="99" type="line"/>
      <point x="103" y="99" type="line" smooth="yes"/>
      <point x="75" y="99"/>
      <point x="53" y="77"/>
      <point x="53" y="49" type="curve" smooth="yes"/>
      <point x="53" y="21"/>
      <point x="75" y="-1"/>
      <point x="103" y="-1" type="curve" smooth="yes"/>
      <point x="342" y="-1" type="line" smooth="yes"/>
      <point x="370" y="-1"/>
      <point x="391" y="21"/>
      <point x="391" y="49" type="curve" smooth="yes"/>
      <point x="391" y="77"/>
      <point x="372" y="99"/>
      <point x="342" y="99" type="curve" smooth="yes"/>
    </contour>
    <contour>
      <point x="237" y="713" type="line" smooth="yes"/>
      <point x="245" y="704"/>
      <point x="256" y="698"/>
      <point x="271" y="698" type="curve" smooth="yes"/>
      <point x="295" y="698"/>
      <point x="319" y="718"/>
      <point x="319" y="745" type="curve" smooth="yes"/>
      <point x="319" y="755"/>
      <point x="316" y="763"/>
      <point x="307" y="775" type="curve" smooth="yes"/>
      <point x="212" y="894" type="line" smooth="yes"/>
      <point x="202" y="906"/>
      <point x="186" y="916"/>
      <point x="168" y="916" type="curve" smooth="yes"/>
      <point x="140" y="916"/>
      <point x="114" y="890"/>
      <point x="114" y="862" type="curve" smooth="yes"/>
      <point x="114" y="846"/>
      <point x="120" y="834"/>
      <point x="130" y="824" type="curve" smooth="yes"/>
    </contour>
  </outline>
</glyph>
<glyph name="Icircumflex" format="1">
  <advance width="459"/>
  <unicode hex="00CE"/>
  <outline>
    <contour>
      <point x="273" y="99" type="line"/>
      <point x="273" y="581" type="line"/>
      <point x="342" y="581" type="line" smooth="yes"/>
      <point x="370" y="581"/>
      <point x="391" y="604"/>
      <point x="391" y="632" type="curve" smooth="yes"/>
      <point x="391" y="660"/>
      <point x="370" y="681"/>
      <point x="342" y="681" type="curve" smooth="yes"/>
      <point x="103" y="681" type="line" smooth="yes"/>
      <point x="75" y="681"/>
      <point x="53" y="660"/>
      <point x="53" y="632" type="curve" smooth="yes"/>
      <point x="53" y="604"/>
      <point x="75" y="581"/>
      <point x="103" y="581" type="curve" smooth="yes"/>
      <point x="173" y="581" type="line"/>
      <point x="173" y="99" type="line"/>
      <point x="103" y="99" type="line" smooth="yes"/>
      <point x="75" y="99"/>
      <point x="53" y="77"/>
      <point x="53" y="49" type="curve" smooth="yes"/>
      <point x="53" y="21"/>
      <point x="75" y="-1"/>
      <point x="103" y="-1" type="curve" smooth="yes"/>
      <point x="342" y="-1" type="line" smooth="yes"/>
      <point x="370" y="-1"/>
      <point x="391" y="21"/>
      <point x="391" y="49" type="curve" smooth="yes"/>
      <point x="391" y="77"/>
      <point x="372" y="99"/>
      <point x="342" y="99" type="curve" smooth="yes"/>
    </contour>
    <contour>
      <point x="86" y="786" type="line" smooth="yes"/>
      <point x="74" y="776"/>
      <point x="68" y="763"/>
      <point x="68" y="750" type="curve" smooth="yes"/>
      <point x="68" y="723"/>
      <point x="90" y="703"/>
      <point x="115" y="703" type="curve" smooth="yes"/>
      <point x="125" y="703"/>
      <point x="133" y="704"/>
      <point x="144" y="712" type="curve" smooth="yes"/>
      <point x="233" y="781" type="line"/>
      <point x="306" y="715" type="line" smooth="yes"/>
      <point x="317" y="705"/>
      <point x="327" y="703"/>
      <point x="339" y="703" type="curve" smooth="yes"/>
      <point x="364" y="703"/>
      <point x="385" y="725"/>
      <point x="385" y="750" type="curve" smooth="yes"/>
      <point x="385" y="763"/>
      <point x="381" y="774"/>
      <point x="371" y="784" type="curve" smooth="yes"/>
      <point x="275" y="880" type="line" smooth="yes"/>
      <point x="263" y="892"/>
      <point x="249" y="898"/>
      <point x="237" y="898" type="curve" smooth="yes"/>
      <point x="228" y="898"/>
      <point x="216" y="895"/>
      <point x="205" y="886" type="curve" smooth="yes"/>
    </contour>
  </outline>
</glyph>
<glyph name="Otilde" format="1">
  <advance width="686"/>
  <unicode hex="00D5"/>
  <outline>
    <contour>
      <point x="312" y="-2" type="curve" smooth="yes"/>
      <point x="470" y="-2"/>
      <point x="606" y="166"/>
      <point x="606" y="365" type="curve" smooth="yes"/>
      <point x="606" y="538"/>
      <point x="498" y="682"/>
      <point x="351" y="682" type="curve" smooth="yes"/>
      <point x="194" y="682"/>
      <point x="57" y="514"/>
      <point x="57" y="315" type="curve" smooth="yes"/>
      <point x="57" y="144"/>
      <point x="163" y="-2"/>
    </contour>
    <contour>
      <point x="345" y="587" type="curve" smooth="yes"/>
      <point x="442" y="587"/>
      <point x="511" y="475"/>
      <point x="511" y="361" type="curve" smooth="yes"/>
      <point x="511" y="216"/>
      <point x="415" y="93"/>
      <point x="312" y="93" type="curve" smooth="yes"/>
      <point x="220" y="93"/>
      <point x="153" y="194"/>
      <point x="153" y="315" type="curve" smooth="yes"/>
      <point x="153" y="466"/>
      <point x="242" y="587"/>
    </contour>
    <contour>
      <point x="494" y="871" type="curve" smooth="yes"/>
      <point x="480" y="817"/>
      <point x="454" y="793"/>
      <point x="433" y="793" type="curve" smooth="yes"/>
      <point x="418" y="793"/>
      <point x="407" y="807"/>
      <point x="391" y="829" type="curve" smooth="yes"/>
      <point x="369" y="860"/>
      <point x="343" y="877"/>
      <point x="304" y="877" type="curve" smooth="yes"/>
      <point x="226" y="877"/>
      <point x="187" y="810"/>
      <point x="170" y="753" type="curve" smooth="yes"/>
      <point x="167" y="742"/>
      <point x="167" y="735"/>
      <point x="167" y="731" type="curve" smooth="yes"/>
      <point x="167" y="708"/>
      <point x="187" y="698"/>
      <point x="206" y="698" type="curve" smooth="yes"/>
      <point x="221" y="698"/>
      <point x="230" y="705"/>
      <point x="235" y="720" type="curve" smooth="yes"/>
      <point x="240" y="736"/>
      <point x="257" y="788"/>
      <point x="292" y="788" type="curve" smooth="yes"/>
      <point x="307" y="788"/>
      <point x="318" y="776"/>
      <point x="334" y="753" type="curve" smooth="yes"/>
      <point x="356" y="722"/>
      <point x="383" y="705"/>
      <point x="415" y="705" type="curve" smooth="yes"/>
      <point x="516" y="705"/>
      <point x="551" y="807"/>
      <point x="561" y="838" type="curve" smooth="yes"/>
      <point x="564" y="849"/>
      <point x="564" y="856"/>
      <point x="564" y="860" type="curve" smooth="yes"/>
      <point x="564" y="883"/>
      <point x="544" y="893"/>
      <point x="525" y="893" type="curve" smooth="yes"/>
      <point x="510" y="893"/>
      <point x="498" y="886"/>
    </contour>
  </outline>
</glyph>
<glyph name="Odieresis" format="1">
  <advance width="686"/>
  <unicode hex="00D6"/>
  <outline>
    <contour>
      <point x="336" y="767" type="curve" smooth="yes"/>
      <point x="336" y="801"/>
      <point x="304" y="827"/>
      <point x="271" y="827" type="curve" smooth="yes"/>
      <point x="232" y="827"/>
      <point x="200" y="796"/>
      <point x="200" y="762" type="curve" smooth="yes"/>
      <point x="200" y="727"/>
      <point x="229" y="703"/>
      <point x="265" y="703" type="curve" smooth="yes"/>
      <point x="305" y="703"/>
      <point x="336" y="732"/>
    </contour>
    <contour>
      <point x="524" y="767" type="curve" smooth="yes"/>
      <point x="524" y="801"/>
      <point x="492" y="827"/>
      <point x="459" y="827" type="curve" smooth="yes"/>
      <point x="420" y="827"/>
      <point x="388" y="796"/>
      <point x="388" y="762" type="curve" smooth="yes"/>
      <point x="388" y="727"/>
      <point x="417" y="703"/>
      <point x="453" y="703" type="curve" smooth="yes"/>
      <point x="493" y="703"/>
      <point x="524" y="732"/>
    </contour>
    <contour>
      <point x="312" y="-2" type="curve" smooth="yes"/>
      <point x="470" y="-2"/>
      <point x="606" y="166"/>
      <point x="606" y="365" type="curve" smooth="yes"/>
      <point x="606" y="538"/>
      <point x="498" y="682"/>
      <point x="351" y="682" type="curve" smooth="yes"/>
      <point x="194" y="682"/>
      <point x="57" y="514"/>
      <point x="57" y="315" type="curve" smooth="yes"/>
      <point x="57" y="144"/>
      <point x="163" y="-2"/>
    </contour>
    <contour>
      <point x="345" y="587" type="curve" smooth="yes"/>
      <point x="442" y="587"/>
      <point x="511" y="475"/>
      <point x="511" y="361" type="curve" smooth="yes"/>
      <point x="511" y="216"/>
      <point x="415" y="93"/>
      <point x="312" y="93" type="curve" smooth="yes"/>
      <point x="220" y="93"/>
      <point x="153" y="194"/>
      <point x="153" y="315" type="curve" smooth="yes"/>
      <point x="153" y="466"/>
      <point x="242" y="587"/>
    </contour>
  </outline>
</glyph>
<glyph name="multiply" format="1">
  <advance width="467"/>
  <unicode hex="00D7"/>
  <outline>
    <contour>
      <point x="168" y="123" type="curve" smooth="yes"/>
      <point x="186" y="141"/>
      <point x="205" y="159"/>
      <point x="223" y="177" type="curve"/>
      <point x="277" y="124" type="line" smooth="yes"/>
      <point x="286" y="116"/>
      <point x="297" y="110"/>
      <point x="310" y="110" type="curve" smooth="yes"/>
      <point x="335" y="110"/>
      <point x="356" y="129"/>
      <point x="356" y="157" type="curve" smooth="yes"/>
      <point x="356" y="171"/>
      <point x="351" y="182"/>
      <point x="343" y="190" type="curve" smooth="yes"/>
      <point x="290" y="243" type="line"/>
      <point x="344" y="297" type="line" smooth="yes"/>
      <point x="351" y="304"/>
      <point x="356" y="316"/>
      <point x="356" y="328" type="curve" smooth="yes"/>
      <point x="356" y="354"/>
      <point x="341" y="376"/>
      <point x="308" y="376" type="curve" smooth="yes"/>
      <point x="297" y="376"/>
      <point x="285" y="371"/>
      <point x="277" y="363" type="curve" smooth="yes"/>
      <point x="224" y="310" type="line"/>
      <point x="177" y="356" type="line" smooth="yes"/>
      <point x="168" y="364"/>
      <point x="158" y="370"/>
      <point x="143" y="370" type="curve" smooth="yes"/>
      <point x="118" y="370"/>
      <point x="97" y="346"/>
      <point x="97" y="323" type="curve" smooth="yes"/>
      <point x="97" y="309"/>
      <point x="102" y="298"/>
      <point x="110" y="290" type="curve" smooth="yes"/>
      <point x="158" y="243" type="line"/>
      <point x="103" y="189" type="line" smooth="yes"/>
      <point x="95" y="181"/>
      <point x="89" y="168"/>
      <point x="89" y="155" type="curve" smooth="yes"/>
      <point x="89" y="134"/>
      <point x="108" y="109"/>
      <point x="136" y="109" type="curve" smooth="yes"/>
      <point x="150" y="109"/>
      <point x="159" y="114"/>
    </contour>
  </outline>
</glyph>
<glyph name="Oslash" format="1">
  <advance width="686"/>
  <unicode hex="00D8"/>
  <outline>
    <contour>
      <point x="436" y="664" type="line"/>
      <point x="408" y="676"/>
      <point x="383" y="682"/>
      <point x="351" y="682" type="curve" smooth="yes"/>
      <point x="194" y="682"/>
      <point x="57" y="514"/>
      <point x="57" y="315" type="curve" smooth="yes"/>
      <point x="57" y="232"/>
      <point x="80" y="156"/>
      <point x="122" y="100" type="curve"/>
      <point x="90" y="40" type="line" smooth="yes"/>
      <point x="86" y="33"/>
      <point x="84" y="24"/>
      <point x="84" y="18" type="curve" smooth="yes"/>
      <point x="84" y="-9"/>
      <point x="100" y="-30"/>
      <point x="132" y="-30" type="curve" smooth="yes"/>
      <point x="150" y="-30"/>
      <point x="164" y="-21"/>
      <point x="173" y="-6" type="curve" smooth="yes"/>
      <point x="194" y="33" type="line"/>
      <point x="228" y="11"/>
      <point x="269" y="-2"/>
      <point x="312" y="-2" type="curve" smooth="yes"/>
      <point x="470" y="-2"/>
      <point x="606" y="166"/>
      <point x="606" y="365" type="curve" smooth="yes"/>
      <point x="606" y="464"/>
      <point x="572" y="551"/>
      <point x="515" y="610" type="curve"/>
      <point x="548" y="668" type="line" smooth="yes"/>
      <point x="553" y="677"/>
      <point x="553" y="686"/>
      <point x="553" y="692" type="curve" smooth="yes"/>
      <point x="553" y="721"/>
      <point x="528" y="739"/>
      <point x="506" y="739" type="curve" smooth="yes"/>
      <point x="488" y="739"/>
      <point x="474" y="732"/>
      <point x="464" y="714" type="curve" smooth="yes"/>
    </contour>
    <contour>
      <point x="312" y="93" type="curve" smooth="yes"/>
      <point x="285" y="93"/>
      <point x="263" y="100"/>
      <point x="241" y="115" type="curve"/>
      <point x="464" y="517" type="line"/>
      <point x="495" y="474"/>
      <point x="511" y="419"/>
      <point x="511" y="361" type="curve" smooth="yes"/>
      <point x="511" y="216"/>
      <point x="415" y="93"/>
    </contour>
    <contour>
      <point x="345" y="587" type="curve" smooth="yes"/>
      <point x="359" y="587"/>
      <point x="376" y="584"/>
      <point x="389" y="578" type="curve"/>
      <point x="315" y="444"/>
      <point x="250" y="329"/>
      <point x="176" y="197" type="curve"/>
      <point x="158" y="234"/>
      <point x="153" y="268"/>
      <point x="153" y="315" type="curve" smooth="yes"/>
      <point x="153" y="466"/>
      <point x="242" y="587"/>
    </contour>
  </outline>
</glyph>
<glyph name="Ugrave" format="1">
  <advance width="709"/>
  <unicode hex="00D9"/>
  <outline>
    <contour>
      <point x="345" y="713" type="line" smooth="yes"/>
      <point x="353" y="704"/>
      <point x="364" y="698"/>
      <point x="379" y="698" type="curve" smooth="yes"/>
      <point x="403" y="698"/>
      <point x="427" y="718"/>
      <point x="427" y="745" type="curve" smooth="yes"/>
      <point x="427" y="755"/>
      <point x="424" y="763"/>
      <point x="415" y="775" type="curve" smooth="yes"/>
      <point x="320" y="894" type="line" smooth="yes"/>
      <point x="310" y="906"/>
      <point x="294" y="916"/>
      <point x="276" y="916" type="curve" smooth="yes"/>
      <point x="248" y="916"/>
      <point x="222" y="890"/>
      <point x="222" y="862" type="curve" smooth="yes"/>
      <point x="222" y="846"/>
      <point x="228" y="834"/>
      <point x="238" y="824" type="curve" smooth="yes"/>
    </contour>
    <contour>
      <point x="622" y="633" type="curve" smooth="yes"/>
      <point x="622" y="648"/>
      <point x="616" y="681"/>
      <point x="573" y="681" type="curve" smooth="yes"/>
      <point x="530" y="681"/>
      <point x="523" y="647"/>
      <point x="523" y="631" type="curve" smooth="yes"/>
      <point x="523" y="498"/>
      <point x="528" y="397"/>
      <point x="515" y="277" type="curve" smooth="yes"/>
      <point x="499" y="139"/>
      <point x="419" y="92"/>
      <point x="336" y="92" type="curve" smooth="yes"/>
      <point x="205" y="92"/>
      <point x="168" y="236"/>
      <point x="163" y="381" type="curve" smooth="yes"/>
      <point x="160" y="474"/>
      <point x="161" y="544"/>
      <point x="163" y="633" type="curve" smooth="yes"/>
      <point x="163" y="649"/>
      <point x="155" y="681"/>
      <point x="115" y="681" type="curve" smooth="yes"/>
      <point x="74" y="681"/>
      <point x="63" y="650"/>
      <point x="63" y="634" type="curve" smooth="yes"/>
      <point x="62" y="549"/>
      <point x="60" y="474"/>
      <point x="63" y="367" type="curve" smooth="yes"/>
      <point x="70" y="151"/>
      <point x="165" y="0"/>
      <point x="334" y="0" type="curve" smooth="yes"/>
      <point x="511" y="0"/>
      <point x="593" y="110"/>
      <point x="614" y="270" type="curve" smooth="yes"/>
      <point x="631" y="400"/>
      <point x="626" y="507"/>
    </contour>
  </outline>
</glyph>
<glyph name="Ucircumflex" format="1">
  <advance width="709"/>
  <unicode hex="00DB"/>
  <outline>
    <contour>
      <point x="622" y="633" type="curve" smooth="yes"/>
      <point x="622" y="648"/>
      <point x="616" y="681"/>
      <point x="573" y="681" type="curve" smooth="yes"/>
      <point x="530" y="681"/>
      <point x="523" y="647"/>
      <point x="523" y="631" type="curve" smooth="yes"/>
      <point x="523" y="498"/>
      <point x="528" y="397"/>
      <point x="515" y="277" type="curve" smooth="yes"/>
      <point x="499" y="139"/>
      <point x="419" y="92"/>
      <point x="336" y="92" type="curve" smooth="yes"/>
      <point x="205" y="92"/>
      <point x="168" y="236"/>
      <point x="163" y="381" type="curve" smooth="yes"/>
      <point x="160" y="474"/>
      <point x="161" y="544"/>
      <point x="163" y="633" type="curve" smooth="yes"/>
      <point x="163" y="649"/>
      <point x="155" y="681"/>
      <point x="115" y="681" type="curve" smooth="yes"/>
      <point x="74" y="681"/>
      <point x="63" y="650"/>
      <point x="63" y="634" type="curve" smooth="yes"/>
      <point x="62" y="549"/>
      <point x="60" y="474"/>
      <point x="63" y="367" type="curve" smooth="yes"/>
      <point x="70" y="151"/>
      <point x="165" y="0"/>
      <point x="334" y="0" type="curve" smooth="yes"/>
      <point x="511" y="0"/>
      <point x="593" y="110"/>
      <point x="614" y="270" type="curve" smooth="yes"/>
      <point x="631" y="400"/>
      <point x="626" y="507"/>
    </contour>
    <contour>
      <point x="211" y="786" type="line" smooth="yes"/>
      <point x="199" y="776"/>
      <point x="193" y="763"/>
      <point x="193" y="750" type="curve" smooth="yes"/>
      <point x="193" y="723"/>
      <point x="215" y="703"/>
      <point x="240" y="703" type="curve" smooth="yes"/>
      <point x="250" y="703"/>
      <point x="258" y="704"/>
      <point x="269" y="712" type="curve" smooth="yes"/>
      <point x="358" y="781" type="line"/>
      <point x="431" y="715" type="line" smooth="yes"/>
      <point x="442" y="705"/>
      <point x="452" y="703"/>
      <point x="464" y="703" type="curve" smooth="yes"/>
      <point x="489" y="703"/>
      <point x="510" y="725"/>
      <point x="510" y="750" type="curve" smooth="yes"/>
      <point x="510" y="763"/>
      <point x="506" y="774"/>
      <point x="496" y="784" type="curve" smooth="yes"/>
      <point x="400" y="880" type="line" smooth="yes"/>
      <point x="388" y="892"/>
      <point x="374" y="898"/>
      <point x="362" y="898" type="curve" smooth="yes"/>
      <point x="353" y="898"/>
      <point x="341" y="895"/>
      <point x="330" y="886" type="curve" smooth="yes"/>
    </contour>
  </outline>
</glyph>
<glyph name="Udieresis" format="1">
  <advance width="709"/>
  <unicode hex="00DC"/>
  <outline>
    <contour>
      <point x="319" y="767" type="curve" smooth="yes"/>
      <point x="319" y="801"/>
      <point x="287" y="827"/>
      <point x="253" y="827" type="curve" smooth="yes"/>
      <point x="214" y="827"/>
      <point x="183" y="796"/>
      <point x="183" y="762" type="curve" smooth="yes"/>
      <point x="183" y="727"/>
      <point x="212" y="703"/>
      <point x="248" y="703" type="curve" smooth="yes"/>
      <point x="288" y="703"/>
      <point x="319" y="732"/>
    </contour>
    <contour>
      <point x="507" y="767" type="curve" smooth="yes"/>
      <point x="507" y="801"/>
      <point x="475" y="827"/>
      <point x="442" y="827" type="curve" smooth="yes"/>
      <point x="402" y="827"/>
      <point x="371" y="796"/>
      <point x="371" y="762" type="curve" smooth="yes"/>
      <point x="371" y="727"/>
      <point x="400" y="703"/>
      <point x="436" y="703" type="curve" smooth="yes"/>
      <point x="476" y="703"/>
      <point x="507" y="732"/>
    </contour>
    <contour>
      <point x="622" y="633" type="curve" smooth="yes"/>
      <point x="622" y="648"/>
      <point x="616" y="681"/>
      <point x="573" y="681" type="curve" smooth="yes"/>
      <point x="530" y="681"/>
      <point x="523" y="647"/>
      <point x="523" y="631" type="curve" smooth="yes"/>
      <point x="523" y="498"/>
      <point x="528" y="397"/>
      <point x="515" y="277" type="curve" smooth="yes"/>
      <point x="499" y="139"/>
      <point x="419" y="92"/>
      <point x="336" y="92" type="curve" smooth="yes"/>
      <point x="205" y="92"/>
      <point x="168" y="236"/>
      <point x="163" y="381" type="curve" smooth="yes"/>
      <point x="160" y="474"/>
      <point x="161" y="544"/>
      <point x="163" y="633" type="curve" smooth="yes"/>
      <point x="163" y="649"/>
      <point x="155" y="681"/>
      <point x="115" y="681" type="curve" smooth="yes"/>
      <point x="74" y="681"/>
      <point x="63" y="650"/>
      <point x="63" y="634" type="curve" smooth="yes"/>
      <point x="62" y="549"/>
      <point x="60" y="474"/>
      <point x="63" y="367" type="curve" smooth="yes"/>
      <point x="70" y="151"/>
      <point x="165" y="0"/>
      <point x="334" y="0" type="curve" smooth="yes"/>
      <point x="511" y="0"/>
      <point x="593" y="110"/>
      <point x="614" y="270" type="curve" smooth="yes"/>
      <point x="631" y="400"/>
      <point x="626" y="507"/>
    </contour>
  </outline>
</glyph>
<glyph name="Yacute" format="1">
  <advance width="619"/>
  <unicode hex="00DD"/>
  <outline>
    <contour>
      <point x="307" y="321" type="line"/>
      <point x="506" y="657" type="line" smooth="yes"/>
      <point x="515" y="673"/>
      <point x="531" y="681"/>
      <point x="549" y="681" type="curve" smooth="yes"/>
      <point x="573" y="681"/>
      <point x="598" y="660"/>
      <point x="598" y="632" type="curve" smooth="yes"/>
      <point x="598" y="621"/>
      <point x="597" y="615"/>
      <point x="588" y="600" type="curve" smooth="yes"/>
      <point x="246" y="25" type="line" smooth="yes"/>
      <point x="237" y="9"/>
      <point x="221" y="0"/>
      <point x="203" y="0" type="curve" smooth="yes"/>
      <point x="175" y="0"/>
      <point x="154" y="24"/>
      <point x="154" y="49" type="curve" smooth="yes"/>
      <point x="154" y="59"/>
      <point x="155" y="64"/>
      <point x="162" y="77" type="curve" smooth="yes"/>
      <point x="249" y="223" type="line"/>
      <point x="27" y="603" type="line" smooth="yes"/>
      <point x="21" y="614"/>
      <point x="19" y="623"/>
      <point x="19" y="632" type="curve" smooth="yes"/>
      <point x="19" y="658"/>
      <point x="41" y="681"/>
      <point x="69" y="681" type="curve" smooth="yes"/>
      <point x="86" y="681"/>
      <point x="102" y="672"/>
      <point x="111" y="656" type="curve" smooth="yes"/>
    </contour>
    <contour>
      <point x="223" y="790" type="curve" smooth="yes"/>
      <point x="338" y="883" type="line" smooth="yes"/>
      <point x="348" y="891"/>
      <point x="362" y="902"/>
      <point x="379" y="902" type="curve" smooth="yes"/>
      <point x="409" y="902"/>
      <point x="432" y="878"/>
      <point x="432" y="847" type="curve" smooth="yes"/>
      <point x="432" y="832"/>
      <point x="427" y="817"/>
      <point x="413" y="807" type="curve" smooth="yes"/>
      <point x="289" y="722" type="line" smooth="yes"/>
      <point x="279" y="715"/>
      <point x="267" y="709"/>
      <point x="256" y="709" type="curve" smooth="yes"/>
      <point x="232" y="709"/>
      <point x="210" y="730"/>
      <point x="210" y="757" type="curve" smooth="yes"/>
      <point x="210" y="768"/>
      <point x="212" y="781"/>
    </contour>
  </outline>
</glyph>
<glyph name="aacute" format="1">
  <advance width="531"/>
  <unicode hex="00E1"/>
  <outline>
    <contour>
      <point x="447" y="456" type="line"/>
      <point x="429" y="465"/>
      <point x="359" y="502"/>
      <point x="287" y="502" type="curve" smooth="yes"/>
      <point x="112" y="502"/>
      <point x="47" y="319"/>
      <point x="47" y="216" type="curve" smooth="yes"/>
      <point x="47" y="85"/>
      <point x="130" y="-3"/>
      <point x="240" y="-3" type="curve" smooth="yes"/>
      <point x="280" y="-3"/>
      <point x="319" y="10"/>
      <point x="352" y="25" type="curve"/>
      <point x="357" y="5"/>
      <point x="373" y="-10"/>
      <point x="399" y="-10" type="curve" smooth="yes"/>
      <point x="427" y="-10"/>
      <point x="447" y="14"/>
      <point x="447" y="40" type="curve" smooth="yes"/>
    </contour>
    <contour>
      <point x="349" y="134" type="line"/>
      <point x="324" y="118"/>
      <point x="279" y="93"/>
      <point x="239" y="93" type="curve" smooth="yes"/>
      <point x="169" y="93"/>
      <point x="144" y="164"/>
      <point x="144" y="218" type="curve" smooth="yes"/>
      <point x="144" y="285"/>
      <point x="182" y="407"/>
      <point x="289" y="407" type="curve" smooth="yes"/>
      <point x="310" y="407"/>
      <point x="335" y="402"/>
      <point x="352" y="395" type="curve"/>
    </contour>
    <contour>
      <point x="223" y="610" type="line" smooth="yes"/>
      <point x="212" y="601"/>
      <point x="210" y="588"/>
      <point x="210" y="577" type="curve" smooth="yes"/>
      <point x="210" y="550"/>
      <point x="232" y="529"/>
      <point x="256" y="529" type="curve" smooth="yes"/>
      <point x="267" y="529"/>
      <point x="279" y="535"/>
      <point x="289" y="542" type="curve" smooth="yes"/>
      <point x="413" y="627" type="line" smooth="yes"/>
      <point x="427" y="637"/>
      <point x="432" y="652"/>
      <point x="432" y="667" type="curve" smooth="yes"/>
      <point x="432" y="698"/>
      <point x="409" y="722"/>
      <point x="379" y="722" type="curve" smooth="yes"/>
      <point x="362" y="722"/>
      <point x="348" y="711"/>
      <point x="338" y="703" type="curve" smooth="yes"/>
    </contour>
  </outline>
</glyph>
<glyph name="atilde" format="1">
  <advance width="531"/>
  <unicode hex="00E3"/>
  <outline>
    <contour>
      <point x="447" y="456" type="curve"/>
      <point x="447" y="40" type="line" smooth="yes"/>
      <point x="447" y="14"/>
      <point x="427" y="-10"/>
      <point x="399" y="-10" type="curve" smooth="yes"/>
      <point x="373" y="-10"/>
      <point x="357" y="5"/>
      <point x="352" y="25" type="curve"/>
      <point x="319" y="10"/>
      <point x="280" y="-3"/>
      <point x="240" y="-3" type="curve" smooth="yes"/>
      <point x="130" y="-3"/>
      <point x="47" y="85"/>
      <point x="47" y="216" type="curve" smooth="yes"/>
      <point x="47" y="319"/>
      <point x="112" y="502"/>
      <point x="287" y="502" type="curve" smooth="yes"/>
      <point x="359" y="502"/>
      <point x="429" y="465"/>
    </contour>
    <contour>
      <point x="349" y="134" type="curve"/>
      <point x="352" y="395" type="line"/>
      <point x="335" y="402"/>
      <point x="310" y="407"/>
      <point x="289" y="407" type="curve" smooth="yes"/>
      <point x="182" y="407"/>
      <point x="144" y="285"/>
      <point x="144" y="218" type="curve" smooth="yes"/>
      <point x="144" y="164"/>
      <point x="169" y="93"/>
      <point x="239" y="93" type="curve" smooth="yes"/>
      <point x="279" y="93"/>
      <point x="324" y="118"/>
    </contour>
    <contour>
      <point x="399" y="691" type="curve" smooth="yes"/>
      <point x="403" y="706"/>
      <point x="415" y="713"/>
      <point x="430" y="713" type="curve" smooth="yes"/>
      <point x="449" y="713"/>
      <point x="469" y="703"/>
      <point x="469" y="680" type="curve" smooth="yes"/>
      <point x="469" y="676"/>
      <point x="469" y="669"/>
      <point x="466" y="658" type="curve" smooth="yes"/>
      <point x="456" y="627"/>
      <point x="421" y="525"/>
      <point x="320" y="525" type="curve" smooth="yes"/>
      <point x="288" y="525"/>
      <point x="261" y="542"/>
      <point x="239" y="573" type="curve" smooth="yes"/>
      <point x="223" y="596"/>
      <point x="212" y="608"/>
      <point x="197" y="608" type="curve" smooth="yes"/>
      <point x="162" y="608"/>
      <point x="145" y="556"/>
      <point x="140" y="540" type="curve" smooth="yes"/>
      <point x="135" y="525"/>
      <point x="126" y="518"/>
      <point x="111" y="518" type="curve" smooth="yes"/>
      <point x="92" y="518"/>
      <point x="72" y="528"/>
      <point x="72" y="551" type="curve" smooth="yes"/>
      <point x="72" y="555"/>
      <point x="72" y="562"/>
      <point x="75" y="573" type="curve" smooth="yes"/>
      <point x="92" y="630"/>
      <point x="131" y="697"/>
      <point x="209" y="697" type="curve" smooth="yes"/>
      <point x="248" y="697"/>
      <point x="274" y="680"/>
      <point x="296" y="649" type="curve" smooth="yes"/>
      <point x="312" y="627"/>
      <point x="323" y="613"/>
      <point x="338" y="613" type="curve" smooth="yes"/>
      <point x="359" y="613"/>
      <point x="385" y="637"/>
    </contour>
  </outline>
</glyph>
<glyph name="adieresis" format="1">
  <advance width="531"/>
  <unicode hex="00E4"/>
  <outline>
    <contour>
      <point x="257" y="606" type="curve" smooth="yes"/>
      <point x="257" y="571"/>
      <point x="227" y="543"/>
      <point x="188" y="543" type="curve" smooth="yes"/>
      <point x="152" y="543"/>
      <point x="124" y="567"/>
      <point x="124" y="601" type="curve" smooth="yes"/>
      <point x="124" y="634"/>
      <point x="155" y="664"/>
      <point x="193" y="664" type="curve" smooth="yes"/>
      <point x="226" y="664"/>
      <point x="257" y="639"/>
    </contour>
    <contour>
      <point x="441" y="606" type="curve" smooth="yes"/>
      <point x="441" y="571"/>
      <point x="411" y="543"/>
      <point x="372" y="543" type="curve" smooth="yes"/>
      <point x="337" y="543"/>
      <point x="309" y="567"/>
      <point x="309" y="601" type="curve" smooth="yes"/>
      <point x="309" y="634"/>
      <point x="339" y="664"/>
      <point x="378" y="664" type="curve" smooth="yes"/>
      <point x="410" y="664"/>
      <point x="441" y="639"/>
    </contour>
    <contour>
      <point x="447" y="456" type="curve"/>
      <point x="447" y="40" type="line" smooth="yes"/>
      <point x="447" y="14"/>
      <point x="427" y="-10"/>
      <point x="399" y="-10" type="curve" smooth="yes"/>
      <point x="373" y="-10"/>
      <point x="357" y="5"/>
      <point x="352" y="25" type="curve"/>
      <point x="319" y="10"/>
      <point x="280" y="-3"/>
      <point x="240" y="-3" type="curve" smooth="yes"/>
      <point x="130" y="-3"/>
      <point x="47" y="85"/>
      <point x="47" y="216" type="curve" smooth="yes"/>
      <point x="47" y="319"/>
      <point x="112" y="502"/>
      <point x="287" y="502" type="curve" smooth="yes"/>
      <point x="359" y="502"/>
      <point x="429" y="465"/>
    </contour>
    <contour>
      <point x="349" y="134" type="curve"/>
      <point x="352" y="395" type="line"/>
      <point x="335" y="402"/>
      <point x="310" y="407"/>
      <point x="289" y="407" type="curve" smooth="yes"/>
      <point x="182" y="407"/>
      <point x="144" y="285"/>
      <point x="144" y="218" type="curve" smooth="yes"/>
      <point x="144" y="164"/>
      <point x="169" y="93"/>
      <point x="239" y="93" type="curve" smooth="yes"/>
      <point x="279" y="93"/>
      <point x="324" y="118"/>
    </contour>
  </outline>
</glyph>
<glyph name="aring" format="1">
  <advance width="531"/>
  <unicode hex="00E5"/>
  <outline>
    <contour>
      <point x="289" y="531" type="curve" smooth="yes"/>
      <point x="361" y="531"/>
      <point x="435" y="583"/>
      <point x="435" y="660" type="curve" smooth="yes"/>
      <point x="435" y="725"/>
      <point x="376" y="776"/>
      <point x="309" y="776" type="curve" smooth="yes"/>
      <point x="236" y="776"/>
      <point x="163" y="722"/>
      <point x="163" y="647" type="curve" smooth="yes"/>
      <point x="163" y="582"/>
      <point x="220" y="531"/>
    </contour>
    <contour>
      <point x="306" y="688" type="curve" smooth="yes"/>
      <point x="332" y="688"/>
      <point x="351" y="672"/>
      <point x="351" y="658" type="curve" smooth="yes"/>
      <point x="351" y="633"/>
      <point x="320" y="619"/>
      <point x="298" y="619" type="curve" smooth="yes"/>
      <point x="269" y="619"/>
      <point x="247" y="630"/>
      <point x="247" y="647" type="curve" smooth="yes"/>
      <point x="247" y="664"/>
      <point x="270" y="688"/>
    </contour>
    <contour>
      <point x="447" y="456" type="line"/>
      <point x="429" y="465"/>
      <point x="359" y="502"/>
      <point x="287" y="502" type="curve" smooth="yes"/>
      <point x="112" y="502"/>
      <point x="47" y="319"/>
      <point x="47" y="216" type="curve" smooth="yes"/>
      <point x="47" y="85"/>
      <point x="130" y="-3"/>
      <point x="240" y="-3" type="curve" smooth="yes"/>
      <point x="280" y="-3"/>
      <point x="319" y="10"/>
      <point x="352" y="25" type="curve"/>
      <point x="357" y="5"/>
      <point x="373" y="-10"/>
      <point x="399" y="-10" type="curve" smooth="yes"/>
      <point x="427" y="-10"/>
      <point x="447" y="14"/>
      <point x="447" y="40" type="curve" smooth="yes"/>
    </contour>
    <contour>
      <point x="349" y="134" type="line"/>
      <point x="324" y="118"/>
      <point x="279" y="93"/>
      <point x="239" y="93" type="curve" smooth="yes"/>
      <point x="169" y="93"/>
      <point x="144" y="164"/>
      <point x="144" y="218" type="curve" smooth="yes"/>
      <point x="144" y="285"/>
      <point x="182" y="407"/>
      <point x="289" y="407" type="curve" smooth="yes"/>
      <point x="310" y="407"/>
      <point x="335" y="402"/>
      <point x="352" y="395" type="curve"/>
    </contour>
  </outline>
</glyph>
<glyph name="egrave" format="1">
  <advance width="547"/>
  <unicode hex="00E8"/>
  <outline>
    <contour>
      <point x="396" y="135" type="curve" smooth="yes"/>
      <point x="374" y="112"/>
      <point x="330" y="93"/>
      <point x="297" y="93" type="curve" smooth="yes"/>
      <point x="240" y="93"/>
      <point x="197" y="114"/>
      <point x="168" y="155" type="curve"/>
      <point x="436" y="309" type="line" smooth="yes"/>
      <point x="457" y="321"/>
      <point x="467" y="338"/>
      <point x="467" y="355" type="curve" smooth="yes"/>
      <point x="467" y="402"/>
      <point x="407" y="499"/>
      <point x="275" y="499" type="curve" smooth="yes"/>
      <point x="138" y="499"/>
      <point x="49" y="376"/>
      <point x="49" y="239" type="curve" smooth="yes"/>
      <point x="49" y="114"/>
      <point x="145" y="0"/>
      <point x="297" y="0" type="curve" smooth="yes"/>
      <point x="359" y="0"/>
      <point x="428" y="33"/>
      <point x="464" y="74" type="curve" smooth="yes"/>
      <point x="471" y="81"/>
      <point x="476" y="92"/>
      <point x="476" y="104" type="curve" smooth="yes"/>
      <point x="476" y="131"/>
      <point x="456" y="151"/>
      <point x="429" y="151" type="curve" smooth="yes"/>
      <point x="416" y="151"/>
      <point x="405" y="144"/>
    </contour>
    <contour>
      <point x="140" y="247" type="line"/>
      <point x="144" y="335"/>
      <point x="198" y="405"/>
      <point x="275" y="405" type="curve" smooth="yes"/>
      <point x="321" y="405"/>
      <point x="350" y="394"/>
      <point x="366" y="372" type="curve"/>
    </contour>
    <contour>
      <point x="295" y="543" type="line" smooth="yes"/>
      <point x="303" y="534"/>
      <point x="314" y="528"/>
      <point x="329" y="528" type="curve" smooth="yes"/>
      <point x="353" y="528"/>
      <point x="377" y="548"/>
      <point x="377" y="575" type="curve" smooth="yes"/>
      <point x="377" y="585"/>
      <point x="374" y="593"/>
      <point x="365" y="605" type="curve" smooth="yes"/>
      <point x="270" y="724" type="line" smooth="yes"/>
      <point x="260" y="736"/>
      <point x="244" y="746"/>
      <point x="226" y="746" type="curve" smooth="yes"/>
      <point x="198" y="746"/>
      <point x="172" y="720"/>
      <point x="172" y="692" type="curve" smooth="yes"/>
      <point x="172" y="676"/>
      <point x="178" y="664"/>
      <point x="188" y="654" type="curve" smooth="yes"/>
    </contour>
  </outline>
</glyph>
<glyph name="eacute" format="1">
  <advance width="547"/>
  <unicode hex="00E9"/>
  <outline>
    <contour>
      <point x="396" y="135" type="curve" smooth="yes"/>
      <point x="374" y="112"/>
      <point x="330" y="93"/>
      <point x="297" y="93" type="curve" smooth="yes"/>
      <point x="240" y="93"/>
      <point x="197" y="114"/>
      <point x="168" y="155" type="curve"/>
      <point x="436" y="309" type="line" smooth="yes"/>
      <point x="457" y="321"/>
      <point x="467" y="338"/>
      <point x="467" y="355" type="curve" smooth="yes"/>
      <point x="467" y="402"/>
      <point x="407" y="499"/>
      <point x="275" y="499" type="curve" smooth="yes"/>
      <point x="138" y="499"/>
      <point x="49" y="376"/>
      <point x="49" y="239" type="curve" smooth="yes"/>
      <point x="49" y="114"/>
      <point x="145" y="0"/>
      <point x="297" y="0" type="curve" smooth="yes"/>
      <point x="359" y="0"/>
      <point x="428" y="33"/>
      <point x="464" y="74" type="curve" smooth="yes"/>
      <point x="471" y="81"/>
      <point x="476" y="92"/>
      <point x="476" y="104" type="curve" smooth="yes"/>
      <point x="476" y="131"/>
      <point x="456" y="151"/>
      <point x="429" y="151" type="curve" smooth="yes"/>
      <point x="416" y="151"/>
      <point x="405" y="144"/>
    </contour>
    <contour>
      <point x="140" y="247" type="line"/>
      <point x="144" y="335"/>
      <point x="198" y="405"/>
      <point x="275" y="405" type="curve" smooth="yes"/>
      <point x="321" y="405"/>
      <point x="350" y="394"/>
      <point x="366" y="372" type="curve"/>
    </contour>
    <contour>
      <point x="203" y="610" type="line" smooth="yes"/>
      <point x="192" y="601"/>
      <point x="190" y="588"/>
      <point x="190" y="577" type="curve" smooth="yes"/>
      <point x="190" y="550"/>
      <point x="212" y="529"/>
      <point x="236" y="529" type="curve" smooth="yes"/>
      <point x="247" y="529"/>
      <point x="259" y="535"/>
      <point x="269" y="542" type="curve" smooth="yes"/>
      <point x="393" y="627" type="line" smooth="yes"/>
      <point x="407" y="637"/>
      <point x="412" y="652"/>
      <point x="412" y="667" type="curve" smooth="yes"/>
      <point x="412" y="698"/>
      <point x="389" y="722"/>
      <point x="359" y="722" type="curve" smooth="yes"/>
      <point x="342" y="722"/>
      <point x="328" y="711"/>
      <point x="318" y="703" type="curve" smooth="yes"/>
    </contour>
  </outline>
</glyph>
<glyph name="iacute" format="1">
  <advance width="245"/>
  <unicode hex="00ED"/>
  <outline>
    <contour>
      <point x="168" y="447" type="line" smooth="yes"/>
      <point x="168" y="474"/>
      <point x="146" y="496"/>
      <point x="119" y="496" type="curve" smooth="yes"/>
      <point x="91" y="496"/>
      <point x="69" y="474"/>
      <point x="69" y="447" type="curve" smooth="yes"/>
      <point x="64" y="49" type="line" smooth="yes"/>
      <point x="64" y="22"/>
      <point x="86" y="0"/>
      <point x="113" y="0" type="curve" smooth="yes"/>
      <point x="140" y="0"/>
      <point x="162" y="22"/>
      <point x="162" y="49" type="curve" smooth="yes"/>
    </contour>
    <contour>
      <point x="23" y="610" type="line" smooth="yes"/>
      <point x="12" y="601"/>
      <point x="10" y="588"/>
      <point x="10" y="577" type="curve" smooth="yes"/>
      <point x="10" y="550"/>
      <point x="32" y="529"/>
      <point x="56" y="529" type="curve" smooth="yes"/>
      <point x="67" y="529"/>
      <point x="79" y="535"/>
      <point x="89" y="542" type="curve" smooth="yes"/>
      <point x="213" y="627" type="line" smooth="yes"/>
      <point x="227" y="637"/>
      <point x="232" y="652"/>
      <point x="232" y="667" type="curve" smooth="yes"/>
      <point x="232" y="698"/>
      <point x="209" y="722"/>
      <point x="179" y="722" type="curve" smooth="yes"/>
      <point x="162" y="722"/>
      <point x="148" y="711"/>
      <point x="138" y="703" type="curve" smooth="yes"/>
    </contour>
  </outline>
</glyph>
<glyph name="icircumflex" format="1">
  <advance width="285"/>
  <unicode hex="00EE"/>
  <outline>
    <contour>
      <point x="190" y="447" type="curve" smooth="yes"/>
      <point x="185" y="49" type="line" smooth="yes"/>
      <point x="185" y="22"/>
      <point x="163" y="0"/>
      <point x="136" y="0" type="curve" smooth="yes"/>
      <point x="109" y="0"/>
      <point x="87" y="22"/>
      <point x="87" y="49" type="curve" smooth="yes"/>
      <point x="92" y="447" type="line" smooth="yes"/>
      <point x="92" y="474"/>
      <point x="114" y="496"/>
      <point x="141" y="496" type="curve" smooth="yes"/>
      <point x="169" y="496"/>
      <point x="190" y="474"/>
    </contour>
    <contour>
      <point x="1" y="626" type="curve" smooth="yes"/>
      <point x="120" y="726" type="line" smooth="yes"/>
      <point x="131" y="735"/>
      <point x="143" y="738"/>
      <point x="152" y="738" type="curve" smooth="yes"/>
      <point x="164" y="738"/>
      <point x="178" y="732"/>
      <point x="190" y="720" type="curve" smooth="yes"/>
      <point x="286" y="624" type="line" smooth="yes"/>
      <point x="296" y="614"/>
      <point x="300" y="603"/>
      <point x="300" y="590" type="curve" smooth="yes"/>
      <point x="300" y="565"/>
      <point x="279" y="543"/>
      <point x="254" y="543" type="curve" smooth="yes"/>
      <point x="242" y="543"/>
      <point x="232" y="545"/>
      <point x="221" y="555" type="curve" smooth="yes"/>
      <point x="148" y="621" type="line"/>
      <point x="59" y="552" type="line" smooth="yes"/>
      <point x="48" y="544"/>
      <point x="40" y="543"/>
      <point x="30" y="543" type="curve" smooth="yes"/>
      <point x="5" y="543"/>
      <point x="-17" y="563"/>
      <point x="-17" y="590" type="curve" smooth="yes"/>
      <point x="-17" y="603"/>
      <point x="-11" y="616"/>
    </contour>
  </outline>
</glyph>
<glyph name="eth" format="1">
  <advance width="508"/>
  <unicode hex="00F0"/>
  <outline>
    <contour>
      <point x="212" y="645" type="curve" smooth="yes"/>
      <point x="216" y="643"/>
      <point x="222" y="639"/>
      <point x="250" y="611" type="curve"/>
      <point x="292" y="636"/>
      <point x="339" y="655"/>
      <point x="357" y="655" type="curve" smooth="yes"/>
      <point x="377" y="655"/>
      <point x="397" y="640"/>
      <point x="397" y="615" type="curve" smooth="yes"/>
      <point x="397" y="602"/>
      <point x="394" y="589"/>
      <point x="376" y="580" type="curve" smooth="yes"/>
      <point x="309" y="547" type="line"/>
      <point x="379" y="467"/>
      <point x="439" y="364"/>
      <point x="439" y="255" type="curve" smooth="yes"/>
      <point x="439" y="129"/>
      <point x="357" y="1"/>
      <point x="219" y="1" type="curve" smooth="yes"/>
      <point x="122" y="1"/>
      <point x="47" y="74"/>
      <point x="47" y="184" type="curve" smooth="yes"/>
      <point x="47" y="327"/>
      <point x="140" y="419"/>
      <point x="278" y="438" type="curve"/>
      <point x="264" y="459"/>
      <point x="244" y="485"/>
      <point x="228" y="501" type="curve"/>
      <point x="196" y="482"/>
      <point x="179" y="472"/>
      <point x="163" y="461" type="curve" smooth="yes"/>
      <point x="145" y="449"/>
      <point x="136" y="443"/>
      <point x="125" y="443" type="curve" smooth="yes"/>
      <point x="102" y="443"/>
      <point x="85" y="459"/>
      <point x="85" y="482" type="curve" smooth="yes"/>
      <point x="85" y="499"/>
      <point x="92" y="510"/>
      <point x="106" y="520" type="curve" smooth="yes"/>
      <point x="120" y="531"/>
      <point x="136" y="544"/>
      <point x="166" y="561" type="curve"/>
      <point x="150" y="575"/>
      <point x="141" y="584"/>
      <point x="141" y="605" type="curve" smooth="yes"/>
      <point x="141" y="630"/>
      <point x="163" y="651"/>
      <point x="187" y="651" type="curve" smooth="yes"/>
      <point x="198" y="651"/>
      <point x="202" y="650"/>
    </contour>
    <contour>
      <point x="219" y="93" type="curve" smooth="yes"/>
      <point x="300" y="93"/>
      <point x="347" y="174"/>
      <point x="347" y="258" type="curve" smooth="yes"/>
      <point x="347" y="289"/>
      <point x="339" y="320"/>
      <point x="326" y="351" type="curve"/>
      <point x="224" y="349"/>
      <point x="138" y="303"/>
      <point x="138" y="184" type="curve" smooth="yes"/>
      <point x="138" y="127"/>
      <point x="173" y="93"/>
    </contour>
  </outline>
</glyph>
<glyph name="ograve" format="1">
  <advance width="561"/>
  <unicode hex="00F2"/>
  <outline>
    <contour>
      <point x="254" y="0" type="curve" smooth="yes"/>
      <point x="137" y="0"/>
      <point x="48" y="104"/>
      <point x="48" y="232" type="curve" smooth="yes"/>
      <point x="48" y="377"/>
      <point x="155" y="500"/>
      <point x="282" y="500" type="curve" smooth="yes"/>
      <point x="399" y="500"/>
      <point x="489" y="392"/>
      <point x="489" y="268" type="curve" smooth="yes"/>
      <point x="489" y="122"/>
      <point x="381" y="0"/>
    </contour>
    <contour>
      <point x="278" y="411" type="curve" smooth="yes"/>
      <point x="206" y="411"/>
      <point x="145" y="328"/>
      <point x="145" y="233" type="curve" smooth="yes"/>
      <point x="145" y="155"/>
      <point x="189" y="89"/>
      <point x="254" y="89" type="curve" smooth="yes"/>
      <point x="325" y="89"/>
      <point x="390" y="170"/>
      <point x="390" y="263" type="curve" smooth="yes"/>
      <point x="390" y="342"/>
      <point x="340" y="411"/>
    </contour>
    <contour>
      <point x="310" y="543" type="curve" smooth="yes"/>
      <point x="203" y="654" type="line" smooth="yes"/>
      <point x="193" y="664"/>
      <point x="187" y="676"/>
      <point x="187" y="692" type="curve" smooth="yes"/>
      <point x="187" y="720"/>
      <point x="213" y="746"/>
      <point x="241" y="746" type="curve" smooth="yes"/>
      <point x="259" y="746"/>
      <point x="275" y="736"/>
      <point x="285" y="724" type="curve" smooth="yes"/>
      <point x="380" y="605" type="line" smooth="yes"/>
      <point x="389" y="593"/>
      <point x="392" y="585"/>
      <point x="392" y="575" type="curve" smooth="yes"/>
      <point x="392" y="548"/>
      <point x="368" y="528"/>
      <point x="344" y="528" type="curve" smooth="yes"/>
      <point x="329" y="528"/>
      <point x="318" y="534"/>
    </contour>
  </outline>
</glyph>
<glyph name="oacute" format="1">
  <advance width="561"/>
  <unicode hex="00F3"/>
  <outline>
    <contour>
      <point x="254" y="0" type="curve" smooth="yes"/>
      <point x="381" y="0"/>
      <point x="489" y="122"/>
      <point x="489" y="268" type="curve" smooth="yes"/>
      <point x="489" y="392"/>
      <point x="399" y="500"/>
      <point x="282" y="500" type="curve" smooth="yes"/>
      <point x="155" y="500"/>
      <point x="48" y="377"/>
      <point x="48" y="232" type="curve" smooth="yes"/>
      <point x="48" y="104"/>
      <point x="137" y="0"/>
    </contour>
    <contour>
      <point x="278" y="411" type="curve" smooth="yes"/>
      <point x="340" y="411"/>
      <point x="390" y="342"/>
      <point x="390" y="263" type="curve" smooth="yes"/>
      <point x="390" y="170"/>
      <point x="325" y="89"/>
      <point x="254" y="89" type="curve" smooth="yes"/>
      <point x="189" y="89"/>
      <point x="145" y="155"/>
      <point x="145" y="233" type="curve" smooth="yes"/>
      <point x="145" y="328"/>
      <point x="206" y="411"/>
    </contour>
    <contour>
      <point x="198" y="610" type="line" smooth="yes"/>
      <point x="187" y="601"/>
      <point x="185" y="588"/>
      <point x="185" y="577" type="curve" smooth="yes"/>
      <point x="185" y="550"/>
      <point x="207" y="529"/>
      <point x="231" y="529" type="curve" smooth="yes"/>
      <point x="242" y="529"/>
      <point x="254" y="535"/>
      <point x="264" y="542" type="curve" smooth="yes"/>
      <point x="388" y="627" type="line" smooth="yes"/>
      <point x="402" y="637"/>
      <point x="407" y="652"/>
      <point x="407" y="667" type="curve" smooth="yes"/>
      <point x="407" y="698"/>
      <point x="384" y="722"/>
      <point x="354" y="722" type="curve" smooth="yes"/>
      <point x="337" y="722"/>
      <point x="323" y="711"/>
      <point x="313" y="703" type="curve" smooth="yes"/>
    </contour>
  </outline>
</glyph>
<glyph name="ocircumflex" format="1">
  <advance width="561"/>
  <unicode hex="00F4"/>
  <outline>
    <contour>
      <point x="254" y="0" type="curve" smooth="yes"/>
      <point x="137" y="0"/>
      <point x="48" y="104"/>
      <point x="48" y="232" type="curve" smooth="yes"/>
      <point x="48" y="377"/>
      <point x="155" y="500"/>
      <point x="282" y="500" type="curve" smooth="yes"/>
      <point x="399" y="500"/>
      <point x="489" y="392"/>
      <point x="489" y="268" type="curve" smooth="yes"/>
      <point x="489" y="122"/>
      <point x="381" y="0"/>
    </contour>
    <contour>
      <point x="278" y="411" type="curve" smooth="yes"/>
      <point x="206" y="411"/>
      <point x="145" y="328"/>
      <point x="145" y="233" type="curve" smooth="yes"/>
      <point x="145" y="155"/>
      <point x="189" y="89"/>
      <point x="254" y="89" type="curve" smooth="yes"/>
      <point x="325" y="89"/>
      <point x="390" y="170"/>
      <point x="390" y="263" type="curve" smooth="yes"/>
      <point x="390" y="342"/>
      <point x="340" y="411"/>
    </contour>
    <contour>
      <point x="161" y="626" type="curve" smooth="yes"/>
      <point x="280" y="726" type="line" smooth="yes"/>
      <point x="291" y="735"/>
      <point x="303" y="738"/>
      <point x="312" y="738" type="curve" smooth="yes"/>
      <point x="324" y="738"/>
      <point x="338" y="732"/>
      <point x="350" y="720" type="curve" smooth="yes"/>
      <point x="446" y="624" type="line" smooth="yes"/>
      <point x="456" y="614"/>
      <point x="460" y="603"/>
      <point x="460" y="590" type="curve" smooth="yes"/>
      <point x="460" y="565"/>
      <point x="439" y="543"/>
      <point x="414" y="543" type="curve" smooth="yes"/>
      <point x="402" y="543"/>
      <point x="392" y="545"/>
      <point x="381" y="555" type="curve" smooth="yes"/>
      <point x="308" y="621" type="line"/>
      <point x="219" y="552" type="line" smooth="yes"/>
      <point x="208" y="544"/>
      <point x="200" y="543"/>
      <point x="190" y="543" type="curve" smooth="yes"/>
      <point x="165" y="543"/>
      <point x="143" y="563"/>
      <point x="143" y="590" type="curve" smooth="yes"/>
      <point x="143" y="603"/>
      <point x="149" y="616"/>
    </contour>
  </outline>
</glyph>
<glyph name="odieresis" format="1">
  <advance width="561"/>
  <unicode hex="00F6"/>
  <outline>
    <contour>
      <point x="254" y="0" type="curve" smooth="yes"/>
      <point x="381" y="0"/>
      <point x="489" y="122"/>
      <point x="489" y="268" type="curve" smooth="yes"/>
      <point x="489" y="392"/>
      <point x="399" y="500"/>
      <point x="282" y="500" type="curve" smooth="yes"/>
      <point x="155" y="500"/>
      <point x="48" y="377"/>
      <point x="48" y="232" type="curve" smooth="yes"/>
      <point x="48" y="104"/>
      <point x="137" y="0"/>
    </contour>
    <contour>
      <point x="278" y="411" type="curve" smooth="yes"/>
      <point x="340" y="411"/>
      <point x="390" y="342"/>
      <point x="390" y="263" type="curve" smooth="yes"/>
      <point x="390" y="170"/>
      <point x="325" y="89"/>
      <point x="254" y="89" type="curve" smooth="yes"/>
      <point x="189" y="89"/>
      <point x="145" y="155"/>
      <point x="145" y="233" type="curve" smooth="yes"/>
      <point x="145" y="328"/>
      <point x="206" y="411"/>
    </contour>
    <contour>
      <point x="271" y="606" type="curve" smooth="yes"/>
      <point x="271" y="639"/>
      <point x="241" y="664"/>
      <point x="208" y="664" type="curve" smooth="yes"/>
      <point x="170" y="664"/>
      <point x="139" y="634"/>
      <point x="139" y="601" type="curve" smooth="yes"/>
      <point x="139" y="567"/>
      <point x="167" y="543"/>
      <point x="202" y="543" type="curve" smooth="yes"/>
      <point x="241" y="543"/>
      <point x="271" y="571"/>
    </contour>
    <contour>
      <point x="456" y="606" type="curve" smooth="yes"/>
      <point x="456" y="639"/>
      <point x="425" y="664"/>
      <point x="392" y="664" type="curve" smooth="yes"/>
      <point x="354" y="664"/>
      <point x="323" y="634"/>
      <point x="323" y="601" type="curve" smooth="yes"/>
      <point x="323" y="567"/>
      <point x="351" y="543"/>
      <point x="387" y="543" type="curve" smooth="yes"/>
      <point x="426" y="543"/>
      <point x="456" y="571"/>
    </contour>
  </outline>
</glyph>
<glyph name="oslash" format="1">
  <advance width="561"/>
  <unicode hex="00F8"/>
  <outline>
    <contour>
      <point x="445" y="471" type="curve" smooth="yes"/>
      <point x="424" y="437" type="line"/>
      <point x="463" y="394"/>
      <point x="489" y="332"/>
      <point x="489" y="268" type="curve" smooth="yes"/>
      <point x="489" y="122"/>
      <point x="381" y="0"/>
      <point x="254" y="0" type="curve" smooth="yes"/>
      <point x="227" y="0"/>
      <point x="201" y="5"/>
      <point x="178" y="15" type="curve"/>
      <point x="163" y="-9" type="line" smooth="yes"/>
      <point x="154" y="-23"/>
      <point x="140" y="-32"/>
      <point x="124" y="-32" type="curve" smooth="yes"/>
      <point x="100.061" y="-32"/>
      <point x="78.8734" y="-9.99459"/>
      <point x="78.8734" y="14.701" type="curve" smooth="yes"/>
      <point x="78.8734" y="25.0475"/>
      <point x="80.9859" y="32.2616"/>
      <point x="89" y="46" type="curve" smooth="yes"/>
      <point x="104" y="71" type="line"/>
      <point x="68" y="113"/>
      <point x="48" y="168"/>
      <point x="48" y="232" type="curve" smooth="yes"/>
      <point x="48" y="377"/>
      <point x="155" y="500"/>
      <point x="282" y="500" type="curve" smooth="yes"/>
      <point x="304" y="500"/>
      <point x="327" y="495"/>
      <point x="347" y="488" type="curve"/>
      <point x="365" y="518" type="line" smooth="yes"/>
      <point x="374" y="533"/>
      <point x="388" y="541"/>
      <point x="404" y="541" type="curve" smooth="yes"/>
      <point x="428" y="541"/>
      <point x="450" y="522"/>
      <point x="451" y="497" type="curve" smooth="yes"/>
      <point x="451" y="489"/>
      <point x="451" y="481"/>
    </contour>
    <contour>
      <point x="254" y="89" type="curve" smooth="yes"/>
      <point x="325" y="89"/>
      <point x="390" y="170"/>
      <point x="390" y="263" type="curve" smooth="yes"/>
      <point x="390" y="293"/>
      <point x="383" y="322"/>
      <point x="371" y="345" type="curve"/>
      <point x="224" y="94" type="line"/>
      <point x="233" y="90"/>
      <point x="243" y="89"/>
    </contour>
    <contour>
      <point x="278" y="411" type="curve" smooth="yes"/>
      <point x="206" y="411"/>
      <point x="145" y="328"/>
      <point x="145" y="233" type="curve" smooth="yes"/>
      <point x="145" y="207"/>
      <point x="150" y="184"/>
      <point x="159" y="162" type="curve"/>
      <point x="301" y="408" type="line"/>
      <point x="295" y="410"/>
      <point x="285" y="411"/>
    </contour>
  </outline>
</glyph>
<glyph name="ucircumflex" format="1">
  <advance width="538"/>
  <unicode hex="00FB"/>
  <outline>
    <contour>
      <point x="453" y="454" type="curve" smooth="yes"/>
      <point x="453" y="48" type="line" smooth="yes"/>
      <point x="453" y="23"/>
      <point x="431" y="0"/>
      <point x="405" y="0" type="curve" smooth="yes"/>
      <point x="378" y="0"/>
      <point x="359" y="17"/>
      <point x="354" y="40" type="curve"/>
      <point x="320" y="16"/>
      <point x="273" y="-3"/>
      <point x="222" y="-3" type="curve" smooth="yes"/>
      <point x="123" y="-3"/>
      <point x="64" y="22"/>
      <point x="62" y="287" type="curve" smooth="yes"/>
      <point x="61.9348" y="291.756"/>
      <point x="61.9037" y="296.432"/>
      <point x="61.9037" y="301.027" type="curve" smooth="yes"/>
      <point x="61.9037" y="366.956"/>
      <point x="68.3258" y="416.28"/>
      <point x="73" y="449" type="curve" smooth="yes"/>
      <point x="79" y="492"/>
      <point x="95" y="500"/>
      <point x="120" y="500" type="curve" smooth="yes"/>
      <point x="145" y="500"/>
      <point x="168" y="485"/>
      <point x="168" y="453" type="curve" smooth="yes"/>
      <point x="168" y="445"/>
      <point x="167" y="439"/>
      <point x="166" y="431" type="curve" smooth="yes"/>
      <point x="163" y="401"/>
      <point x="156" y="351"/>
      <point x="156" y="288" type="curve" smooth="yes"/>
      <point x="156" y="114"/>
      <point x="186" y="87"/>
      <point x="222" y="87" type="curve" smooth="yes"/>
      <point x="276" y="87"/>
      <point x="333" y="125"/>
      <point x="350" y="144" type="curve" smooth="yes"/>
      <point x="354" y="148"/>
      <point x="356" y="158"/>
      <point x="356" y="169" type="curve" smooth="yes"/>
      <point x="358" y="454" type="line" smooth="yes"/>
      <point x="358" y="481"/>
      <point x="381" y="500"/>
      <point x="405" y="500" type="curve" smooth="yes"/>
      <point x="430" y="500"/>
      <point x="453" y="481"/>
    </contour>
    <contour>
      <point x="141" y="626" type="curve" smooth="yes"/>
      <point x="260" y="726" type="line" smooth="yes"/>
      <point x="271" y="735"/>
      <point x="283" y="738"/>
      <point x="292" y="738" type="curve" smooth="yes"/>
      <point x="304" y="738"/>
      <point x="318" y="732"/>
      <point x="330" y="720" type="curve" smooth="yes"/>
      <point x="426" y="624" type="line" smooth="yes"/>
      <point x="436" y="614"/>
      <point x="440" y="603"/>
      <point x="440" y="590" type="curve" smooth="yes"/>
      <point x="440" y="565"/>
      <point x="419" y="543"/>
      <point x="394" y="543" type="curve" smooth="yes"/>
      <point x="382" y="543"/>
      <point x="372" y="545"/>
      <point x="361" y="555" type="curve" smooth="yes"/>
      <point x="288" y="621" type="line"/>
      <point x="199" y="552" type="line" smooth="yes"/>
      <point x="188" y="544"/>
      <point x="180" y="543"/>
      <point x="170" y="543" type="curve" smooth="yes"/>
      <point x="145" y="543"/>
      <point x="123" y="563"/>
      <point x="123" y="590" type="curve" smooth="yes"/>
      <point x="123" y="603"/>
      <point x="129" y="616"/>
    </contour>
  </outline>
</glyph>
<glyph name="thorn" format="1">
  <advance width="546"/>
  <unicode hex="00FE"/>
  <outline>
    <contour>
      <point x="306" y="491" type="line"/>
      <point x="245" y="491"/>
      <point x="194" y="473"/>
      <point x="158" y="451" type="curve"/>
      <point x="158" y="622" type="line" smooth="yes"/>
      <point x="158" y="650"/>
      <point x="137" y="671"/>
      <point x="110" y="671" type="curve" smooth="yes"/>
      <point x="82" y="671"/>
      <point x="62" y="650"/>
      <point x="62" y="622" type="curve" smooth="yes"/>
      <point x="62" y="-129" type="line" smooth="yes"/>
      <point x="62" y="-154"/>
      <point x="84" y="-177"/>
      <point x="110" y="-177" type="curve" smooth="yes"/>
      <point x="135" y="-177"/>
      <point x="158" y="-154"/>
      <point x="158" y="-129" type="curve" smooth="yes"/>
      <point x="158" y="24" type="line"/>
      <point x="185" y="15"/>
      <point x="218" y="7"/>
      <point x="253" y="7" type="curve" smooth="yes"/>
      <point x="431" y="7"/>
      <point x="475" y="155"/>
      <point x="475" y="269" type="curve" smooth="yes"/>
      <point x="475" y="375"/>
      <point x="423" y="485"/>
      <point x="307" y="491" type="curve"/>
    </contour>
    <contour>
      <point x="259" y="104" type="curve" smooth="yes"/>
      <point x="221" y="104"/>
      <point x="181" y="119"/>
      <point x="158" y="128" type="curve"/>
      <point x="158" y="336" type="line"/>
      <point x="176" y="359"/>
      <point x="221" y="401"/>
      <point x="299" y="401" type="curve" smooth="yes"/>
      <point x="366" y="401"/>
      <point x="384" y="317"/>
      <point x="384" y="269" type="curve" smooth="yes"/>
      <point x="384" y="174"/>
      <point x="352" y="104"/>
    </contour>
  </outline>
</glyph>
<glyph name="Abreve" format="1">
  <advance width="650"/>
  <unicode hex="0102"/>
  <outline>
    <contour>
      <point x="375" y="655" type="curve" smooth="yes"/>
      <point x="578" y="67" type="line" smooth="yes"/>
      <point x="580" y="61"/>
      <point x="581" y="53"/>
      <point x="581" y="48" type="curve" smooth="yes"/>
      <point x="581" y="22"/>
      <point x="561" y="-1"/>
      <point x="531" y="-1" type="curve" smooth="yes"/>
      <point x="507" y="-1"/>
      <point x="493" y="8"/>
      <point x="484" y="33" type="curve" smooth="yes"/>
      <point x="412" y="241" type="line"/>
      <point x="208" y="196" type="line"/>
      <point x="143" y="32" type="line" smooth="yes"/>
      <point x="136" y="15"/>
      <point x="121" y="0"/>
      <point x="97" y="0" type="curve" smooth="yes"/>
      <point x="67" y="0"/>
      <point x="47" y="25"/>
      <point x="47" y="49" type="curve" smooth="yes"/>
      <point x="47" y="56"/>
      <point x="48" y="62"/>
      <point x="50" y="67" type="curve" smooth="yes"/>
      <point x="94" y="177" type="line"/>
      <point x="73" y="184"/>
      <point x="59" y="201"/>
      <point x="59" y="225" type="curve" smooth="yes"/>
      <point x="59" y="249"/>
      <point x="75" y="268"/>
      <point x="97" y="273" type="curve" smooth="yes"/>
      <point x="134" y="281" type="line"/>
      <point x="282" y="657" type="line" smooth="yes"/>
      <point x="290" y="677"/>
      <point x="309" y="688"/>
      <point x="329" y="688" type="curve" smooth="yes"/>
      <point x="349" y="688"/>
      <point x="367" y="679"/>
    </contour>
    <contour>
      <point x="250" y="306" type="line"/>
      <point x="379" y="334" type="line"/>
      <point x="325" y="495" type="line"/>
    </contour>
    <contour>
      <point x="156" y="836" type="curve" smooth="yes"/>
      <point x="156" y="851"/>
      <point x="158" y="873"/>
      <point x="195" y="873" type="curve" smooth="yes"/>
      <point x="216" y="873"/>
      <point x="229" y="856"/>
      <point x="235" y="844" type="curve" smooth="yes"/>
      <point x="252" y="808"/>
      <point x="296" y="796"/>
      <point x="324" y="796" type="curve" smooth="yes"/>
      <point x="360" y="796"/>
      <point x="385" y="810"/>
      <point x="399" y="844" type="curve" smooth="yes"/>
      <point x="407" y="863"/>
      <point x="415" y="878"/>
      <point x="441" y="878" type="curve" smooth="yes"/>
      <point x="461" y="878"/>
      <point x="479" y="860"/>
      <point x="479" y="840" type="curve" smooth="yes"/>
      <point x="479" y="791"/>
      <point x="423" y="709"/>
      <point x="322" y="709" type="curve" smooth="yes"/>
      <point x="198" y="709"/>
      <point x="156" y="810"/>
    </contour>
  </outline>
</glyph>
<glyph name="abreve" format="1">
  <advance width="531"/>
  <unicode hex="0103"/>
  <outline>
    <contour>
      <point x="447" y="456" type="curve"/>
      <point x="447" y="40" type="line" smooth="yes"/>
      <point x="447" y="14"/>
      <point x="427" y="-10"/>
      <point x="399" y="-10" type="curve" smooth="yes"/>
      <point x="373" y="-10"/>
      <point x="357" y="5"/>
      <point x="352" y="25" type="curve"/>
      <point x="319" y="10"/>
      <point x="280" y="-3"/>
      <point x="240" y="-3" type="curve" smooth="yes"/>
      <point x="130" y="-3"/>
      <point x="47" y="85"/>
      <point x="47" y="216" type="curve" smooth="yes"/>
      <point x="47" y="319"/>
      <point x="112" y="502"/>
      <point x="287" y="502" type="curve" smooth="yes"/>
      <point x="359" y="502"/>
      <point x="429" y="465"/>
    </contour>
    <contour>
      <point x="349" y="134" type="curve"/>
      <point x="352" y="395" type="line"/>
      <point x="335" y="402"/>
      <point x="310" y="407"/>
      <point x="289" y="407" type="curve" smooth="yes"/>
      <point x="182" y="407"/>
      <point x="144" y="285"/>
      <point x="144" y="218" type="curve" smooth="yes"/>
      <point x="144" y="164"/>
      <point x="169" y="93"/>
      <point x="239" y="93" type="curve" smooth="yes"/>
      <point x="279" y="93"/>
      <point x="324" y="118"/>
    </contour>
    <contour>
      <point x="117" y="655" type="curve" smooth="yes"/>
      <point x="117" y="670"/>
      <point x="119" y="692"/>
      <point x="156" y="692" type="curve" smooth="yes"/>
      <point x="177" y="692"/>
      <point x="190" y="675"/>
      <point x="196" y="663" type="curve" smooth="yes"/>
      <point x="213" y="627"/>
      <point x="257" y="615"/>
      <point x="285" y="615" type="curve" smooth="yes"/>
      <point x="321" y="615"/>
      <point x="346" y="629"/>
      <point x="360" y="663" type="curve" smooth="yes"/>
      <point x="368" y="682"/>
      <point x="376" y="697"/>
      <point x="402" y="697" type="curve" smooth="yes"/>
      <point x="422" y="697"/>
      <point x="440" y="679"/>
      <point x="440" y="659" type="curve" smooth="yes"/>
      <point x="440" y="610"/>
      <point x="384" y="528"/>
      <point x="283" y="528" type="curve" smooth="yes"/>
      <point x="159" y="528"/>
      <point x="117" y="629"/>
    </contour>
  </outline>
</glyph>
<glyph name="aogonek" format="1">
  <advance width="531"/>
  <unicode hex="0105"/>
  <outline>
    <contour>
      <point x="386" y="-196" type="curve" smooth="yes"/>
      <point x="318" y="-196"/>
      <point x="267" y="-147"/>
      <point x="267" y="-79" type="curve" smooth="yes"/>
      <point x="267" y="-18"/>
      <point x="313" y="11"/>
      <point x="358" y="37" type="curve"/>
      <point x="355" y="44"/>
      <point x="353" y="50"/>
      <point x="352" y="55" type="curve"/>
      <point x="319" y="32"/>
      <point x="280" y="17"/>
      <point x="240" y="17" type="curve" smooth="yes"/>
      <point x="130" y="17"/>
      <point x="47" y="95"/>
      <point x="47" y="226" type="curve" smooth="yes"/>
      <point x="47" y="329"/>
      <point x="112" y="512"/>
      <point x="287" y="512" type="curve" smooth="yes"/>
      <point x="359" y="512"/>
      <point x="429" y="475"/>
      <point x="447" y="466" type="curve"/>
      <point x="447" y="50" type="line" smooth="yes"/>
      <point x="447" y="11"/>
      <point x="426" y="-4"/>
      <point x="403" y="-21" type="curve" smooth="yes"/>
      <point x="384" y="-35"/>
      <point x="358" y="-54"/>
      <point x="358" y="-80" type="curve" smooth="yes"/>
      <point x="358" y="-95"/>
      <point x="371" y="-104"/>
      <point x="386" y="-104" type="curve" smooth="yes"/>
      <point x="399" y="-104"/>
      <point x="414" y="-100"/>
      <point x="426" y="-90" type="curve" smooth="yes"/>
      <point x="437" y="-82"/>
      <point x="445" y="-80"/>
      <point x="455" y="-80" type="curve" smooth="yes"/>
      <point x="476" y="-80"/>
      <point x="499" y="-102"/>
      <point x="499" y="-126" type="curve" smooth="yes"/>
      <point x="499" y="-168"/>
      <point x="425" y="-196"/>
    </contour>
    <contour>
      <point x="349" y="154" type="curve"/>
      <point x="352" y="405" type="line"/>
      <point x="335" y="412"/>
      <point x="310" y="417"/>
      <point x="289" y="417" type="curve" smooth="yes"/>
      <point x="182" y="417"/>
      <point x="144" y="295"/>
      <point x="144" y="228" type="curve" smooth="yes"/>
      <point x="144" y="174"/>
      <point x="169" y="113"/>
      <point x="239" y="113" type="curve" smooth="yes"/>
      <point x="279" y="113"/>
      <point x="324" y="138"/>
    </contour>
  </outline>
</glyph>
<glyph name="cacute" format="1">
  <advance width="535"/>
  <unicode hex="0107"/>
  <outline>
    <contour>
      <point x="374" y="147" type="curve" smooth="yes"/>
      <point x="381" y="156"/>
      <point x="394" y="172"/>
      <point x="417" y="172" type="curve" smooth="yes"/>
      <point x="443" y="172"/>
      <point x="464" y="151"/>
      <point x="464" y="124" type="curve" smooth="yes"/>
      <point x="464" y="112"/>
      <point x="459" y="102"/>
      <point x="453" y="94" type="curve" smooth="yes"/>
      <point x="418" y="47"/>
      <point x="349" y="0"/>
      <point x="275" y="0" type="curve" smooth="yes"/>
      <point x="155" y="0"/>
      <point x="47" y="91"/>
      <point x="47" y="219" type="curve" smooth="yes"/>
      <point x="47" y="266"/>
      <point x="61" y="310"/>
      <point x="71" y="335" type="curve" smooth="yes"/>
      <point x="96" y="401"/>
      <point x="173" y="500"/>
      <point x="272" y="500" type="curve" smooth="yes"/>
      <point x="347" y="500"/>
      <point x="384" y="476"/>
      <point x="424" y="430" type="curve" smooth="yes"/>
      <point x="433" y="419"/>
      <point x="437" y="408"/>
      <point x="437" y="396" type="curve" smooth="yes"/>
      <point x="437" y="370"/>
      <point x="415" y="349"/>
      <point x="389" y="349" type="curve" smooth="yes"/>
      <point x="372" y="349"/>
      <point x="364" y="354"/>
      <point x="358" y="361" type="curve" smooth="yes"/>
      <point x="334" y="389"/>
      <point x="312" y="407"/>
      <point x="274" y="407" type="curve" smooth="yes"/>
      <point x="224" y="407"/>
      <point x="176" y="346"/>
      <point x="157" y="302" type="curve"/>
      <point x="146" y="272"/>
      <point x="141" y="243"/>
      <point x="141" y="221" type="curve" smooth="yes"/>
      <point x="141" y="122"/>
      <point x="229" y="93"/>
      <point x="263" y="93" type="curve" smooth="yes"/>
      <point x="320" y="93"/>
      <point x="352" y="117"/>
    </contour>
    <contour>
      <point x="203" y="610" type="curve" smooth="yes"/>
      <point x="318" y="703" type="line" smooth="yes"/>
      <point x="328" y="711"/>
      <point x="342" y="722"/>
      <point x="359" y="722" type="curve" smooth="yes"/>
      <point x="389" y="722"/>
      <point x="412" y="698"/>
      <point x="412" y="667" type="curve" smooth="yes"/>
      <point x="412" y="652"/>
      <point x="407" y="637"/>
      <point x="393" y="627" type="curve" smooth="yes"/>
      <point x="269" y="542" type="line" smooth="yes"/>
      <point x="259" y="535"/>
      <point x="247" y="529"/>
      <point x="236" y="529" type="curve" smooth="yes"/>
      <point x="212" y="529"/>
      <point x="190" y="550"/>
      <point x="190" y="577" type="curve" smooth="yes"/>
      <point x="190" y="588"/>
      <point x="192" y="601"/>
    </contour>
  </outline>
</glyph>
<glyph name="Ccircumflex" format="1">
  <advance width="658"/>
  <unicode hex="0108"/>
  <outline>
    <contour>
      <point x="579" y="117" type="curve" smooth="yes"/>
      <point x="521" y="41"/>
      <point x="436" y="-2"/>
      <point x="339" y="-2" type="curve" smooth="yes"/>
      <point x="179" y="-2"/>
      <point x="47" y="128"/>
      <point x="47" y="299" type="curve" smooth="yes"/>
      <point x="47" y="501"/>
      <point x="206" y="684"/>
      <point x="346" y="684" type="curve" smooth="yes"/>
      <point x="404" y="684"/>
      <point x="449" y="669"/>
      <point x="479" y="653" type="curve"/>
      <point x="488" y="659"/>
      <point x="495" y="660"/>
      <point x="505" y="660" type="curve" smooth="yes"/>
      <point x="533" y="660"/>
      <point x="555" y="639"/>
      <point x="555" y="611" type="curve" smooth="yes"/>
      <point x="555" y="551" type="line" smooth="yes"/>
      <point x="555" y="524"/>
      <point x="533" y="501"/>
      <point x="505" y="501" type="curve" smooth="yes"/>
      <point x="478" y="501"/>
      <point x="457" y="521"/>
      <point x="455" y="547" type="curve"/>
      <point x="437" y="564"/>
      <point x="408" y="584"/>
      <point x="346" y="584" type="curve" smooth="yes"/>
      <point x="253" y="584"/>
      <point x="147" y="441"/>
      <point x="147" y="299" type="curve" smooth="yes"/>
      <point x="147" y="156"/>
      <point x="264" y="98"/>
      <point x="339" y="98" type="curve" smooth="yes"/>
      <point x="399" y="98"/>
      <point x="455" y="119"/>
      <point x="499" y="177" type="curve" smooth="yes"/>
      <point x="511" y="193"/>
      <point x="523" y="197"/>
      <point x="538" y="197" type="curve" smooth="yes"/>
      <point x="564" y="197"/>
      <point x="588" y="179"/>
      <point x="588" y="147" type="curve" smooth="yes"/>
      <point x="588" y="137"/>
      <point x="586" y="127"/>
    </contour>
    <contour>
      <point x="216" y="786" type="curve" smooth="yes"/>
      <point x="335" y="886" type="line" smooth="yes"/>
      <point x="346" y="895"/>
      <point x="358" y="898"/>
      <point x="367" y="898" type="curve" smooth="yes"/>
      <point x="379" y="898"/>
      <point x="393" y="892"/>
      <point x="405" y="880" type="curve" smooth="yes"/>
      <point x="501" y="784" type="line" smooth="yes"/>
      <point x="511" y="774"/>
      <point x="515" y="763"/>
      <point x="515" y="750" type="curve" smooth="yes"/>
      <point x="515" y="725"/>
      <point x="494" y="703"/>
      <point x="469" y="703" type="curve" smooth="yes"/>
      <point x="457" y="703"/>
      <point x="447" y="705"/>
      <point x="436" y="715" type="curve" smooth="yes"/>
      <point x="363" y="781" type="line"/>
      <point x="274" y="712" type="line" smooth="yes"/>
      <point x="263" y="704"/>
      <point x="255" y="703"/>
      <point x="245" y="703" type="curve" smooth="yes"/>
      <point x="220" y="703"/>
      <point x="198" y="723"/>
      <point x="198" y="750" type="curve" smooth="yes"/>
      <point x="198" y="763"/>
      <point x="204" y="776"/>
    </contour>
  </outline>
</glyph>
<glyph name="Ccaron" format="1">
  <advance width="658"/>
  <unicode hex="010C"/>
  <outline>
    <contour>
      <point x="579" y="117" type="curve" smooth="yes"/>
      <point x="586" y="127"/>
      <point x="588" y="137"/>
      <point x="588" y="147" type="curve" smooth="yes"/>
      <point x="588" y="179"/>
      <point x="564" y="197"/>
      <point x="538" y="197" type="curve" smooth="yes"/>
      <point x="523" y="197"/>
      <point x="511" y="193"/>
      <point x="499" y="177" type="curve" smooth="yes"/>
      <point x="455" y="119"/>
      <point x="399" y="98"/>
      <point x="339" y="98" type="curve" smooth="yes"/>
      <point x="264" y="98"/>
      <point x="147" y="156"/>
      <point x="147" y="299" type="curve" smooth="yes"/>
      <point x="147" y="441"/>
      <point x="253" y="584"/>
      <point x="346" y="584" type="curve" smooth="yes"/>
      <point x="408" y="584"/>
      <point x="437" y="564"/>
      <point x="455" y="547" type="curve"/>
      <point x="457" y="521"/>
      <point x="478" y="501"/>
      <point x="505" y="501" type="curve" smooth="yes"/>
      <point x="533" y="501"/>
      <point x="555" y="524"/>
      <point x="555" y="551" type="curve" smooth="yes"/>
      <point x="555" y="611" type="line" smooth="yes"/>
      <point x="555" y="639"/>
      <point x="533" y="660"/>
      <point x="505" y="660" type="curve" smooth="yes"/>
      <point x="495" y="660"/>
      <point x="488" y="659"/>
      <point x="479" y="653" type="curve"/>
      <point x="449" y="669"/>
      <point x="404" y="684"/>
      <point x="346" y="684" type="curve" smooth="yes"/>
      <point x="206" y="684"/>
      <point x="47" y="501"/>
      <point x="47" y="299" type="curve" smooth="yes"/>
      <point x="47" y="128"/>
      <point x="179" y="-2"/>
      <point x="339" y="-2" type="curve" smooth="yes"/>
      <point x="436" y="-2"/>
      <point x="521" y="41"/>
    </contour>
    <contour>
      <point x="503" y="821" type="line" smooth="yes"/>
      <point x="515" y="831"/>
      <point x="521" y="844"/>
      <point x="521" y="857" type="curve" smooth="yes"/>
      <point x="521" y="884"/>
      <point x="499" y="904"/>
      <point x="474" y="904" type="curve" smooth="yes"/>
      <point x="464" y="904"/>
      <point x="456" y="903"/>
      <point x="445" y="895" type="curve" smooth="yes"/>
      <point x="356" y="826" type="line"/>
      <point x="283" y="892" type="line" smooth="yes"/>
      <point x="272" y="902"/>
      <point x="262" y="904"/>
      <point x="250" y="904" type="curve" smooth="yes"/>
      <point x="225" y="904"/>
      <point x="204" y="882"/>
      <point x="204" y="857" type="curve" smooth="yes"/>
      <point x="204" y="844"/>
      <point x="208" y="833"/>
      <point x="218" y="823" type="curve" smooth="yes"/>
      <point x="314" y="727" type="line" smooth="yes"/>
      <point x="326" y="715"/>
      <point x="340" y="709"/>
      <point x="352" y="709" type="curve" smooth="yes"/>
      <point x="361" y="709"/>
      <point x="373" y="712"/>
      <point x="384" y="721" type="curve" smooth="yes"/>
    </contour>
  </outline>
</glyph>
<glyph name="ccaron" format="1">
  <advance width="535"/>
  <unicode hex="010D"/>
  <outline>
    <contour>
      <point x="374" y="147" type="curve" smooth="yes"/>
      <point x="352" y="117"/>
      <point x="320" y="93"/>
      <point x="263" y="93" type="curve" smooth="yes"/>
      <point x="229" y="93"/>
      <point x="141" y="122"/>
      <point x="141" y="221" type="curve" smooth="yes"/>
      <point x="141" y="243"/>
      <point x="146" y="272"/>
      <point x="157" y="302" type="curve"/>
      <point x="176" y="346"/>
      <point x="224" y="407"/>
      <point x="274" y="407" type="curve" smooth="yes"/>
      <point x="312" y="407"/>
      <point x="334" y="389"/>
      <point x="358" y="361" type="curve" smooth="yes"/>
      <point x="364" y="354"/>
      <point x="372" y="349"/>
      <point x="389" y="349" type="curve" smooth="yes"/>
      <point x="415" y="349"/>
      <point x="437" y="370"/>
      <point x="437" y="396" type="curve" smooth="yes"/>
      <point x="437" y="408"/>
      <point x="433" y="419"/>
      <point x="424" y="430" type="curve" smooth="yes"/>
      <point x="384" y="476"/>
      <point x="347" y="500"/>
      <point x="272" y="500" type="curve" smooth="yes"/>
      <point x="173" y="500"/>
      <point x="96" y="401"/>
      <point x="71" y="335" type="curve" smooth="yes"/>
      <point x="61" y="310"/>
      <point x="47" y="266"/>
      <point x="47" y="219" type="curve" smooth="yes"/>
      <point x="47" y="91"/>
      <point x="155" y="0"/>
      <point x="275" y="0" type="curve" smooth="yes"/>
      <point x="349" y="0"/>
      <point x="418" y="47"/>
      <point x="453" y="94" type="curve" smooth="yes"/>
      <point x="459" y="102"/>
      <point x="464" y="112"/>
      <point x="464" y="124" type="curve" smooth="yes"/>
      <point x="464" y="151"/>
      <point x="443" y="172"/>
      <point x="417" y="172" type="curve" smooth="yes"/>
      <point x="394" y="172"/>
      <point x="381" y="156"/>
    </contour>
    <contour>
      <point x="420" y="640" type="line" smooth="yes"/>
      <point x="432" y="650"/>
      <point x="438" y="663"/>
      <point x="438" y="676" type="curve" smooth="yes"/>
      <point x="438" y="703"/>
      <point x="416" y="723"/>
      <point x="391" y="723" type="curve" smooth="yes"/>
      <point x="381" y="723"/>
      <point x="373" y="722"/>
      <point x="362" y="714" type="curve" smooth="yes"/>
      <point x="273" y="645" type="line"/>
      <point x="200" y="711" type="line" smooth="yes"/>
      <point x="189" y="721"/>
      <point x="179" y="723"/>
      <point x="167" y="723" type="curve" smooth="yes"/>
      <point x="142" y="723"/>
      <point x="121" y="701"/>
      <point x="121" y="676" type="curve" smooth="yes"/>
      <point x="121" y="663"/>
      <point x="125" y="652"/>
      <point x="135" y="642" type="curve" smooth="yes"/>
      <point x="231" y="546" type="line" smooth="yes"/>
      <point x="243" y="534"/>
      <point x="257" y="528"/>
      <point x="269" y="528" type="curve" smooth="yes"/>
      <point x="278" y="528"/>
      <point x="290" y="531"/>
      <point x="301" y="540" type="curve" smooth="yes"/>
    </contour>
  </outline>
</glyph>
<glyph name="Dcaron" format="1">
  <advance width="646"/>
  <unicode hex="010E"/>
  <outline>
    <contour>
      <point x="423" y="821" type="curve" smooth="yes"/>
      <point x="304" y="721" type="line" smooth="yes"/>
      <point x="293" y="712"/>
      <point x="281" y="709"/>
      <point x="272" y="709" type="curve" smooth="yes"/>
      <point x="260" y="709"/>
      <point x="246" y="715"/>
      <point x="234" y="727" type="curve" smooth="yes"/>
      <point x="138" y="823" type="line" smooth="yes"/>
      <point x="128" y="833"/>
      <point x="124" y="844"/>
      <point x="124" y="857" type="curve" smooth="yes"/>
      <point x="124" y="882"/>
      <point x="145" y="904"/>
      <point x="170" y="904" type="curve" smooth="yes"/>
      <point x="182" y="904"/>
      <point x="192" y="902"/>
      <point x="203" y="892" type="curve" smooth="yes"/>
      <point x="276" y="826" type="line"/>
      <point x="365" y="895" type="line" smooth="yes"/>
      <point x="376" y="903"/>
      <point x="384" y="904"/>
      <point x="394" y="904" type="curve" smooth="yes"/>
      <point x="419" y="904"/>
      <point x="441" y="884"/>
      <point x="441" y="857" type="curve" smooth="yes"/>
      <point x="441" y="844"/>
      <point x="435" y="831"/>
    </contour>
    <contour>
      <point x="219" y="-19" type="curve" smooth="yes"/>
      <point x="164" y="-19"/>
      <point x="108" y="-5"/>
      <point x="99" y="-2" type="curve" smooth="yes"/>
      <point x="78" y="4"/>
      <point x="61" y="25"/>
      <point x="61" y="47" type="curve" smooth="yes"/>
      <point x="61" y="632" type="line" smooth="yes"/>
      <point x="61" y="660"/>
      <point x="83" y="681"/>
      <point x="111" y="681" type="curve" smooth="yes"/>
      <point x="271" y="681"/>
      <point x="569" y="626"/>
      <point x="569" y="303" type="curve" smooth="yes"/>
      <point x="569" y="79"/>
      <point x="412" y="-19"/>
    </contour>
    <contour>
      <point x="161" y="579" type="curve"/>
      <point x="161" y="87" type="line"/>
      <point x="178" y="84"/>
      <point x="199" y="81"/>
      <point x="219" y="81" type="curve" smooth="yes"/>
      <point x="371" y="81"/>
      <point x="469" y="154"/>
      <point x="469" y="303" type="curve" smooth="yes"/>
      <point x="469" y="494"/>
      <point x="328" y="566"/>
    </contour>
  </outline>
</glyph>
<glyph name="Dcroat" format="1">
  <advance width="681"/>
  <unicode hex="0110"/>
  <outline>
    <contour>
      <point x="276" y="-19" type="curve" smooth="yes"/>
      <point x="221" y="-19"/>
      <point x="165" y="-5"/>
      <point x="156" y="-2" type="curve" smooth="yes"/>
      <point x="135" y="4"/>
      <point x="118" y="25"/>
      <point x="118" y="47" type="curve" smooth="yes"/>
      <point x="118" y="262" type="line"/>
      <point x="83" y="262" type="line" smooth="yes"/>
      <point x="57" y="262"/>
      <point x="33" y="285"/>
      <point x="33" y="311" type="curve" smooth="yes"/>
      <point x="33" y="339"/>
      <point x="57" y="361"/>
      <point x="83" y="361" type="curve" smooth="yes"/>
      <point x="118" y="361" type="line"/>
      <point x="118" y="632" type="line" smooth="yes"/>
      <point x="118" y="660"/>
      <point x="140" y="681"/>
      <point x="168" y="681" type="curve" smooth="yes"/>
      <point x="328" y="681"/>
      <point x="626" y="626"/>
      <point x="626" y="303" type="curve" smooth="yes"/>
      <point x="626" y="79"/>
      <point x="469" y="-19"/>
    </contour>
    <contour>
      <point x="218" y="579" type="curve"/>
      <point x="218" y="361" type="line"/>
      <point x="288" y="361" type="line" smooth="yes"/>
      <point x="315" y="361"/>
      <point x="338" y="339"/>
      <point x="338" y="311" type="curve" smooth="yes"/>
      <point x="338" y="285"/>
      <point x="315" y="262"/>
      <point x="288" y="262" type="curve" smooth="yes"/>
      <point x="218" y="262" type="line"/>
      <point x="218" y="87" type="line"/>
      <point x="235" y="84"/>
      <point x="256" y="81"/>
      <point x="276" y="81" type="curve" smooth="yes"/>
      <point x="428" y="81"/>
      <point x="526" y="154"/>
      <point x="526" y="303" type="curve" smooth="yes"/>
      <point x="526" y="494"/>
      <point x="385" y="566"/>
    </contour>
  </outline>
</glyph>
